<ttFont>
    <TTGlyph name="A" xMin="40" yMin="0" xMax="828" yMax="697">
      <contour>
        <pt x="403" y="697" on="1"/>
        <pt x="463" y="697" on="1"/>
        <pt x="464" y="697" on="1"/>
        <pt x="477" y="692" on="0"/>
        <pt x="479" y="686" on="1"/>
        <pt x="719" y="77" on="1"/>
        <pt x="721" y="72" on="1"/>
        <pt x="775" y="72" on="1"/>
        <pt x="828" y="72" on="1"/>
        <pt x="828" y="36" on="1"/>
        <pt x="828" y="0" on="1"/>
        <pt x="816" y="0" on="1"/>
        <pt x="730" y="2" on="1"/>
        <pt x="657" y="3" on="0"/>
        <pt x="572" y="2" on="1"/>
        <pt x="475" y="0" on="1"/>
        <pt x="462" y="0" on="1"/>
        <pt x="462" y="36" on="1"/>
        <pt x="462" y="72" on="1"/>
        <pt x="505" y="72" on="1"/>
        <pt x="548" y="73" on="1"/>
        <pt x="530" y="118" on="1"/>
        <pt x="512" y="163" on="1"/>
        <pt x="389" y="163" on="1"/>
        <pt x="266" y="163" on="0"/>
        <pt x="266" y="162" on="1"/>
        <pt x="248" y="117" on="1"/>
        <pt x="231" y="73" on="1"/>
        <pt x="231" y="72" on="0"/>
        <pt x="274" y="72" on="1"/>
        <pt x="316" y="72" on="1"/>
        <pt x="316" y="36" on="1"/>
        <pt x="316" y="0" on="1"/>
        <pt x="306" y="0" on="1"/>
        <pt x="232" y="2" on="1"/>
        <pt x="167" y="3" on="0"/>
        <pt x="112" y="2" on="1"/>
        <pt x="49" y="0" on="1"/>
        <pt x="40" y="0" on="1"/>
        <pt x="40" y="36" on="1"/>
        <pt x="40" y="72" on="1"/>
        <pt x="93" y="72" on="1"/>
        <pt x="147" y="72" on="1"/>
        <pt x="149" y="77" on="1"/>
        <pt x="389" y="686" on="1"/>
        <pt x="392" y="691" on="0"/>
      </contour>
      <contour>
        <pt x="437" y="355" on="1"/>
        <pt x="390" y="475" on="1"/>
        <pt x="389" y="475" on="1"/>
        <pt x="295" y="235" on="1"/>
        <pt x="390" y="235" on="1"/>
        <pt x="484" y="236" on="1"/>
      </contour>
    </TTGlyph>
    <TTGlyph name="B" xMin="39" yMin="0" xMax="753" yMax="686">
      <contour>
        <pt x="39" y="650" on="1"/>
        <pt x="39" y="686" on="1"/>
        <pt x="265" y="686" on="1"/>
        <pt x="496" y="686" on="0"/>
        <pt x="505" y="685" on="1"/>
        <pt x="574" y="681" on="0"/>
        <pt x="627" y="654" on="1"/>
        <pt x="679" y="627" on="0"/>
        <pt x="705" y="578" on="1"/>
        <pt x="714" y="560" on="0"/>
        <pt x="718" y="539" on="1"/>
        <pt x="723" y="514" on="0"/>
        <pt x="719" y="485" on="1"/>
        <pt x="708" y="440" on="0"/>
        <pt x="673" y="408" on="1"/>
        <pt x="634" y="376" on="0"/>
        <pt x="580" y="362" on="1"/>
        <pt x="569" y="359" on="1"/>
        <pt x="576" y="358" on="1"/>
        <pt x="671" y="342" on="0"/>
        <pt x="716" y="289" on="1"/>
        <pt x="741" y="258" on="0"/>
        <pt x="750" y="219" on="1"/>
        <pt x="752" y="210" on="0"/>
        <pt x="752" y="190" on="1"/>
        <pt x="753" y="148" on="0"/>
        <pt x="732" y="108" on="1"/>
        <pt x="689" y="26" on="0"/>
        <pt x="576" y="6" on="1"/>
        <pt x="569" y="5" on="0"/>
        <pt x="561" y="4" on="1"/>
        <pt x="534" y="0" on="0"/>
        <pt x="280" y="0" on="1"/>
        <pt x="39" y="0" on="1"/>
        <pt x="39" y="36" on="1"/>
        <pt x="39" y="72" on="1"/>
        <pt x="93" y="72" on="1"/>
        <pt x="147" y="72" on="1"/>
        <pt x="147" y="343" on="1"/>
        <pt x="147" y="614" on="1"/>
        <pt x="93" y="614" on="1"/>
        <pt x="39" y="614" on="1"/>
      </contour>
      <contour>
        <pt x="494" y="611" on="1"/>
        <pt x="487" y="613" on="1"/>
        <pt x="395" y="614" on="1"/>
        <pt x="303" y="614" on="1"/>
        <pt x="303" y="501" on="1"/>
        <pt x="303" y="387" on="1"/>
        <pt x="375" y="387" on="1"/>
        <pt x="450" y="387" on="0"/>
        <pt x="456" y="388" on="1"/>
        <pt x="532" y="397" on="0"/>
        <pt x="550" y="472" on="1"/>
        <pt x="550" y="475" on="0"/>
        <pt x="551" y="478" on="1"/>
        <pt x="557" y="503" on="0"/>
        <pt x="553" y="529" on="1"/>
        <pt x="545" y="595" on="0"/>
      </contour>
      <contour>
        <pt x="511" y="323" on="1"/>
        <pt x="504" y="326" on="1"/>
        <pt x="403" y="326" on="1"/>
        <pt x="303" y="326" on="1"/>
        <pt x="303" y="199" on="1"/>
        <pt x="303" y="72" on="1"/>
        <pt x="392" y="72" on="1"/>
        <pt x="492" y="72" on="0"/>
        <pt x="509" y="77" on="1"/>
        <pt x="575" y="98" on="0"/>
        <pt x="580" y="180" on="1"/>
        <pt x="581" y="192" on="0"/>
        <pt x="580" y="205" on="1"/>
        <pt x="577" y="241" on="0"/>
        <pt x="568" y="265" on="1"/>
        <pt x="550" y="309" on="0"/>
      </contour>
    </TTGlyph>
    <TTGlyph name="C" xMin="62" yMin="-13" xMax="766" yMax="700">
      <contour>
        <pt x="438" y="696" on="1"/>
        <pt x="494" y="696" on="1"/>
        <pt x="535" y="693" on="0"/>
        <pt x="570" y="679" on="1"/>
        <pt x="609" y="666" on="0"/>
        <pt x="645" y="639" on="1"/>
        <pt x="654" y="632" on="0"/>
        <pt x="654" y="634" on="1"/>
        <pt x="655" y="634" on="0"/>
        <pt x="691" y="664" on="1"/>
        <pt x="731" y="696" on="0"/>
        <pt x="730" y="695" on="1"/>
        <pt x="738" y="700" on="0"/>
        <pt x="759" y="695" on="1"/>
        <pt x="764" y="692" on="0"/>
        <pt x="765" y="685" on="1"/>
        <pt x="766" y="675" on="0"/>
        <pt x="766" y="555" on="1"/>
        <pt x="766" y="422" on="0"/>
        <pt x="763" y="418" on="1"/>
        <pt x="759" y="416" on="1"/>
        <pt x="755" y="414" on="0"/>
        <pt x="699" y="414" on="0"/>
        <pt x="695" y="416" on="1"/>
        <pt x="688" y="421" on="0"/>
        <pt x="687" y="431" on="1"/>
        <pt x="679" y="505" on="0"/>
        <pt x="634" y="559" on="1"/>
        <pt x="614" y="581" on="0"/>
        <pt x="596" y="594" on="1"/>
        <pt x="564" y="617" on="0"/>
        <pt x="529" y="622" on="1"/>
        <pt x="485" y="631" on="0"/>
        <pt x="421" y="617" on="1"/>
        <pt x="357" y="604" on="0"/>
        <pt x="318" y="571" on="1"/>
        <pt x="295" y="553" on="0"/>
        <pt x="284" y="535" on="1"/>
        <pt x="242" y="474" on="0"/>
        <pt x="242" y="343" on="1"/>
        <pt x="242" y="206" on="0"/>
        <pt x="289" y="145" on="1"/>
        <pt x="294" y="138" on="0"/>
        <pt x="301" y="131" on="1"/>
        <pt x="314" y="118" on="0"/>
        <pt x="318" y="115" on="1"/>
        <pt x="357" y="82" on="0"/>
        <pt x="421" y="69" on="1"/>
        <pt x="477" y="57" on="0"/>
        <pt x="520" y="62" on="1"/>
        <pt x="611" y="71" on="0"/>
        <pt x="661" y="143" on="1"/>
        <pt x="691" y="185" on="0"/>
        <pt x="694" y="236" on="1"/>
        <pt x="694" y="253" on="0"/>
        <pt x="701" y="257" on="1"/>
        <pt x="705" y="259" on="0"/>
        <pt x="755" y="259" on="0"/>
        <pt x="759" y="257" on="1"/>
        <pt x="766" y="252" on="0"/>
        <pt x="766" y="234" on="1"/>
        <pt x="763" y="186" on="0"/>
        <pt x="744" y="147" on="1"/>
        <pt x="697" y="49" on="0"/>
        <pt x="583" y="9" on="1"/>
        <pt x="541" y="-6" on="0"/>
        <pt x="494" y="-10" on="1"/>
        <pt x="462" y="-13" on="0"/>
        <pt x="413" y="-9" on="1"/>
        <pt x="287" y="5" on="0"/>
        <pt x="203" y="63" on="1"/>
        <pt x="123" y="122" on="0"/>
        <pt x="89" y="210" on="1"/>
        <pt x="74" y="248" on="0"/>
        <pt x="66" y="300" on="1"/>
        <pt x="62" y="336" on="0"/>
        <pt x="66" y="382" on="1"/>
        <pt x="66" y="385" on="0"/>
        <pt x="66" y="387" on="1"/>
        <pt x="76" y="467" on="0"/>
        <pt x="116" y="531" on="1"/>
        <pt x="177" y="630" on="0"/>
        <pt x="301" y="672" on="1"/>
        <pt x="365" y="692" on="0"/>
      </contour>
    </TTGlyph>
    <TTGlyph name="D" xMin="39" yMin="0" xMax="827" yMax="686">
      <contour>
        <pt x="39" y="650" on="1"/>
        <pt x="39" y="686" on="1"/>
        <pt x="260" y="686" on="1"/>
        <pt x="487" y="686" on="0"/>
        <pt x="496" y="685" on="1"/>
        <pt x="579" y="679" on="0"/>
        <pt x="644" y="646" on="1"/>
        <pt x="772" y="581" on="0"/>
        <pt x="806" y="434" on="1"/>
        <pt x="808" y="423" on="0"/>
        <pt x="810" y="412" on="1"/>
        <pt x="827" y="315" on="0"/>
        <pt x="802" y="229" on="1"/>
        <pt x="764" y="99" on="0"/>
        <pt x="648" y="41" on="1"/>
        <pt x="593" y="12" on="0"/>
        <pt x="515" y="2" on="1"/>
        <pt x="504" y="1" on="0"/>
        <pt x="270" y="0" on="1"/>
        <pt x="39" y="0" on="1"/>
        <pt x="39" y="36" on="1"/>
        <pt x="39" y="72" on="1"/>
        <pt x="93" y="72" on="1"/>
        <pt x="147" y="72" on="1"/>
        <pt x="147" y="343" on="1"/>
        <pt x="147" y="614" on="1"/>
        <pt x="93" y="614" on="1"/>
        <pt x="39" y="614" on="1"/>
      </contour>
      <contour>
        <pt x="449" y="613" on="1"/>
        <pt x="442" y="614" on="0"/>
        <pt x="372" y="614" on="1"/>
        <pt x="308" y="614" on="1"/>
        <pt x="308" y="343" on="1"/>
        <pt x="308" y="72" on="1"/>
        <pt x="381" y="72" on="1"/>
        <pt x="460" y="73" on="0"/>
        <pt x="467" y="74" on="1"/>
        <pt x="554" y="85" on="0"/>
        <pt x="599" y="135" on="1"/>
        <pt x="637" y="178" on="0"/>
        <pt x="643" y="267" on="1"/>
        <pt x="647" y="347" on="0"/>
        <pt x="643" y="416" on="1"/>
        <pt x="642" y="421" on="0"/>
        <pt x="642" y="424" on="1"/>
        <pt x="632" y="536" on="0"/>
        <pt x="563" y="580" on="1"/>
        <pt x="554" y="585" on="0"/>
        <pt x="544" y="590" on="1"/>
        <pt x="506" y="608" on="0"/>
      </contour>
    </TTGlyph>
    <TTGlyph name="E" xMin="39" yMin="0" xMax="723" yMax="680">
      <contour>
        <pt x="39" y="644" on="1"/>
        <pt x="39" y="680" on="1"/>
        <pt x="349" y="680" on="1"/>
        <pt x="660" y="680" on="1"/>
        <pt x="660" y="676" on="1"/>
        <pt x="661" y="672" on="0"/>
        <pt x="676" y="547" on="1"/>
        <pt x="689" y="425" on="0"/>
        <pt x="691" y="418" on="1"/>
        <pt x="691" y="414" on="1"/>
        <pt x="655" y="414" on="1"/>
        <pt x="619" y="414" on="1"/>
        <pt x="617" y="431" on="1"/>
        <pt x="608" y="496" on="0"/>
        <pt x="593" y="530" on="1"/>
        <pt x="562" y="593" on="0"/>
        <pt x="478" y="605" on="1"/>
        <pt x="451" y="608" on="0"/>
        <pt x="377" y="608" on="1"/>
        <pt x="314" y="608" on="1"/>
        <pt x="314" y="499" on="1"/>
        <pt x="314" y="389" on="1"/>
        <pt x="332" y="389" on="1"/>
        <pt x="378" y="389" on="0"/>
        <pt x="399" y="400" on="1"/>
        <pt x="416" y="407" on="0"/>
        <pt x="424" y="422" on="1"/>
        <pt x="438" y="445" on="0"/>
        <pt x="438" y="493" on="1"/>
        <pt x="438" y="506" on="1"/>
        <pt x="474" y="506" on="1"/>
        <pt x="510" y="506" on="1"/>
        <pt x="510" y="353" on="1"/>
        <pt x="510" y="200" on="1"/>
        <pt x="474" y="200" on="1"/>
        <pt x="438" y="200" on="1"/>
        <pt x="438" y="213" on="1"/>
        <pt x="438" y="261" on="0"/>
        <pt x="424" y="284" on="1"/>
        <pt x="416" y="299" on="0"/>
        <pt x="399" y="306" on="1"/>
        <pt x="378" y="317" on="0"/>
        <pt x="332" y="317" on="1"/>
        <pt x="314" y="317" on="1"/>
        <pt x="314" y="195" on="1"/>
        <pt x="314" y="72" on="1"/>
        <pt x="379" y="72" on="1"/>
        <pt x="450" y="72" on="0"/>
        <pt x="459" y="73" on="1"/>
        <pt x="561" y="80" on="0"/>
        <pt x="603" y="139" on="1"/>
        <pt x="608" y="145" on="0"/>
        <pt x="616" y="162" on="1"/>
        <pt x="634" y="197" on="0"/>
        <pt x="647" y="272" on="1"/>
        <pt x="649" y="292" on="0"/>
        <pt x="651" y="296" on="1"/>
        <pt x="651" y="299" on="1"/>
        <pt x="687" y="299" on="1"/>
        <pt x="723" y="299" on="1"/>
        <pt x="723" y="296" on="1"/>
        <pt x="722" y="294" on="0"/>
        <pt x="700" y="150" on="1"/>
        <pt x="678" y="5" on="0"/>
        <pt x="677" y="3" on="1"/>
        <pt x="677" y="0" on="1"/>
        <pt x="358" y="0" on="1"/>
        <pt x="39" y="0" on="1"/>
        <pt x="39" y="36" on="1"/>
        <pt x="39" y="72" on="1"/>
        <pt x="93" y="72" on="1"/>
        <pt x="147" y="72" on="1"/>
        <pt x="147" y="340" on="1"/>
        <pt x="147" y="608" on="1"/>
        <pt x="93" y="608" on="1"/>
        <pt x="39" y="608" on="1"/>
      </contour>
    </TTGlyph>
    <TTGlyph name="F" xMin="39" yMin="0" xMax="675" yMax="680">
      <contour>
        <pt x="39" y="644" on="1"/>
        <pt x="39" y="680" on="1"/>
        <pt x="341" y="680" on="1"/>
        <pt x="644" y="680" on="1"/>
        <pt x="644" y="676" on="1"/>
        <pt x="646" y="669" on="0"/>
        <pt x="659" y="547" on="1"/>
        <pt x="674" y="422" on="0"/>
        <pt x="675" y="418" on="1"/>
        <pt x="675" y="414" on="1"/>
        <pt x="639" y="414" on="1"/>
        <pt x="603" y="414" on="1"/>
        <pt x="603" y="418" on="0"/>
        <pt x="600" y="435" on="1"/>
        <pt x="595" y="475" on="0"/>
        <pt x="589" y="496" on="1"/>
        <pt x="569" y="574" on="0"/>
        <pt x="501" y="597" on="1"/>
        <pt x="491" y="601" on="0"/>
        <pt x="479" y="603" on="1"/>
        <pt x="459" y="607" on="0"/>
        <pt x="381" y="608" on="1"/>
        <pt x="314" y="608" on="1"/>
        <pt x="314" y="492" on="1"/>
        <pt x="314" y="376" on="1"/>
        <pt x="330" y="376" on="1"/>
        <pt x="388" y="376" on="0"/>
        <pt x="410" y="398" on="1"/>
        <pt x="429" y="417" on="0"/>
        <pt x="432" y="473" on="1"/>
        <pt x="432" y="493" on="1"/>
        <pt x="468" y="493" on="1"/>
        <pt x="504" y="493" on="1"/>
        <pt x="504" y="340" on="1"/>
        <pt x="504" y="187" on="1"/>
        <pt x="468" y="187" on="1"/>
        <pt x="432" y="187" on="1"/>
        <pt x="432" y="207" on="1"/>
        <pt x="429" y="263" on="0"/>
        <pt x="410" y="282" on="1"/>
        <pt x="388" y="304" on="0"/>
        <pt x="330" y="304" on="1"/>
        <pt x="314" y="304" on="1"/>
        <pt x="314" y="188" on="1"/>
        <pt x="314" y="72" on="1"/>
        <pt x="382" y="72" on="1"/>
        <pt x="449" y="72" on="1"/>
        <pt x="449" y="36" on="1"/>
        <pt x="449" y="0" on="1"/>
        <pt x="435" y="0" on="1"/>
        <pt x="326" y="2" on="1"/>
        <pt x="231" y="3" on="0"/>
        <pt x="148" y="2" on="1"/>
        <pt x="51" y="0" on="0"/>
        <pt x="52" y="0" on="1"/>
        <pt x="39" y="0" on="1"/>
        <pt x="39" y="36" on="1"/>
        <pt x="39" y="72" on="1"/>
        <pt x="93" y="72" on="1"/>
        <pt x="147" y="72" on="1"/>
        <pt x="147" y="340" on="1"/>
        <pt x="147" y="608" on="1"/>
        <pt x="93" y="608" on="1"/>
        <pt x="39" y="608" on="1"/>
      </contour>
    </TTGlyph>
    <TTGlyph name="G" xMin="62" yMin="-13" xMax="845" yMax="700">
      <contour>
        <pt x="438" y="696" on="1"/>
        <pt x="442" y="698" on="0"/>
        <pt x="470" y="696" on="1"/>
        <pt x="505" y="696" on="0"/>
        <pt x="534" y="690" on="1"/>
        <pt x="596" y="676" on="0"/>
        <pt x="645" y="638" on="1"/>
        <pt x="653" y="633" on="0"/>
        <pt x="653" y="634" on="1"/>
        <pt x="654" y="634" on="0"/>
        <pt x="690" y="664" on="1"/>
        <pt x="730" y="696" on="0"/>
        <pt x="729" y="695" on="1"/>
        <pt x="737" y="700" on="0"/>
        <pt x="758" y="695" on="1"/>
        <pt x="763" y="692" on="0"/>
        <pt x="764" y="685" on="1"/>
        <pt x="765" y="675" on="0"/>
        <pt x="765" y="555" on="1"/>
        <pt x="765" y="422" on="0"/>
        <pt x="762" y="418" on="1"/>
        <pt x="758" y="416" on="1"/>
        <pt x="754" y="414" on="0"/>
        <pt x="698" y="414" on="0"/>
        <pt x="694" y="416" on="1"/>
        <pt x="687" y="421" on="0"/>
        <pt x="686" y="431" on="1"/>
        <pt x="680" y="495" on="0"/>
        <pt x="640" y="550" on="1"/>
        <pt x="592" y="615" on="0"/>
        <pt x="517" y="624" on="1"/>
        <pt x="464" y="631" on="0"/>
        <pt x="397" y="611" on="1"/>
        <pt x="292" y="581" on="0"/>
        <pt x="260" y="487" on="1"/>
        <pt x="243" y="437" on="0"/>
        <pt x="243" y="343" on="1"/>
        <pt x="243" y="274" on="0"/>
        <pt x="250" y="238" on="1"/>
        <pt x="271" y="122" on="0"/>
        <pt x="376" y="82" on="1"/>
        <pt x="445" y="55" on="0"/>
        <pt x="521" y="63" on="1"/>
        <pt x="540" y="64" on="0"/>
        <pt x="553" y="69" on="1"/>
        <pt x="583" y="80" on="0"/>
        <pt x="593" y="98" on="1"/>
        <pt x="598" y="112" on="0"/>
        <pt x="598" y="159" on="1"/>
        <pt x="598" y="204" on="1"/>
        <pt x="526" y="204" on="1"/>
        <pt x="454" y="204" on="1"/>
        <pt x="454" y="240" on="1"/>
        <pt x="454" y="276" on="1"/>
        <pt x="470" y="276" on="1"/>
        <pt x="583" y="274" on="1"/>
        <pt x="682" y="273" on="0"/>
        <pt x="752" y="274" on="1"/>
        <pt x="834" y="276" on="1"/>
        <pt x="845" y="276" on="1"/>
        <pt x="845" y="240" on="1"/>
        <pt x="845" y="204" on="1"/>
        <pt x="805" y="204" on="1"/>
        <pt x="765" y="204" on="1"/>
        <pt x="765" y="108" on="1"/>
        <pt x="765" y="7" on="0"/>
        <pt x="758" y="2" on="1"/>
        <pt x="751" y="-1" on="0"/>
        <pt x="729" y="7" on="1"/>
        <pt x="675" y="25" on="0"/>
        <pt x="653" y="38" on="1"/>
        <pt x="645" y="43" on="1"/>
        <pt x="637" y="36" on="1"/>
        <pt x="593" y="1" on="0"/>
        <pt x="514" y="-9" on="1"/>
        <pt x="481" y="-13" on="0"/>
        <pt x="427" y="-10" on="1"/>
        <pt x="422" y="-9" on="0"/>
        <pt x="419" y="-9" on="1"/>
        <pt x="358" y="-4" on="0"/>
        <pt x="302" y="14" on="1"/>
        <pt x="190" y="51" on="0"/>
        <pt x="128" y="137" on="1"/>
        <pt x="78" y="209" on="0"/>
        <pt x="66" y="300" on="1"/>
        <pt x="62" y="336" on="0"/>
        <pt x="66" y="382" on="1"/>
        <pt x="66" y="385" on="0"/>
        <pt x="66" y="387" on="1"/>
        <pt x="78" y="477" on="0"/>
        <pt x="128" y="549" on="1"/>
        <pt x="197" y="646" on="0"/>
        <pt x="329" y="680" on="1"/>
        <pt x="376" y="692" on="0"/>
      </contour>
    </TTGlyph>
    <TTGlyph name="H" xMin="39" yMin="0" xMax="860" yMax="686">
      <contour>
        <pt x="39" y="650" on="1"/>
        <pt x="39" y="686" on="1"/>
        <pt x="52" y="686" on="1"/>
        <pt x="51" y="686" on="0"/>
        <pt x="148" y="684" on="1"/>
        <pt x="231" y="683" on="0"/>
        <pt x="314" y="684" on="1"/>
        <pt x="409" y="686" on="1"/>
        <pt x="422" y="686" on="1"/>
        <pt x="422" y="650" on="1"/>
        <pt x="422" y="614" on="1"/>
        <pt x="368" y="614" on="1"/>
        <pt x="314" y="614" on="1"/>
        <pt x="314" y="504" on="1"/>
        <pt x="314" y="393" on="1"/>
        <pt x="450" y="393" on="1"/>
        <pt x="585" y="393" on="1"/>
        <pt x="585" y="504" on="1"/>
        <pt x="585" y="614" on="1"/>
        <pt x="531" y="614" on="1"/>
        <pt x="477" y="614" on="1"/>
        <pt x="477" y="650" on="1"/>
        <pt x="477" y="686" on="1"/>
        <pt x="490" y="686" on="1"/>
        <pt x="585" y="684" on="1"/>
        <pt x="668" y="683" on="0"/>
        <pt x="751" y="684" on="1"/>
        <pt x="848" y="686" on="0"/>
        <pt x="847" y="686" on="1"/>
        <pt x="860" y="686" on="1"/>
        <pt x="860" y="650" on="1"/>
        <pt x="860" y="614" on="1"/>
        <pt x="806" y="614" on="1"/>
        <pt x="752" y="614" on="1"/>
        <pt x="752" y="343" on="1"/>
        <pt x="752" y="72" on="1"/>
        <pt x="806" y="72" on="1"/>
        <pt x="860" y="72" on="1"/>
        <pt x="860" y="36" on="1"/>
        <pt x="860" y="0" on="1"/>
        <pt x="847" y="0" on="1"/>
        <pt x="752" y="2" on="1"/>
        <pt x="669" y="3" on="0"/>
        <pt x="586" y="2" on="1"/>
        <pt x="489" y="0" on="0"/>
        <pt x="490" y="0" on="1"/>
        <pt x="477" y="0" on="1"/>
        <pt x="477" y="36" on="1"/>
        <pt x="477" y="72" on="1"/>
        <pt x="531" y="72" on="1"/>
        <pt x="585" y="72" on="1"/>
        <pt x="585" y="197" on="1"/>
        <pt x="585" y="321" on="1"/>
        <pt x="450" y="321" on="1"/>
        <pt x="314" y="321" on="1"/>
        <pt x="314" y="197" on="1"/>
        <pt x="314" y="72" on="1"/>
        <pt x="368" y="72" on="1"/>
        <pt x="422" y="72" on="1"/>
        <pt x="422" y="36" on="1"/>
        <pt x="422" y="0" on="1"/>
        <pt x="409" y="0" on="1"/>
        <pt x="410" y="0" on="0"/>
        <pt x="313" y="2" on="1"/>
        <pt x="230" y="3" on="0"/>
        <pt x="147" y="2" on="1"/>
        <pt x="52" y="0" on="1"/>
        <pt x="39" y="0" on="1"/>
        <pt x="39" y="36" on="1"/>
        <pt x="39" y="72" on="1"/>
        <pt x="93" y="72" on="1"/>
        <pt x="147" y="72" on="1"/>
        <pt x="147" y="343" on="1"/>
        <pt x="147" y="614" on="1"/>
        <pt x="93" y="614" on="1"/>
        <pt x="39" y="614" on="1"/>
      </contour>
    </TTGlyph>
    <TTGlyph name="I" xMin="20" yMin="0" xMax="415" yMax="686">
      <contour>
        <pt x="20" y="650" on="1"/>
        <pt x="20" y="686" on="1"/>
        <pt x="34" y="686" on="1"/>
        <pt x="132" y="684" on="1"/>
        <pt x="218" y="683" on="0"/>
        <pt x="303" y="684" on="1"/>
        <pt x="402" y="686" on="1"/>
        <pt x="415" y="686" on="1"/>
        <pt x="415" y="650" on="1"/>
        <pt x="415" y="614" on="1"/>
        <pt x="358" y="614" on="1"/>
        <pt x="301" y="614" on="1"/>
        <pt x="301" y="343" on="1"/>
        <pt x="301" y="72" on="1"/>
        <pt x="358" y="72" on="1"/>
        <pt x="415" y="72" on="1"/>
        <pt x="415" y="36" on="1"/>
        <pt x="415" y="0" on="1"/>
        <pt x="401" y="0" on="1"/>
        <pt x="303" y="2" on="1"/>
        <pt x="218" y="3" on="0"/>
        <pt x="132" y="2" on="1"/>
        <pt x="33" y="0" on="1"/>
        <pt x="20" y="0" on="1"/>
        <pt x="20" y="36" on="1"/>
        <pt x="20" y="72" on="1"/>
        <pt x="77" y="72" on="1"/>
        <pt x="134" y="72" on="1"/>
        <pt x="134" y="343" on="1"/>
        <pt x="134" y="614" on="1"/>
        <pt x="77" y="614" on="1"/>
        <pt x="20" y="614" on="1"/>
      </contour>
    </TTGlyph>
    <TTGlyph name="J" xMin="-6" yMin="-14" xMax="527" yMax="686">
      <contour>
        <pt x="144" y="650" on="1"/>
        <pt x="144" y="686" on="1"/>
        <pt x="159" y="686" on="1"/>
        <pt x="158" y="686" on="0"/>
        <pt x="270" y="684" on="1"/>
        <pt x="366" y="683" on="0"/>
        <pt x="436" y="684" on="1"/>
        <pt x="516" y="686" on="1"/>
        <pt x="527" y="686" on="1"/>
        <pt x="527" y="650" on="1"/>
        <pt x="527" y="614" on="1"/>
        <pt x="487" y="614" on="1"/>
        <pt x="446" y="614" on="1"/>
        <pt x="446" y="370" on="1"/>
        <pt x="446" y="127" on="1"/>
        <pt x="442" y="115" on="1"/>
        <pt x="433" y="80" on="0"/>
        <pt x="406" y="53" on="1"/>
        <pt x="357" y="4" on="0"/>
        <pt x="264" y="-7" on="1"/>
        <pt x="206" y="-14" on="0"/>
        <pt x="153" y="-9" on="1"/>
        <pt x="58" y="3" on="0"/>
        <pt x="19" y="50" on="1"/>
        <pt x="5" y="67" on="0"/>
        <pt x="0" y="90" on="1"/>
        <pt x="-6" y="113" on="0"/>
        <pt x="0" y="139" on="1"/>
        <pt x="12" y="185" on="0"/>
        <pt x="60" y="200" on="1"/>
        <pt x="68" y="202" on="0"/>
        <pt x="104" y="202" on="0"/>
        <pt x="113" y="200" on="1"/>
        <pt x="160" y="184" on="0"/>
        <pt x="172" y="139" on="1"/>
        <pt x="178" y="116" on="0"/>
        <pt x="172" y="90" on="1"/>
        <pt x="166" y="69" on="0"/>
        <pt x="158" y="60" on="1"/>
        <pt x="154" y="54" on="0"/>
        <pt x="155" y="54" on="1"/>
        <pt x="161" y="52" on="0"/>
        <pt x="191" y="50" on="1"/>
        <pt x="209" y="50" on="0"/>
        <pt x="216" y="51" on="1"/>
        <pt x="270" y="60" on="0"/>
        <pt x="282" y="116" on="1"/>
        <pt x="284" y="125" on="0"/>
        <pt x="285" y="370" on="1"/>
        <pt x="285" y="614" on="1"/>
        <pt x="215" y="614" on="1"/>
        <pt x="144" y="614" on="1"/>
      </contour>
    </TTGlyph>
    <TTGlyph name="K" xMin="39" yMin="0" xMax="852" yMax="686">
      <contour>
        <pt x="39" y="650" on="1"/>
        <pt x="39" y="686" on="1"/>
        <pt x="52" y="686" on="1"/>
        <pt x="51" y="686" on="0"/>
        <pt x="148" y="684" on="1"/>
        <pt x="231" y="683" on="0"/>
        <pt x="314" y="684" on="1"/>
        <pt x="409" y="686" on="1"/>
        <pt x="422" y="686" on="1"/>
        <pt x="422" y="650" on="1"/>
        <pt x="422" y="614" on="1"/>
        <pt x="368" y="614" on="1"/>
        <pt x="314" y="614" on="1"/>
        <pt x="314" y="482" on="1"/>
        <pt x="314" y="351" on="1"/>
        <pt x="323" y="359" on="1"/>
        <pt x="319" y="355" on="0"/>
        <pt x="471" y="491" on="1"/>
        <pt x="610" y="614" on="1"/>
        <pt x="581" y="614" on="1"/>
        <pt x="551" y="614" on="1"/>
        <pt x="551" y="650" on="1"/>
        <pt x="551" y="686" on="1"/>
        <pt x="562" y="686" on="1"/>
        <pt x="561" y="686" on="0"/>
        <pt x="650" y="684" on="1"/>
        <pt x="726" y="683" on="0"/>
        <pt x="774" y="684" on="1"/>
        <pt x="829" y="686" on="1"/>
        <pt x="836" y="686" on="1"/>
        <pt x="836" y="650" on="1"/>
        <pt x="836" y="614" on="1"/>
        <pt x="778" y="614" on="1"/>
        <pt x="719" y="614" on="1"/>
        <pt x="611" y="518" on="1"/>
        <pt x="502" y="421" on="1"/>
        <pt x="627" y="246" on="1"/>
        <pt x="752" y="72" on="1"/>
        <pt x="802" y="72" on="1"/>
        <pt x="852" y="72" on="1"/>
        <pt x="852" y="36" on="1"/>
        <pt x="852" y="0" on="1"/>
        <pt x="842" y="0" on="1"/>
        <pt x="765" y="2" on="1"/>
        <pt x="698" y="3" on="0"/>
        <pt x="613" y="2" on="1"/>
        <pt x="514" y="0" on="0"/>
        <pt x="515" y="0" on="1"/>
        <pt x="502" y="0" on="1"/>
        <pt x="502" y="36" on="1"/>
        <pt x="502" y="72" on="1"/>
        <pt x="534" y="72" on="1"/>
        <pt x="567" y="73" on="1"/>
        <pt x="478" y="196" on="1"/>
        <pt x="388" y="320" on="1"/>
        <pt x="351" y="287" on="1"/>
        <pt x="314" y="255" on="1"/>
        <pt x="314" y="163" on="1"/>
        <pt x="314" y="72" on="1"/>
        <pt x="368" y="72" on="1"/>
        <pt x="422" y="72" on="1"/>
        <pt x="422" y="36" on="1"/>
        <pt x="422" y="0" on="1"/>
        <pt x="409" y="0" on="1"/>
        <pt x="410" y="0" on="0"/>
        <pt x="313" y="2" on="1"/>
        <pt x="230" y="3" on="0"/>
        <pt x="147" y="2" on="1"/>
        <pt x="52" y="0" on="1"/>
        <pt x="39" y="0" on="1"/>
        <pt x="39" y="36" on="1"/>
        <pt x="39" y="72" on="1"/>
        <pt x="93" y="72" on="1"/>
        <pt x="147" y="72" on="1"/>
        <pt x="147" y="343" on="1"/>
        <pt x="147" y="614" on="1"/>
        <pt x="93" y="614" on="1"/>
        <pt x="39" y="614" on="1"/>
      </contour>
    </TTGlyph>
    <TTGlyph name="L" xMin="39" yMin="0" xMax="643" yMax="686">
      <contour>
        <pt x="39" y="650" on="1"/>
        <pt x="39" y="686" on="1"/>
        <pt x="52" y="686" on="1"/>
        <pt x="51" y="686" on="0"/>
        <pt x="148" y="684" on="1"/>
        <pt x="231" y="683" on="0"/>
        <pt x="326" y="684" on="1"/>
        <pt x="435" y="686" on="1"/>
        <pt x="449" y="686" on="1"/>
        <pt x="449" y="650" on="1"/>
        <pt x="449" y="614" on="1"/>
        <pt x="382" y="614" on="1"/>
        <pt x="314" y="614" on="1"/>
        <pt x="314" y="343" on="1"/>
        <pt x="314" y="72" on="1"/>
        <pt x="357" y="72" on="1"/>
        <pt x="403" y="72" on="0"/>
        <pt x="412" y="74" on="1"/>
        <pt x="453" y="79" on="0"/>
        <pt x="486" y="101" on="1"/>
        <pt x="547" y="143" on="0"/>
        <pt x="563" y="241" on="1"/>
        <pt x="571" y="285" on="0"/>
        <pt x="571" y="298" on="1"/>
        <pt x="571" y="299" on="0"/>
        <pt x="607" y="299" on="1"/>
        <pt x="643" y="299" on="1"/>
        <pt x="643" y="294" on="1"/>
        <pt x="641" y="289" on="0"/>
        <pt x="628" y="150" on="1"/>
        <pt x="613" y="7" on="0"/>
        <pt x="612" y="5" on="1"/>
        <pt x="612" y="0" on="1"/>
        <pt x="325" y="0" on="1"/>
        <pt x="39" y="0" on="1"/>
        <pt x="39" y="36" on="1"/>
        <pt x="39" y="72" on="1"/>
        <pt x="93" y="72" on="1"/>
        <pt x="147" y="72" on="1"/>
        <pt x="147" y="343" on="1"/>
        <pt x="147" y="614" on="1"/>
        <pt x="93" y="614" on="1"/>
        <pt x="39" y="614" on="1"/>
      </contour>
    </TTGlyph>
    <TTGlyph name="M" xMin="39" yMin="-2" xMax="1052" yMax="686">
      <contour>
        <pt x="39" y="650" on="1"/>
        <pt x="39" y="686" on="1"/>
        <pt x="179" y="686" on="1"/>
        <pt x="320" y="686" on="1"/>
        <pt x="325" y="683" on="1"/>
        <pt x="335" y="678" on="0"/>
        <pt x="342" y="660" on="1"/>
        <pt x="447" y="410" on="1"/>
        <pt x="546" y="174" on="1"/>
        <pt x="645" y="410" on="1"/>
        <pt x="750" y="660" on="1"/>
        <pt x="757" y="678" on="0"/>
        <pt x="768" y="683" on="1"/>
        <pt x="773" y="686" on="1"/>
        <pt x="912" y="686" on="1"/>
        <pt x="1052" y="686" on="1"/>
        <pt x="1052" y="650" on="1"/>
        <pt x="1052" y="614" on="1"/>
        <pt x="998" y="614" on="1"/>
        <pt x="944" y="614" on="1"/>
        <pt x="944" y="343" on="1"/>
        <pt x="944" y="72" on="1"/>
        <pt x="998" y="72" on="1"/>
        <pt x="1052" y="72" on="1"/>
        <pt x="1052" y="36" on="1"/>
        <pt x="1052" y="0" on="1"/>
        <pt x="1040" y="0" on="1"/>
        <pt x="1041" y="0" on="0"/>
        <pt x="948" y="2" on="1"/>
        <pt x="869" y="3" on="0"/>
        <pt x="790" y="2" on="1"/>
        <pt x="697" y="0" on="0"/>
        <pt x="698" y="0" on="1"/>
        <pt x="686" y="0" on="1"/>
        <pt x="686" y="36" on="1"/>
        <pt x="686" y="72" on="1"/>
        <pt x="740" y="72" on="1"/>
        <pt x="794" y="72" on="1"/>
        <pt x="794" y="339" on="1"/>
        <pt x="793" y="604" on="1"/>
        <pt x="788" y="594" on="0"/>
        <pt x="669" y="308" on="1"/>
        <pt x="545" y="14" on="0"/>
        <pt x="543" y="12" on="1"/>
        <pt x="538" y="4" on="0"/>
        <pt x="518" y="-2" on="0"/>
        <pt x="491" y="0" on="1"/>
        <pt x="487" y="0" on="0"/>
        <pt x="485" y="1" on="1"/>
        <pt x="475" y="4" on="0"/>
        <pt x="470" y="12" on="1"/>
        <pt x="468" y="14" on="0"/>
        <pt x="347" y="302" on="1"/>
        <pt x="226" y="592" on="0"/>
        <pt x="226" y="591" on="1"/>
        <pt x="225" y="334" on="1"/>
        <pt x="225" y="332" on="1"/>
        <pt x="225" y="72" on="1"/>
        <pt x="279" y="72" on="1"/>
        <pt x="333" y="72" on="1"/>
        <pt x="333" y="36" on="1"/>
        <pt x="333" y="0" on="1"/>
        <pt x="323" y="0" on="1"/>
        <pt x="324" y="0" on="0"/>
        <pt x="250" y="2" on="1"/>
        <pt x="186" y="3" on="0"/>
        <pt x="122" y="2" on="1"/>
        <pt x="48" y="0" on="0"/>
        <pt x="49" y="0" on="1"/>
        <pt x="39" y="0" on="1"/>
        <pt x="39" y="36" on="1"/>
        <pt x="39" y="72" on="1"/>
        <pt x="93" y="72" on="1"/>
        <pt x="147" y="72" on="1"/>
        <pt x="147" y="343" on="1"/>
        <pt x="147" y="614" on="1"/>
        <pt x="93" y="614" on="1"/>
        <pt x="39" y="614" on="1"/>
      </contour>
    </TTGlyph>
    <TTGlyph name="N" xMin="39" yMin="0" xMax="860" yMax="686">
      <contour>
        <pt x="39" y="650" on="1"/>
        <pt x="39" y="686" on="1"/>
        <pt x="177" y="686" on="1"/>
        <pt x="316" y="686" on="1"/>
        <pt x="320" y="684" on="1"/>
        <pt x="323" y="683" on="0"/>
        <pt x="497" y="469" on="1"/>
        <pt x="674" y="251" on="0"/>
        <pt x="671" y="254" on="1"/>
        <pt x="674" y="251" on="1"/>
        <pt x="674" y="432" on="1"/>
        <pt x="674" y="614" on="1"/>
        <pt x="620" y="614" on="1"/>
        <pt x="566" y="614" on="1"/>
        <pt x="566" y="650" on="1"/>
        <pt x="566" y="686" on="1"/>
        <pt x="576" y="686" on="1"/>
        <pt x="649" y="684" on="1"/>
        <pt x="713" y="683" on="0"/>
        <pt x="777" y="684" on="1"/>
        <pt x="849" y="686" on="0"/>
        <pt x="850" y="686" on="1"/>
        <pt x="860" y="686" on="1"/>
        <pt x="860" y="650" on="1"/>
        <pt x="860" y="614" on="1"/>
        <pt x="806" y="614" on="1"/>
        <pt x="752" y="614" on="1"/>
        <pt x="752" y="314" on="1"/>
        <pt x="752" y="15" on="0"/>
        <pt x="750" y="11" on="1"/>
        <pt x="748" y="5" on="0"/>
        <pt x="742" y="2" on="1"/>
        <pt x="738" y="0" on="0"/>
        <pt x="688" y="0" on="0"/>
        <pt x="684" y="2" on="1"/>
        <pt x="682" y="3" on="0"/>
        <pt x="455" y="281" on="1"/>
        <pt x="226" y="566" on="0"/>
        <pt x="228" y="562" on="1"/>
        <pt x="225" y="565" on="1"/>
        <pt x="225" y="319" on="1"/>
        <pt x="225" y="72" on="1"/>
        <pt x="279" y="72" on="1"/>
        <pt x="333" y="72" on="1"/>
        <pt x="333" y="36" on="1"/>
        <pt x="333" y="0" on="1"/>
        <pt x="323" y="0" on="1"/>
        <pt x="324" y="0" on="0"/>
        <pt x="250" y="2" on="1"/>
        <pt x="186" y="3" on="0"/>
        <pt x="122" y="2" on="1"/>
        <pt x="48" y="0" on="0"/>
        <pt x="49" y="0" on="1"/>
        <pt x="39" y="0" on="1"/>
        <pt x="39" y="36" on="1"/>
        <pt x="39" y="72" on="1"/>
        <pt x="93" y="72" on="1"/>
        <pt x="147" y="72" on="1"/>
        <pt x="147" y="343" on="1"/>
        <pt x="147" y="614" on="1"/>
        <pt x="93" y="614" on="1"/>
        <pt x="39" y="614" on="1"/>
      </contour>
    </TTGlyph>
    <TTGlyph name="O" xMin="62" yMin="-13" xMax="801" yMax="698">
      <contour>
        <pt x="398" y="696" on="1"/>
        <pt x="431" y="698" on="0"/>
        <pt x="481" y="695" on="1"/>
        <pt x="617" y="680" on="0"/>
        <pt x="700" y="598" on="1"/>
        <pt x="781" y="517" on="0"/>
        <pt x="797" y="385" on="1"/>
        <pt x="801" y="345" on="0"/>
        <pt x="797" y="298" on="1"/>
        <pt x="797" y="296" on="0"/>
        <pt x="797" y="294" on="1"/>
        <pt x="782" y="169" on="0"/>
        <pt x="705" y="90" on="1"/>
        <pt x="668" y="54" on="0"/>
        <pt x="621" y="30" on="1"/>
        <pt x="559" y="0" on="0"/>
        <pt x="481" y="-9" on="1"/>
        <pt x="439" y="-13" on="0"/>
        <pt x="387" y="-9" on="1"/>
        <pt x="384" y="-9" on="0"/>
        <pt x="382" y="-9" on="1"/>
        <pt x="240" y="8" on="0"/>
        <pt x="159" y="90" on="1"/>
        <pt x="81" y="168" on="0"/>
        <pt x="66" y="294" on="1"/>
        <pt x="62" y="332" on="0"/>
        <pt x="66" y="380" on="1"/>
        <pt x="66" y="383" on="0"/>
        <pt x="66" y="385" on="1"/>
        <pt x="74" y="445" on="0"/>
        <pt x="91" y="487" on="1"/>
        <pt x="136" y="602" on="0"/>
        <pt x="242" y="654" on="1"/>
        <pt x="310" y="689" on="0"/>
      </contour>
      <contour>
        <pt x="452" y="631" on="1"/>
        <pt x="368" y="640" on="0"/>
        <pt x="309" y="586" on="1"/>
        <pt x="295" y="573" on="0"/>
        <pt x="284" y="557" on="1"/>
        <pt x="257" y="516" on="0"/>
        <pt x="247" y="455" on="1"/>
        <pt x="237" y="382" on="0"/>
        <pt x="244" y="281" on="1"/>
        <pt x="245" y="272" on="0"/>
        <pt x="246" y="264" on="1"/>
        <pt x="257" y="149" on="0"/>
        <pt x="318" y="97" on="1"/>
        <pt x="384" y="42" on="0"/>
        <pt x="468" y="60" on="1"/>
        <pt x="511" y="69" on="0"/>
        <pt x="545" y="97" on="1"/>
        <pt x="606" y="149" on="0"/>
        <pt x="617" y="264" on="1"/>
        <pt x="627" y="348" on="0"/>
        <pt x="618" y="442" on="1"/>
        <pt x="617" y="449" on="0"/>
        <pt x="616" y="455" on="1"/>
        <pt x="609" y="498" on="0"/>
        <pt x="592" y="535" on="1"/>
        <pt x="550" y="620" on="0"/>
      </contour>
    </TTGlyph>
    <TTGlyph name="P" xMin="39" yMin="0" xMax="720" yMax="686">
      <contour>
        <pt x="39" y="650" on="1"/>
        <pt x="39" y="686" on="1"/>
        <pt x="253" y="686" on="1"/>
        <pt x="473" y="686" on="0"/>
        <pt x="482" y="685" on="1"/>
        <pt x="606" y="676" on="0"/>
        <pt x="669" y="610" on="1"/>
        <pt x="708" y="568" on="0"/>
        <pt x="718" y="511" on="1"/>
        <pt x="720" y="502" on="0"/>
        <pt x="720" y="480" on="1"/>
        <pt x="720" y="452" on="0"/>
        <pt x="715" y="434" on="1"/>
        <pt x="703" y="380" on="0"/>
        <pt x="659" y="341" on="1"/>
        <pt x="603" y="293" on="0"/>
        <pt x="517" y="281" on="1"/>
        <pt x="490" y="277" on="0"/>
        <pt x="395" y="277" on="1"/>
        <pt x="314" y="277" on="1"/>
        <pt x="314" y="175" on="1"/>
        <pt x="314" y="72" on="1"/>
        <pt x="368" y="72" on="1"/>
        <pt x="422" y="72" on="1"/>
        <pt x="422" y="36" on="1"/>
        <pt x="422" y="0" on="1"/>
        <pt x="409" y="0" on="1"/>
        <pt x="410" y="0" on="0"/>
        <pt x="313" y="2" on="1"/>
        <pt x="230" y="3" on="0"/>
        <pt x="147" y="2" on="1"/>
        <pt x="52" y="0" on="1"/>
        <pt x="39" y="0" on="1"/>
        <pt x="39" y="36" on="1"/>
        <pt x="39" y="72" on="1"/>
        <pt x="93" y="72" on="1"/>
        <pt x="147" y="72" on="1"/>
        <pt x="147" y="343" on="1"/>
        <pt x="147" y="614" on="1"/>
        <pt x="93" y="614" on="1"/>
        <pt x="39" y="614" on="1"/>
      </contour>
      <contour>
        <pt x="458" y="612" on="1"/>
        <pt x="452" y="613" on="0"/>
        <pt x="378" y="614" on="1"/>
        <pt x="308" y="614" on="1"/>
        <pt x="308" y="479" on="1"/>
        <pt x="308" y="343" on="1"/>
        <pt x="368" y="343" on="1"/>
        <pt x="456" y="343" on="0"/>
        <pt x="482" y="351" on="1"/>
        <pt x="516" y="361" on="0"/>
        <pt x="529" y="382" on="1"/>
        <pt x="544" y="408" on="0"/>
        <pt x="543" y="490" on="1"/>
        <pt x="542" y="537" on="0"/>
        <pt x="537" y="556" on="1"/>
        <pt x="533" y="573" on="0"/>
        <pt x="523" y="583" on="1"/>
        <pt x="505" y="604" on="0"/>
      </contour>
    </TTGlyph>
    <TTGlyph name="Q" xMin="62" yMin="-193" xMax="805" yMax="698">
      <contour>
        <pt x="398" y="696" on="1"/>
        <pt x="431" y="698" on="0"/>
        <pt x="481" y="695" on="1"/>
        <pt x="617" y="680" on="0"/>
        <pt x="700" y="598" on="1"/>
        <pt x="781" y="517" on="0"/>
        <pt x="797" y="385" on="1"/>
        <pt x="801" y="345" on="0"/>
        <pt x="797" y="298" on="1"/>
        <pt x="797" y="296" on="0"/>
        <pt x="797" y="294" on="1"/>
        <pt x="782" y="169" on="0"/>
        <pt x="705" y="90" on="1"/>
        <pt x="667" y="54" on="0"/>
        <pt x="622" y="31" on="1"/>
        <pt x="607" y="24" on="0"/>
        <pt x="607" y="23" on="1"/>
        <pt x="603" y="23" on="0"/>
        <pt x="621" y="9" on="1"/>
        <pt x="646" y="-13" on="0"/>
        <pt x="674" y="-16" on="1"/>
        <pt x="706" y="-19" on="0"/>
        <pt x="743" y="-14" on="1"/>
        <pt x="769" y="-9" on="0"/>
        <pt x="769" y="0" on="1"/>
        <pt x="769" y="4" on="0"/>
        <pt x="771" y="8" on="1"/>
        <pt x="779" y="24" on="0"/>
        <pt x="795" y="16" on="1"/>
        <pt x="800" y="13" on="0"/>
        <pt x="803" y="8" on="1"/>
        <pt x="805" y="4" on="0"/>
        <pt x="805" y="-13" on="1"/>
        <pt x="801" y="-110" on="0"/>
        <pt x="749" y="-161" on="1"/>
        <pt x="743" y="-166" on="0"/>
        <pt x="737" y="-171" on="1"/>
        <pt x="720" y="-183" on="0"/>
        <pt x="697" y="-191" on="1"/>
        <pt x="687" y="-193" on="0"/>
        <pt x="649" y="-193" on="0"/>
        <pt x="640" y="-191" on="1"/>
        <pt x="625" y="-186" on="0"/>
        <pt x="619" y="-183" on="1"/>
        <pt x="584" y="-165" on="0"/>
        <pt x="563" y="-121" on="1"/>
        <pt x="550" y="-96" on="0"/>
        <pt x="531" y="-26" on="1"/>
        <pt x="525" y="-2" on="0"/>
        <pt x="525" y="-3" on="1"/>
        <pt x="511" y="-5" on="1"/>
        <pt x="476" y="-10" on="0"/>
        <pt x="431" y="-10" on="1"/>
        <pt x="393" y="-10" on="0"/>
        <pt x="382" y="-9" on="1"/>
        <pt x="240" y="8" on="0"/>
        <pt x="159" y="90" on="1"/>
        <pt x="81" y="168" on="0"/>
        <pt x="66" y="294" on="1"/>
        <pt x="62" y="332" on="0"/>
        <pt x="66" y="380" on="1"/>
        <pt x="66" y="383" on="0"/>
        <pt x="66" y="385" on="1"/>
        <pt x="74" y="445" on="0"/>
        <pt x="91" y="487" on="1"/>
        <pt x="136" y="602" on="0"/>
        <pt x="242" y="654" on="1"/>
        <pt x="310" y="689" on="0"/>
      </contour>
      <contour>
        <pt x="451" y="631" on="1"/>
        <pt x="368" y="639" on="0"/>
        <pt x="310" y="587" on="1"/>
        <pt x="251" y="535" on="0"/>
        <pt x="240" y="425" on="1"/>
        <pt x="230" y="338" on="0"/>
        <pt x="241" y="250" on="1"/>
        <pt x="241" y="244" on="0"/>
        <pt x="242" y="239" on="1"/>
        <pt x="255" y="142" on="0"/>
        <pt x="314" y="94" on="1"/>
        <pt x="319" y="89" on="0"/>
        <pt x="321" y="89" on="1"/>
        <pt x="321" y="91" on="0"/>
        <pt x="322" y="94" on="1"/>
        <pt x="325" y="105" on="1"/>
        <pt x="341" y="150" on="0"/>
        <pt x="397" y="164" on="1"/>
        <pt x="410" y="167" on="0"/>
        <pt x="425" y="168" on="1"/>
        <pt x="465" y="169" on="0"/>
        <pt x="500" y="146" on="1"/>
        <pt x="520" y="134" on="0"/>
        <pt x="545" y="103" on="1"/>
        <pt x="551" y="95" on="1"/>
        <pt x="559" y="103" on="1"/>
        <pt x="603" y="144" on="0"/>
        <pt x="618" y="219" on="1"/>
        <pt x="626" y="255" on="0"/>
        <pt x="627" y="323" on="1"/>
        <pt x="628" y="462" on="0"/>
        <pt x="596" y="530" on="1"/>
        <pt x="583" y="557" on="0"/>
        <pt x="568" y="573" on="1"/>
        <pt x="522" y="623" on="0"/>
      </contour>
      <contour>
        <pt x="453" y="104" on="1"/>
        <pt x="436" y="108" on="0"/>
        <pt x="418" y="106" on="1"/>
        <pt x="383" y="100" on="0"/>
        <pt x="382" y="78" on="1"/>
        <pt x="384" y="64" on="0"/>
        <pt x="403" y="57" on="1"/>
        <pt x="408" y="55" on="0"/>
        <pt x="431" y="55" on="1"/>
        <pt x="455" y="55" on="0"/>
        <pt x="465" y="57" on="1"/>
        <pt x="489" y="61" on="0"/>
        <pt x="496" y="65" on="1"/>
        <pt x="499" y="66" on="1"/>
        <pt x="497" y="69" on="1"/>
        <pt x="494" y="75" on="0"/>
        <pt x="489" y="80" on="1"/>
        <pt x="474" y="99" on="0"/>
      </contour>
    </TTGlyph>
    <TTGlyph name="R" xMin="39" yMin="-15" xMax="861" yMax="686">
      <contour>
        <pt x="39" y="650" on="1"/>
        <pt x="39" y="686" on="1"/>
        <pt x="246" y="686" on="1"/>
        <pt x="456" y="685" on="0"/>
        <pt x="491" y="681" on="1"/>
        <pt x="593" y="667" on="0"/>
        <pt x="655" y="618" on="1"/>
        <pt x="702" y="578" on="0"/>
        <pt x="715" y="520" on="1"/>
        <pt x="719" y="498" on="0"/>
        <pt x="715" y="469" on="1"/>
        <pt x="707" y="438" on="0"/>
        <pt x="690" y="414" on="1"/>
        <pt x="668" y="383" on="0"/>
        <pt x="634" y="363" on="1"/>
        <pt x="616" y="353" on="0"/>
        <pt x="586" y="340" on="1"/>
        <pt x="576" y="336" on="1"/>
        <pt x="584" y="332" on="1"/>
        <pt x="618" y="310" on="0"/>
        <pt x="635" y="285" on="1"/>
        <pt x="649" y="267" on="0"/>
        <pt x="654" y="250" on="1"/>
        <pt x="661" y="235" on="0"/>
        <pt x="668" y="175" on="1"/>
        <pt x="676" y="114" on="0"/>
        <pt x="680" y="103" on="1"/>
        <pt x="696" y="51" on="0"/>
        <pt x="746" y="51" on="1"/>
        <pt x="757" y="51" on="0"/>
        <pt x="762" y="53" on="1"/>
        <pt x="782" y="70" on="0"/>
        <pt x="786" y="98" on="1"/>
        <pt x="786" y="109" on="0"/>
        <pt x="796" y="116" on="1"/>
        <pt x="803" y="119" on="0"/>
        <pt x="840" y="117" on="1"/>
        <pt x="847" y="117" on="0"/>
        <pt x="848" y="116" on="1"/>
        <pt x="855" y="112" on="0"/>
        <pt x="857" y="104" on="1"/>
        <pt x="861" y="95" on="0"/>
        <pt x="855" y="73" on="1"/>
        <pt x="839" y="14" on="0"/>
        <pt x="784" y="-5" on="1"/>
        <pt x="774" y="-8" on="0"/>
        <pt x="764" y="-10" on="1"/>
        <pt x="733" y="-15" on="0"/>
        <pt x="659" y="-8" on="1"/>
        <pt x="522" y="6" on="0"/>
        <pt x="500" y="92" on="1"/>
        <pt x="498" y="98" on="0"/>
        <pt x="496" y="112" on="0"/>
        <pt x="496" y="168" on="1"/>
        <pt x="496" y="229" on="0"/>
        <pt x="491" y="246" on="1"/>
        <pt x="477" y="290" on="0"/>
        <pt x="439" y="307" on="1"/>
        <pt x="425" y="313" on="0"/>
        <pt x="372" y="313" on="1"/>
        <pt x="361" y="313" on="1"/>
        <pt x="308" y="313" on="1"/>
        <pt x="308" y="193" on="1"/>
        <pt x="308" y="72" on="1"/>
        <pt x="362" y="72" on="1"/>
        <pt x="416" y="72" on="1"/>
        <pt x="416" y="36" on="1"/>
        <pt x="416" y="0" on="1"/>
        <pt x="403" y="0" on="1"/>
        <pt x="404" y="0" on="0"/>
        <pt x="309" y="2" on="1"/>
        <pt x="228" y="3" on="0"/>
        <pt x="146" y="2" on="1"/>
        <pt x="51" y="0" on="0"/>
        <pt x="52" y="0" on="1"/>
        <pt x="39" y="0" on="1"/>
        <pt x="39" y="36" on="1"/>
        <pt x="39" y="72" on="1"/>
        <pt x="93" y="72" on="1"/>
        <pt x="147" y="72" on="1"/>
        <pt x="147" y="343" on="1"/>
        <pt x="147" y="614" on="1"/>
        <pt x="93" y="614" on="1"/>
        <pt x="39" y="614" on="1"/>
      </contour>
      <contour>
        <pt x="432" y="613" on="1"/>
        <pt x="424" y="614" on="0"/>
        <pt x="362" y="614" on="1"/>
        <pt x="308" y="614" on="1"/>
        <pt x="308" y="494" on="1"/>
        <pt x="308" y="374" on="1"/>
        <pt x="372" y="374" on="1"/>
        <pt x="444" y="375" on="0"/>
        <pt x="466" y="380" on="1"/>
        <pt x="490" y="385" on="0"/>
        <pt x="512" y="399" on="1"/>
        <pt x="531" y="414" on="0"/>
        <pt x="537" y="446" on="1"/>
        <pt x="542" y="480" on="0"/>
        <pt x="538" y="528" on="1"/>
        <pt x="535" y="574" on="0"/>
        <pt x="509" y="592" on="1"/>
        <pt x="504" y="595" on="0"/>
        <pt x="498" y="598" on="1"/>
        <pt x="470" y="610" on="0"/>
      </contour>
    </TTGlyph>
    <TTGlyph name="S" xMin="62" yMin="-13" xMax="576" yMax="700">
      <contour>
        <pt x="259" y="696" on="1"/>
        <pt x="301" y="700" on="0"/>
        <pt x="340" y="693" on="1"/>
        <pt x="395" y="685" on="0"/>
        <pt x="444" y="653" on="1"/>
        <pt x="450" y="648" on="0"/>
        <pt x="453" y="649" on="1"/>
        <pt x="458" y="654" on="0"/>
        <pt x="479" y="672" on="1"/>
        <pt x="505" y="694" on="0"/>
        <pt x="506" y="695" on="1"/>
        <pt x="509" y="697" on="0"/>
        <pt x="520" y="697" on="1"/>
        <pt x="532" y="697" on="0"/>
        <pt x="535" y="695" on="1"/>
        <pt x="540" y="692" on="0"/>
        <pt x="541" y="681" on="1"/>
        <pt x="542" y="667" on="0"/>
        <pt x="542" y="577" on="1"/>
        <pt x="542" y="465" on="0"/>
        <pt x="535" y="460" on="1"/>
        <pt x="531" y="458" on="0"/>
        <pt x="481" y="458" on="0"/>
        <pt x="477" y="460" on="1"/>
        <pt x="471" y="463" on="0"/>
        <pt x="469" y="481" on="1"/>
        <pt x="463" y="513" on="0"/>
        <pt x="450" y="540" on="1"/>
        <pt x="438" y="565" on="0"/>
        <pt x="417" y="584" on="1"/>
        <pt x="374" y="626" on="0"/>
        <pt x="297" y="629" on="1"/>
        <pt x="215" y="632" on="0"/>
        <pt x="193" y="575" on="1"/>
        <pt x="188" y="561" on="0"/>
        <pt x="188" y="543" on="1"/>
        <pt x="188" y="523" on="0"/>
        <pt x="195" y="508" on="1"/>
        <pt x="210" y="477" on="0"/>
        <pt x="249" y="462" on="1"/>
        <pt x="256" y="458" on="0"/>
        <pt x="326" y="444" on="1"/>
        <pt x="398" y="429" on="0"/>
        <pt x="406" y="426" on="1"/>
        <pt x="450" y="415" on="0"/>
        <pt x="485" y="389" on="1"/>
        <pt x="557" y="336" on="0"/>
        <pt x="572" y="244" on="1"/>
        <pt x="576" y="216" on="0"/>
        <pt x="572" y="174" on="1"/>
        <pt x="566" y="136" on="0"/>
        <pt x="549" y="101" on="1"/>
        <pt x="529" y="60" on="0"/>
        <pt x="496" y="35" on="1"/>
        <pt x="450" y="0" on="0"/>
        <pt x="385" y="-9" on="1"/>
        <pt x="360" y="-13" on="0"/>
        <pt x="308" y="-10" on="1"/>
        <pt x="303" y="-9" on="0"/>
        <pt x="300" y="-9" on="1"/>
        <pt x="214" y="0" on="0"/>
        <pt x="162" y="34" on="1"/>
        <pt x="156" y="38" on="0"/>
        <pt x="153" y="37" on="1"/>
        <pt x="148" y="32" on="0"/>
        <pt x="127" y="14" on="1"/>
        <pt x="101" y="-8" on="0"/>
        <pt x="100" y="-9" on="1"/>
        <pt x="97" y="-11" on="0"/>
        <pt x="86" y="-11" on="1"/>
        <pt x="74" y="-11" on="0"/>
        <pt x="71" y="-9" on="1"/>
        <pt x="66" y="-6" on="0"/>
        <pt x="65" y="5" on="1"/>
        <pt x="64" y="19" on="0"/>
        <pt x="64" y="108" on="1"/>
        <pt x="64" y="217" on="0"/>
        <pt x="66" y="220" on="1"/>
        <pt x="67" y="222" on="0"/>
        <pt x="70" y="225" on="1"/>
        <pt x="75" y="228" on="0"/>
        <pt x="99" y="228" on="1"/>
        <pt x="125" y="228" on="0"/>
        <pt x="129" y="226" on="1"/>
        <pt x="136" y="222" on="0"/>
        <pt x="136" y="205" on="1"/>
        <pt x="139" y="151" on="0"/>
        <pt x="174" y="116" on="1"/>
        <pt x="200" y="90" on="0"/>
        <pt x="246" y="75" on="1"/>
        <pt x="305" y="56" on="0"/>
        <pt x="364" y="62" on="1"/>
        <pt x="372" y="63" on="0"/>
        <pt x="378" y="64" on="1"/>
        <pt x="406" y="70" on="0"/>
        <pt x="424" y="88" on="1"/>
        <pt x="444" y="108" on="0"/>
        <pt x="450" y="142" on="1"/>
        <pt x="458" y="193" on="0"/>
        <pt x="422" y="229" on="1"/>
        <pt x="407" y="246" on="0"/>
        <pt x="383" y="253" on="1"/>
        <pt x="379" y="255" on="0"/>
        <pt x="303" y="272" on="1"/>
        <pt x="231" y="286" on="0"/>
        <pt x="221" y="290" on="1"/>
        <pt x="147" y="311" on="0"/>
        <pt x="105" y="369" on="1"/>
        <pt x="62" y="426" on="0"/>
        <pt x="64" y="497" on="1"/>
        <pt x="67" y="568" on="0"/>
        <pt x="106" y="619" on="1"/>
        <pt x="143" y="669" on="0"/>
        <pt x="214" y="688" on="1"/>
        <pt x="238" y="694" on="0"/>
      </contour>
    </TTGlyph>
    <TTGlyph name="T" xMin="41" yMin="0" xMax="758" yMax="675">
      <contour>
        <pt x="62" y="669" on="1"/>
        <pt x="62" y="675" on="1"/>
        <pt x="399" y="675" on="1"/>
        <pt x="737" y="675" on="1"/>
        <pt x="737" y="669" on="1"/>
        <pt x="748" y="542" on="1"/>
        <pt x="757" y="417" on="0"/>
        <pt x="758" y="415" on="1"/>
        <pt x="758" y="409" on="1"/>
        <pt x="722" y="409" on="1"/>
        <pt x="686" y="409" on="0"/>
        <pt x="686" y="410" on="1"/>
        <pt x="686" y="430" on="0"/>
        <pt x="681" y="462" on="1"/>
        <pt x="675" y="507" on="0"/>
        <pt x="664" y="536" on="1"/>
        <pt x="649" y="571" on="0"/>
        <pt x="613" y="588" on="1"/>
        <pt x="598" y="596" on="0"/>
        <pt x="573" y="600" on="1"/>
        <pt x="564" y="602" on="0"/>
        <pt x="522" y="603" on="1"/>
        <pt x="483" y="603" on="1"/>
        <pt x="483" y="338" on="1"/>
        <pt x="483" y="72" on="1"/>
        <pt x="560" y="72" on="1"/>
        <pt x="636" y="72" on="1"/>
        <pt x="636" y="36" on="1"/>
        <pt x="636" y="0" on="1"/>
        <pt x="620" y="0" on="1"/>
        <pt x="502" y="2" on="1"/>
        <pt x="399" y="3" on="0"/>
        <pt x="297" y="2" on="1"/>
        <pt x="179" y="0" on="1"/>
        <pt x="163" y="0" on="1"/>
        <pt x="163" y="36" on="1"/>
        <pt x="163" y="72" on="1"/>
        <pt x="240" y="72" on="1"/>
        <pt x="316" y="72" on="1"/>
        <pt x="316" y="338" on="1"/>
        <pt x="316" y="603" on="1"/>
        <pt x="277" y="603" on="1"/>
        <pt x="235" y="602" on="0"/>
        <pt x="226" y="600" on="1"/>
        <pt x="179" y="591" on="0"/>
        <pt x="154" y="565" on="1"/>
        <pt x="138" y="549" on="0"/>
        <pt x="128" y="517" on="1"/>
        <pt x="120" y="488" on="0"/>
        <pt x="115" y="428" on="1"/>
        <pt x="113" y="411" on="0"/>
        <pt x="113" y="409" on="0"/>
        <pt x="77" y="409" on="1"/>
        <pt x="41" y="409" on="1"/>
        <pt x="41" y="415" on="1"/>
        <pt x="52" y="542" on="1"/>
        <pt x="61" y="667" on="0"/>
      </contour>
    </TTGlyph>
    <TTGlyph name="U" xMin="39" yMin="-13" xMax="845" yMax="686">
      <contour>
        <pt x="39" y="650" on="1"/>
        <pt x="39" y="686" on="1"/>
        <pt x="52" y="686" on="1"/>
        <pt x="51" y="686" on="0"/>
        <pt x="148" y="684" on="1"/>
        <pt x="231" y="683" on="0"/>
        <pt x="314" y="684" on="1"/>
        <pt x="409" y="686" on="1"/>
        <pt x="422" y="686" on="1"/>
        <pt x="422" y="650" on="1"/>
        <pt x="422" y="614" on="1"/>
        <pt x="368" y="614" on="1"/>
        <pt x="314" y="614" on="1"/>
        <pt x="314" y="398" on="1"/>
        <pt x="315" y="174" on="0"/>
        <pt x="318" y="160" on="1"/>
        <pt x="318" y="158" on="0"/>
        <pt x="320" y="152" on="1"/>
        <pt x="328" y="114" on="0"/>
        <pt x="353" y="93" on="1"/>
        <pt x="394" y="60" on="0"/>
        <pt x="476" y="61" on="1"/>
        <pt x="571" y="64" on="0"/>
        <pt x="617" y="110" on="1"/>
        <pt x="646" y="140" on="0"/>
        <pt x="657" y="195" on="1"/>
        <pt x="658" y="204" on="0"/>
        <pt x="659" y="410" on="1"/>
        <pt x="659" y="614" on="1"/>
        <pt x="605" y="614" on="1"/>
        <pt x="551" y="614" on="1"/>
        <pt x="551" y="650" on="1"/>
        <pt x="551" y="686" on="1"/>
        <pt x="561" y="686" on="1"/>
        <pt x="634" y="684" on="1"/>
        <pt x="698" y="683" on="0"/>
        <pt x="762" y="684" on="1"/>
        <pt x="836" y="686" on="0"/>
        <pt x="835" y="686" on="1"/>
        <pt x="845" y="686" on="1"/>
        <pt x="845" y="650" on="1"/>
        <pt x="845" y="614" on="1"/>
        <pt x="791" y="614" on="1"/>
        <pt x="737" y="614" on="1"/>
        <pt x="737" y="415" on="1"/>
        <pt x="737" y="212" on="0"/>
        <pt x="736" y="204" on="1"/>
        <pt x="730" y="135" on="0"/>
        <pt x="689" y="83" on="1"/>
        <pt x="644" y="25" on="0"/>
        <pt x="565" y="3" on="1"/>
        <pt x="521" y="-10" on="0"/>
        <pt x="474" y="-11" on="1"/>
        <pt x="376" y="-13" on="0"/>
        <pt x="304" y="16" on="1"/>
        <pt x="280" y="25" on="0"/>
        <pt x="254" y="41" on="1"/>
        <pt x="218" y="63" on="0"/>
        <pt x="193" y="95" on="1"/>
        <pt x="154" y="146" on="0"/>
        <pt x="148" y="207" on="1"/>
        <pt x="147" y="214" on="0"/>
        <pt x="147" y="416" on="1"/>
        <pt x="147" y="614" on="1"/>
        <pt x="93" y="614" on="1"/>
        <pt x="39" y="614" on="1"/>
      </contour>
    </TTGlyph>
    <TTGlyph name="V" xMin="25" yMin="-10" xMax="843" yMax="686">
      <contour>
        <pt x="25" y="650" on="1"/>
        <pt x="25" y="686" on="1"/>
        <pt x="36" y="686" on="1"/>
        <pt x="120" y="684" on="1"/>
        <pt x="193" y="683" on="0"/>
        <pt x="277" y="684" on="1"/>
        <pt x="374" y="686" on="1"/>
        <pt x="387" y="686" on="1"/>
        <pt x="387" y="650" on="1"/>
        <pt x="387" y="614" on="1"/>
        <pt x="345" y="614" on="1"/>
        <pt x="303" y="614" on="1"/>
        <pt x="391" y="407" on="1"/>
        <pt x="479" y="198" on="0"/>
        <pt x="479" y="199" on="1"/>
        <pt x="655" y="612" on="1"/>
        <pt x="655" y="614" on="0"/>
        <pt x="614" y="614" on="1"/>
        <pt x="572" y="614" on="1"/>
        <pt x="572" y="650" on="1"/>
        <pt x="572" y="686" on="1"/>
        <pt x="582" y="686" on="1"/>
        <pt x="656" y="684" on="1"/>
        <pt x="720" y="683" on="0"/>
        <pt x="773" y="684" on="1"/>
        <pt x="834" y="686" on="0"/>
        <pt x="835" y="686" on="1"/>
        <pt x="843" y="686" on="1"/>
        <pt x="843" y="650" on="1"/>
        <pt x="843" y="614" on="1"/>
        <pt x="792" y="614" on="1"/>
        <pt x="740" y="614" on="1"/>
        <pt x="612" y="311" on="1"/>
        <pt x="482" y="7" on="0"/>
        <pt x="481" y="5" on="1"/>
        <pt x="476" y="-3" on="0"/>
        <pt x="465" y="-7" on="1"/>
        <pt x="455" y="-10" on="0"/>
        <pt x="412" y="-8" on="1"/>
        <pt x="405" y="-8" on="0"/>
        <pt x="403" y="-7" on="1"/>
        <pt x="392" y="-3" on="0"/>
        <pt x="387" y="5" on="1"/>
        <pt x="386" y="7" on="0"/>
        <pt x="256" y="311" on="1"/>
        <pt x="128" y="614" on="1"/>
        <pt x="76" y="614" on="1"/>
        <pt x="25" y="614" on="1"/>
      </contour>
    </TTGlyph>
    <TTGlyph name="W" xMin="24" yMin="-8" xMax="1164" yMax="686">
      <contour>
        <pt x="24" y="650" on="1"/>
        <pt x="24" y="686" on="1"/>
        <pt x="35" y="686" on="1"/>
        <pt x="115" y="684" on="1"/>
        <pt x="185" y="683" on="0"/>
        <pt x="269" y="684" on="1"/>
        <pt x="366" y="686" on="0"/>
        <pt x="365" y="686" on="1"/>
        <pt x="378" y="686" on="1"/>
        <pt x="378" y="650" on="1"/>
        <pt x="378" y="614" on="1"/>
        <pt x="335" y="614" on="1"/>
        <pt x="292" y="614" on="0"/>
        <pt x="292" y="612" on="1"/>
        <pt x="365" y="418" on="1"/>
        <pt x="439" y="220" on="0"/>
        <pt x="439" y="223" on="1"/>
        <pt x="439" y="217" on="0"/>
        <pt x="497" y="374" on="1"/>
        <pt x="555" y="528" on="0"/>
        <pt x="555" y="529" on="1"/>
        <pt x="539" y="572" on="1"/>
        <pt x="524" y="614" on="1"/>
        <pt x="476" y="614" on="1"/>
        <pt x="428" y="614" on="1"/>
        <pt x="428" y="650" on="1"/>
        <pt x="428" y="686" on="1"/>
        <pt x="439" y="686" on="1"/>
        <pt x="519" y="684" on="1"/>
        <pt x="589" y="683" on="0"/>
        <pt x="672" y="684" on="1"/>
        <pt x="771" y="686" on="0"/>
        <pt x="770" y="686" on="1"/>
        <pt x="783" y="686" on="1"/>
        <pt x="783" y="650" on="1"/>
        <pt x="783" y="614" on="1"/>
        <pt x="739" y="614" on="1"/>
        <pt x="696" y="614" on="0"/>
        <pt x="696" y="613" on="1"/>
        <pt x="770" y="417" on="1"/>
        <pt x="844" y="222" on="1"/>
        <pt x="992" y="613" on="1"/>
        <pt x="992" y="614" on="0"/>
        <pt x="944" y="614" on="1"/>
        <pt x="895" y="614" on="1"/>
        <pt x="895" y="650" on="1"/>
        <pt x="895" y="686" on="1"/>
        <pt x="905" y="686" on="1"/>
        <pt x="904" y="686" on="0"/>
        <pt x="984" y="684" on="1"/>
        <pt x="1052" y="683" on="0"/>
        <pt x="1100" y="684" on="1"/>
        <pt x="1155" y="686" on="0"/>
        <pt x="1156" y="686" on="1"/>
        <pt x="1164" y="686" on="1"/>
        <pt x="1164" y="650" on="1"/>
        <pt x="1164" y="614" on="1"/>
        <pt x="1117" y="614" on="1"/>
        <pt x="1069" y="614" on="1"/>
        <pt x="1066" y="606" on="1"/>
        <pt x="1065" y="601" on="0"/>
        <pt x="953" y="306" on="1"/>
        <pt x="839" y="5" on="0"/>
        <pt x="841" y="9" on="1"/>
        <pt x="835" y="-3" on="0"/>
        <pt x="825" y="-6" on="1"/>
        <pt x="820" y="-8" on="0"/>
        <pt x="797" y="-8" on="1"/>
        <pt x="767" y="-8" on="0"/>
        <pt x="759" y="-1" on="1"/>
        <pt x="754" y="4" on="0"/>
        <pt x="753" y="7" on="1"/>
        <pt x="752" y="8" on="0"/>
        <pt x="672" y="218" on="1"/>
        <pt x="594" y="425" on="1"/>
        <pt x="516" y="218" on="1"/>
        <pt x="436" y="8" on="0"/>
        <pt x="435" y="7" on="1"/>
        <pt x="434" y="4" on="0"/>
        <pt x="429" y="-1" on="1"/>
        <pt x="421" y="-8" on="0"/>
        <pt x="391" y="-8" on="1"/>
        <pt x="368" y="-8" on="0"/>
        <pt x="363" y="-6" on="1"/>
        <pt x="353" y="-3" on="0"/>
        <pt x="347" y="9" on="1"/>
        <pt x="349" y="5" on="0"/>
        <pt x="235" y="306" on="1"/>
        <pt x="123" y="601" on="0"/>
        <pt x="122" y="606" on="1"/>
        <pt x="119" y="614" on="1"/>
        <pt x="71" y="614" on="1"/>
        <pt x="24" y="614" on="1"/>
      </contour>
    </TTGlyph>
    <TTGlyph name="X" xMin="33" yMin="0" xMax="836" yMax="686">
      <contour>
        <pt x="48" y="650" on="1"/>
        <pt x="48" y="686" on="1"/>
        <pt x="59" y="686" on="1"/>
        <pt x="58" y="686" on="0"/>
        <pt x="146" y="684" on="1"/>
        <pt x="221" y="683" on="0"/>
        <pt x="307" y="684" on="1"/>
        <pt x="406" y="686" on="1"/>
        <pt x="419" y="686" on="1"/>
        <pt x="419" y="650" on="1"/>
        <pt x="419" y="614" on="1"/>
        <pt x="386" y="614" on="1"/>
        <pt x="352" y="614" on="0"/>
        <pt x="352" y="613" on="1"/>
        <pt x="451" y="469" on="1"/>
        <pt x="452" y="469" on="0"/>
        <pt x="504" y="541" on="1"/>
        <pt x="556" y="614" on="1"/>
        <pt x="513" y="614" on="1"/>
        <pt x="471" y="614" on="1"/>
        <pt x="471" y="650" on="1"/>
        <pt x="471" y="686" on="1"/>
        <pt x="482" y="686" on="1"/>
        <pt x="568" y="684" on="1"/>
        <pt x="642" y="683" on="0"/>
        <pt x="705" y="684" on="1"/>
        <pt x="777" y="686" on="1"/>
        <pt x="787" y="686" on="1"/>
        <pt x="787" y="650" on="1"/>
        <pt x="787" y="614" on="1"/>
        <pt x="719" y="614" on="1"/>
        <pt x="652" y="614" on="1"/>
        <pt x="575" y="506" on="1"/>
        <pt x="498" y="399" on="1"/>
        <pt x="610" y="236" on="1"/>
        <pt x="722" y="72" on="1"/>
        <pt x="779" y="72" on="1"/>
        <pt x="836" y="72" on="1"/>
        <pt x="836" y="36" on="1"/>
        <pt x="836" y="0" on="1"/>
        <pt x="825" y="0" on="1"/>
        <pt x="826" y="0" on="0"/>
        <pt x="738" y="2" on="1"/>
        <pt x="663" y="3" on="0"/>
        <pt x="577" y="2" on="1"/>
        <pt x="478" y="0" on="1"/>
        <pt x="465" y="0" on="1"/>
        <pt x="465" y="36" on="1"/>
        <pt x="465" y="72" on="1"/>
        <pt x="499" y="72" on="1"/>
        <pt x="532" y="72" on="0"/>
        <pt x="532" y="73" on="1"/>
        <pt x="401" y="263" on="1"/>
        <pt x="332" y="168" on="1"/>
        <pt x="264" y="73" on="1"/>
        <pt x="307" y="72" on="1"/>
        <pt x="349" y="72" on="1"/>
        <pt x="349" y="36" on="1"/>
        <pt x="349" y="0" on="1"/>
        <pt x="338" y="0" on="1"/>
        <pt x="252" y="2" on="1"/>
        <pt x="178" y="3" on="0"/>
        <pt x="115" y="2" on="1"/>
        <pt x="43" y="0" on="1"/>
        <pt x="33" y="0" on="1"/>
        <pt x="33" y="36" on="1"/>
        <pt x="33" y="72" on="1"/>
        <pt x="101" y="72" on="1"/>
        <pt x="169" y="72" on="1"/>
        <pt x="262" y="202" on="1"/>
        <pt x="354" y="332" on="0"/>
        <pt x="355" y="333" on="1"/>
        <pt x="259" y="473" on="1"/>
        <pt x="163" y="614" on="1"/>
        <pt x="105" y="614" on="1"/>
        <pt x="48" y="614" on="1"/>
      </contour>
    </TTGlyph>
    <TTGlyph name="Y" xMin="18" yMin="0" xMax="850" yMax="686">
      <contour>
        <pt x="18" y="650" on="1"/>
        <pt x="18" y="686" on="1"/>
        <pt x="30" y="686" on="1"/>
        <pt x="117" y="684" on="1"/>
        <pt x="193" y="683" on="0"/>
        <pt x="280" y="684" on="1"/>
        <pt x="380" y="686" on="1"/>
        <pt x="394" y="686" on="1"/>
        <pt x="394" y="650" on="1"/>
        <pt x="394" y="614" on="1"/>
        <pt x="359" y="614" on="1"/>
        <pt x="324" y="614" on="1"/>
        <pt x="404" y="492" on="1"/>
        <pt x="483" y="369" on="0"/>
        <pt x="483" y="370" on="1"/>
        <pt x="485" y="370" on="0"/>
        <pt x="563" y="492" on="1"/>
        <pt x="643" y="614" on="1"/>
        <pt x="609" y="614" on="1"/>
        <pt x="574" y="614" on="1"/>
        <pt x="574" y="650" on="1"/>
        <pt x="574" y="686" on="1"/>
        <pt x="584" y="686" on="1"/>
        <pt x="660" y="684" on="1"/>
        <pt x="725" y="683" on="0"/>
        <pt x="779" y="684" on="1"/>
        <pt x="842" y="686" on="1"/>
        <pt x="850" y="686" on="1"/>
        <pt x="850" y="650" on="1"/>
        <pt x="850" y="614" on="1"/>
        <pt x="793" y="614" on="1"/>
        <pt x="737" y="614" on="1"/>
        <pt x="625" y="444" on="1"/>
        <pt x="514" y="274" on="1"/>
        <pt x="514" y="173" on="1"/>
        <pt x="514" y="72" on="1"/>
        <pt x="569" y="72" on="1"/>
        <pt x="623" y="72" on="1"/>
        <pt x="623" y="36" on="1"/>
        <pt x="623" y="0" on="1"/>
        <pt x="610" y="0" on="1"/>
        <pt x="515" y="2" on="1"/>
        <pt x="433" y="3" on="0"/>
        <pt x="352" y="2" on="1"/>
        <pt x="257" y="0" on="0"/>
        <pt x="258" y="0" on="1"/>
        <pt x="245" y="0" on="1"/>
        <pt x="245" y="36" on="1"/>
        <pt x="245" y="72" on="1"/>
        <pt x="299" y="72" on="1"/>
        <pt x="353" y="72" on="1"/>
        <pt x="353" y="173" on="1"/>
        <pt x="353" y="275" on="1"/>
        <pt x="242" y="444" on="1"/>
        <pt x="132" y="614" on="1"/>
        <pt x="75" y="614" on="1"/>
        <pt x="18" y="614" on="1"/>
      </contour>
    </TTGlyph>
    <TTGlyph name="Z" xMin="64" yMin="0" xMax="645" yMax="686">
      <contour>
        <pt x="92" y="675" on="1"/>
        <pt x="92" y="686" on="1"/>
        <pt x="358" y="686" on="1"/>
        <pt x="624" y="686" on="0"/>
        <pt x="628" y="684" on="1"/>
        <pt x="634" y="681" on="0"/>
        <pt x="636" y="675" on="1"/>
        <pt x="641" y="667" on="0"/>
        <pt x="638" y="637" on="1"/>
        <pt x="638" y="633" on="0"/>
        <pt x="637" y="632" on="1"/>
        <pt x="451" y="352" on="1"/>
        <pt x="266" y="77" on="1"/>
        <pt x="318" y="76" on="1"/>
        <pt x="377" y="76" on="0"/>
        <pt x="386" y="77" on="1"/>
        <pt x="476" y="83" on="0"/>
        <pt x="519" y="129" on="1"/>
        <pt x="535" y="145" on="0"/>
        <pt x="546" y="168" on="1"/>
        <pt x="565" y="208" on="0"/>
        <pt x="573" y="300" on="1"/>
        <pt x="573" y="309" on="1"/>
        <pt x="609" y="309" on="1"/>
        <pt x="645" y="309" on="1"/>
        <pt x="645" y="301" on="1"/>
        <pt x="643" y="293" on="0"/>
        <pt x="629" y="17" on="0"/>
        <pt x="627" y="8" on="1"/>
        <pt x="627" y="0" on="1"/>
        <pt x="353" y="0" on="1"/>
        <pt x="79" y="0" on="0"/>
        <pt x="75" y="2" on="1"/>
        <pt x="65" y="6" on="0"/>
        <pt x="64" y="19" on="1"/>
        <pt x="64" y="24" on="0"/>
        <pt x="64" y="34" on="1"/>
        <pt x="64" y="55" on="0"/>
        <pt x="65" y="57" on="1"/>
        <pt x="68" y="62" on="0"/>
        <pt x="252" y="337" on="1"/>
        <pt x="437" y="614" on="1"/>
        <pt x="390" y="614" on="1"/>
        <pt x="324" y="614" on="0"/>
        <pt x="297" y="609" on="1"/>
        <pt x="237" y="599" on="0"/>
        <pt x="202" y="564" on="1"/>
        <pt x="159" y="520" on="0"/>
        <pt x="152" y="429" on="1"/>
        <pt x="152" y="420" on="1"/>
        <pt x="116" y="420" on="1"/>
        <pt x="80" y="420" on="1"/>
        <pt x="80" y="431" on="1"/>
        <pt x="86" y="553" on="1"/>
        <pt x="92" y="674" on="0"/>
      </contour>
    </TTGlyph>
    <TTGlyph name="a" xMin="33" yMin="-8" xMax="558" yMax="452">
      <contour>
        <pt x="225" y="452" on="1"/>
        <pt x="307" y="451" on="1"/>
        <pt x="438" y="436" on="0"/>
        <pt x="474" y="352" on="1"/>
        <pt x="478" y="343" on="0"/>
        <pt x="480" y="334" on="1"/>
        <pt x="483" y="323" on="1"/>
        <pt x="484" y="203" on="1"/>
        <pt x="484" y="86" on="0"/>
        <pt x="486" y="82" on="1"/>
        <pt x="494" y="74" on="0"/>
        <pt x="529" y="72" on="1"/>
        <pt x="545" y="72" on="0"/>
        <pt x="552" y="68" on="1"/>
        <pt x="558" y="62" on="0"/>
        <pt x="558" y="10" on="0"/>
        <pt x="551" y="4" on="1"/>
        <pt x="541" y="0" on="0"/>
        <pt x="487" y="0" on="1"/>
        <pt x="427" y="1" on="0"/>
        <pt x="408" y="7" on="1"/>
        <pt x="377" y="17" on="0"/>
        <pt x="368" y="38" on="1"/>
        <pt x="364" y="46" on="0"/>
        <pt x="364" y="48" on="0"/>
        <pt x="355" y="42" on="1"/>
        <pt x="311" y="7" on="0"/>
        <pt x="237" y="-4" on="1"/>
        <pt x="198" y="-8" on="0"/>
        <pt x="176" y="-5" on="1"/>
        <pt x="86" y="5" on="0"/>
        <pt x="49" y="69" on="1"/>
        <pt x="40" y="84" on="0"/>
        <pt x="36" y="100" on="1"/>
        <pt x="33" y="111" on="0"/>
        <pt x="33" y="128" on="1"/>
        <pt x="33" y="152" on="0"/>
        <pt x="41" y="169" on="1"/>
        <pt x="53" y="193" on="0"/>
        <pt x="74" y="210" on="1"/>
        <pt x="109" y="237" on="0"/>
        <pt x="163" y="252" on="1"/>
        <pt x="229" y="272" on="0"/>
        <pt x="320" y="276" on="1"/>
        <pt x="345" y="277" on="1"/>
        <pt x="345" y="295" on="1"/>
        <pt x="344" y="321" on="1"/>
        <pt x="344" y="322" on="1"/>
        <pt x="338" y="364" on="0"/>
        <pt x="303" y="381" on="1"/>
        <pt x="281" y="392" on="0"/>
        <pt x="246" y="392" on="1"/>
        <pt x="205" y="392" on="0"/>
        <pt x="203" y="390" on="1"/>
        <pt x="206" y="384" on="1"/>
        <pt x="214" y="370" on="0"/>
        <pt x="213" y="348" on="1"/>
        <pt x="213" y="332" on="0"/>
        <pt x="211" y="325" on="1"/>
        <pt x="205" y="307" on="0"/>
        <pt x="193" y="295" on="1"/>
        <pt x="180" y="282" on="0"/>
        <pt x="162" y="276" on="1"/>
        <pt x="154" y="274" on="0"/>
        <pt x="124" y="274" on="0"/>
        <pt x="117" y="276" on="1"/>
        <pt x="98" y="282" on="0"/>
        <pt x="85" y="295" on="1"/>
        <pt x="73" y="307" on="0"/>
        <pt x="67" y="325" on="1"/>
        <pt x="65" y="332" on="0"/>
        <pt x="65" y="364" on="0"/>
        <pt x="67" y="371" on="1"/>
        <pt x="82" y="426" on="0"/>
        <pt x="164" y="444" on="1"/>
        <pt x="191" y="450" on="0"/>
      </contour>
      <contour>
        <pt x="345" y="169" on="1"/>
        <pt x="345" y="221" on="0"/>
        <pt x="343" y="221" on="0"/>
        <pt x="339" y="220" on="1"/>
        <pt x="280" y="216" on="0"/>
        <pt x="236" y="199" on="1"/>
        <pt x="189" y="180" on="0"/>
        <pt x="177" y="146" on="1"/>
        <pt x="172" y="132" on="0"/>
        <pt x="176" y="110" on="1"/>
        <pt x="186" y="70" on="0"/>
        <pt x="222" y="58" on="1"/>
        <pt x="224" y="57" on="0"/>
        <pt x="227" y="56" on="1"/>
        <pt x="264" y="50" on="0"/>
        <pt x="305" y="71" on="1"/>
        <pt x="308" y="72" on="0"/>
        <pt x="311" y="74" on="1"/>
        <pt x="330" y="86" on="0"/>
        <pt x="338" y="101" on="1"/>
        <pt x="344" y="113" on="0"/>
        <pt x="345" y="141" on="1"/>
      </contour>
    </TTGlyph>
    <TTGlyph name="ampersand" xMin="31" yMin="-12" xMax="836" yMax="707">
      <contour>
        <pt x="334" y="703" on="1"/>
        <pt x="358" y="707" on="0"/>
        <pt x="378" y="703" on="1"/>
        <pt x="415" y="697" on="0"/>
        <pt x="445" y="667" on="1"/>
        <pt x="484" y="625" on="0"/>
        <pt x="487" y="562" on="1"/>
        <pt x="488" y="534" on="0"/>
        <pt x="473" y="503" on="1"/>
        <pt x="456" y="469" on="0"/>
        <pt x="414" y="427" on="1"/>
        <pt x="390" y="405" on="0"/>
        <pt x="355" y="376" on="1"/>
        <pt x="337" y="362" on="0"/>
        <pt x="337" y="361" on="1"/>
        <pt x="357" y="327" on="1"/>
        <pt x="391" y="272" on="0"/>
        <pt x="474" y="184" on="1"/>
        <pt x="495" y="162" on="1"/>
        <pt x="508" y="175" on="1"/>
        <pt x="541" y="208" on="0"/>
        <pt x="585" y="269" on="1"/>
        <pt x="654" y="371" on="1"/>
        <pt x="654" y="372" on="0"/>
        <pt x="623" y="372" on="1"/>
        <pt x="591" y="372" on="1"/>
        <pt x="591" y="408" on="1"/>
        <pt x="591" y="444" on="1"/>
        <pt x="600" y="444" on="1"/>
        <pt x="670" y="442" on="1"/>
        <pt x="731" y="441" on="0"/>
        <pt x="776" y="442" on="1"/>
        <pt x="829" y="444" on="1"/>
        <pt x="836" y="444" on="1"/>
        <pt x="836" y="408" on="1"/>
        <pt x="836" y="372" on="1"/>
        <pt x="785" y="372" on="1"/>
        <pt x="734" y="372" on="1"/>
        <pt x="702" y="324" on="1"/>
        <pt x="666" y="269" on="0"/>
        <pt x="636" y="229" on="1"/>
        <pt x="600" y="179" on="0"/>
        <pt x="559" y="137" on="1"/>
        <pt x="542" y="120" on="1"/>
        <pt x="545" y="117" on="1"/>
        <pt x="553" y="110" on="0"/>
        <pt x="576" y="95" on="1"/>
        <pt x="639" y="53" on="0"/>
        <pt x="697" y="63" on="1"/>
        <pt x="749" y="74" on="0"/>
        <pt x="756" y="111" on="1"/>
        <pt x="757" y="118" on="1"/>
        <pt x="793" y="118" on="1"/>
        <pt x="829" y="118" on="1"/>
        <pt x="829" y="114" on="1"/>
        <pt x="829" y="110" on="0"/>
        <pt x="827" y="100" on="1"/>
        <pt x="817" y="36" on="0"/>
        <pt x="746" y="5" on="1"/>
        <pt x="739" y="2" on="0"/>
        <pt x="731" y="-1" on="1"/>
        <pt x="697" y="-12" on="0"/>
        <pt x="657" y="-11" on="1"/>
        <pt x="559" y="-8" on="0"/>
        <pt x="467" y="37" on="1"/>
        <pt x="449" y="47" on="1"/>
        <pt x="442" y="42" on="1"/>
        <pt x="419" y="29" on="0"/>
        <pt x="385" y="14" on="1"/>
        <pt x="341" y="-3" on="0"/>
        <pt x="292" y="-9" on="1"/>
        <pt x="286" y="-10" on="0"/>
        <pt x="256" y="-10" on="1"/>
        <pt x="220" y="-10" on="0"/>
        <pt x="192" y="-3" on="1"/>
        <pt x="141" y="9" on="0"/>
        <pt x="107" y="36" on="1"/>
        <pt x="88" y="51" on="0"/>
        <pt x="73" y="71" on="1"/>
        <pt x="62" y="87" on="0"/>
        <pt x="53" y="113" on="1"/>
        <pt x="31" y="193" on="0"/>
        <pt x="95" y="255" on="1"/>
        <pt x="150" y="297" on="1"/>
        <pt x="196" y="332" on="1"/>
        <pt x="198" y="332" on="0"/>
        <pt x="192" y="347" on="1"/>
        <pt x="164" y="418" on="0"/>
        <pt x="161" y="492" on="1"/>
        <pt x="160" y="532" on="0"/>
        <pt x="171" y="567" on="1"/>
        <pt x="198" y="649" on="0"/>
        <pt x="276" y="686" on="1"/>
        <pt x="304" y="699" on="0"/>
      </contour>
      <contour>
        <pt x="374" y="641" on="1"/>
        <pt x="365" y="645" on="0"/>
        <pt x="347" y="643" on="1"/>
        <pt x="313" y="637" on="0"/>
        <pt x="295" y="598" on="1"/>
        <pt x="293" y="594" on="0"/>
        <pt x="292" y="589" on="1"/>
        <pt x="287" y="575" on="0"/>
        <pt x="287" y="549" on="1"/>
        <pt x="287" y="486" on="0"/>
        <pt x="309" y="426" on="1"/>
        <pt x="311" y="419" on="1"/>
        <pt x="316" y="423" on="1"/>
        <pt x="369" y="466" on="0"/>
        <pt x="393" y="500" on="1"/>
        <pt x="404" y="516" on="0"/>
        <pt x="411" y="534" on="1"/>
        <pt x="414" y="543" on="0"/>
        <pt x="414" y="558" on="1"/>
        <pt x="414" y="580" on="0"/>
        <pt x="408" y="598" on="1"/>
        <pt x="397" y="632" on="0"/>
      </contour>
      <contour>
        <pt x="232" y="264" on="1"/>
        <pt x="227" y="272" on="0"/>
        <pt x="227" y="273" on="1"/>
        <pt x="215" y="253" on="1"/>
        <pt x="207" y="238" on="0"/>
        <pt x="204" y="216" on="1"/>
        <pt x="199" y="184" on="0"/>
        <pt x="204" y="151" on="1"/>
        <pt x="217" y="80" on="0"/>
        <pt x="262" y="64" on="1"/>
        <pt x="269" y="62" on="0"/>
        <pt x="286" y="62" on="1"/>
        <pt x="310" y="62" on="0"/>
        <pt x="334" y="67" on="1"/>
        <pt x="357" y="70" on="0"/>
        <pt x="382" y="82" on="1"/>
        <pt x="389" y="85" on="1"/>
        <pt x="379" y="93" on="1"/>
        <pt x="302" y="154" on="0"/>
        <pt x="242" y="248" on="1"/>
        <pt x="237" y="256" on="0"/>
      </contour>
    </TTGlyph>
    <TTGlyph name="asciicircum" xMin="123" yMin="513" xMax="451" yMax="694">
      <contour>
        <pt x="205" y="633" on="1"/>
        <pt x="287" y="694" on="1"/>
        <pt x="451" y="571" on="1"/>
        <pt x="412" y="514" on="1"/>
        <pt x="410" y="513" on="0"/>
        <pt x="349" y="550" on="1"/>
        <pt x="287" y="587" on="1"/>
        <pt x="225" y="550" on="1"/>
        <pt x="164" y="513" on="0"/>
        <pt x="162" y="514" on="1"/>
        <pt x="123" y="571" on="1"/>
        <pt x="123" y="573" on="0"/>
      </contour>
    </TTGlyph>
    <TTGlyph name="asciitilde" xMin="96" yMin="522" xMax="478" yMax="697">
      <contour>
        <pt x="225" y="692" on="1"/>
        <pt x="244" y="697" on="0"/>
        <pt x="265" y="687" on="1"/>
        <pt x="274" y="682" on="0"/>
        <pt x="300" y="662" on="1"/>
        <pt x="326" y="640" on="0"/>
        <pt x="346" y="639" on="1"/>
        <pt x="361" y="639" on="0"/>
        <pt x="376" y="646" on="1"/>
        <pt x="400" y="657" on="0"/>
        <pt x="426" y="688" on="1"/>
        <pt x="432" y="694" on="1"/>
        <pt x="455" y="674" on="1"/>
        <pt x="478" y="655" on="1"/>
        <pt x="399" y="564" on="1"/>
        <pt x="356" y="522" on="0"/>
        <pt x="323" y="531" on="1"/>
        <pt x="308" y="533" on="0"/>
        <pt x="274" y="561" on="1"/>
        <pt x="248" y="583" on="0"/>
        <pt x="228" y="584" on="1"/>
        <pt x="213" y="584" on="0"/>
        <pt x="199" y="577" on="1"/>
        <pt x="175" y="566" on="0"/>
        <pt x="148" y="535" on="1"/>
        <pt x="142" y="529" on="1"/>
        <pt x="119" y="549" on="1"/>
        <pt x="96" y="568" on="1"/>
        <pt x="175" y="659" on="1"/>
        <pt x="202" y="686" on="0"/>
      </contour>
    </TTGlyph>
    <TTGlyph name="asterisk" xMin="72" yMin="306" xMax="503" yMax="751">
      <contour>
        <pt x="273" y="748" on="1"/>
        <pt x="285" y="751" on="0"/>
        <pt x="301" y="749" on="1"/>
        <pt x="316" y="745" on="0"/>
        <pt x="328" y="735" on="1"/>
        <pt x="344" y="722" on="0"/>
        <pt x="344" y="702" on="1"/>
        <pt x="344" y="694" on="0"/>
        <pt x="335" y="644" on="1"/>
        <pt x="325" y="592" on="0"/>
        <pt x="325" y="591" on="1"/>
        <pt x="327" y="591" on="0"/>
        <pt x="373" y="628" on="1"/>
        <pt x="417" y="662" on="0"/>
        <pt x="427" y="667" on="1"/>
        <pt x="444" y="676" on="0"/>
        <pt x="466" y="666" on="1"/>
        <pt x="499" y="650" on="0"/>
        <pt x="501" y="613" on="1"/>
        <pt x="503" y="596" on="0"/>
        <pt x="495" y="582" on="1"/>
        <pt x="490" y="571" on="0"/>
        <pt x="477" y="565" on="1"/>
        <pt x="470" y="561" on="0"/>
        <pt x="422" y="546" on="1"/>
        <pt x="370" y="528" on="1"/>
        <pt x="422" y="510" on="1"/>
        <pt x="470" y="495" on="0"/>
        <pt x="477" y="491" on="1"/>
        <pt x="488" y="486" on="0"/>
        <pt x="496" y="472" on="1"/>
        <pt x="502" y="458" on="0"/>
        <pt x="502" y="447" on="1"/>
        <pt x="502" y="417" on="0"/>
        <pt x="452" y="377" on="0"/>
        <pt x="427" y="389" on="1"/>
        <pt x="417" y="394" on="0"/>
        <pt x="373" y="428" on="1"/>
        <pt x="327" y="465" on="0"/>
        <pt x="325" y="465" on="1"/>
        <pt x="335" y="412" on="1"/>
        <pt x="344" y="362" on="0"/>
        <pt x="344" y="354" on="1"/>
        <pt x="344" y="334" on="0"/>
        <pt x="328" y="321" on="1"/>
        <pt x="311" y="306" on="0"/>
        <pt x="263" y="306" on="0"/>
        <pt x="246" y="321" on="1"/>
        <pt x="230" y="334" on="0"/>
        <pt x="230" y="354" on="1"/>
        <pt x="230" y="360" on="0"/>
        <pt x="239" y="412" on="1"/>
        <pt x="249" y="464" on="0"/>
        <pt x="249" y="465" on="1"/>
        <pt x="247" y="465" on="0"/>
        <pt x="201" y="428" on="1"/>
        <pt x="157" y="394" on="0"/>
        <pt x="147" y="389" on="1"/>
        <pt x="119" y="376" on="0"/>
        <pt x="92" y="401" on="1"/>
        <pt x="89" y="403" on="0"/>
        <pt x="87" y="406" on="1"/>
        <pt x="72" y="424" on="0"/>
        <pt x="72" y="447" on="1"/>
        <pt x="72" y="458" on="0"/>
        <pt x="78" y="472" on="1"/>
        <pt x="86" y="486" on="0"/>
        <pt x="97" y="491" on="1"/>
        <pt x="104" y="495" on="0"/>
        <pt x="152" y="510" on="1"/>
        <pt x="204" y="528" on="1"/>
        <pt x="152" y="546" on="1"/>
        <pt x="104" y="561" on="0"/>
        <pt x="97" y="565" on="1"/>
        <pt x="86" y="570" on="0"/>
        <pt x="78" y="584" on="1"/>
        <pt x="72" y="598" on="0"/>
        <pt x="72" y="609" on="1"/>
        <pt x="72" y="639" on="0"/>
        <pt x="122" y="679" on="0"/>
        <pt x="147" y="667" on="1"/>
        <pt x="157" y="662" on="0"/>
        <pt x="201" y="628" on="1"/>
        <pt x="247" y="591" on="0"/>
        <pt x="249" y="591" on="1"/>
        <pt x="239" y="644" on="1"/>
        <pt x="230" y="696" on="0"/>
        <pt x="230" y="702" on="1"/>
        <pt x="230" y="722" on="0"/>
        <pt x="246" y="735" on="1"/>
        <pt x="260" y="746" on="0"/>
      </contour>
    </TTGlyph>
    <TTGlyph name="at" xMin="62" yMin="-8" xMax="833" yMax="701">
      <contour>
        <pt x="411" y="699" on="1"/>
        <pt x="445" y="701" on="0"/>
        <pt x="500" y="698" on="1"/>
        <pt x="635" y="683" on="0"/>
        <pt x="723" y="605" on="1"/>
        <pt x="786" y="548" on="0"/>
        <pt x="811" y="464" on="1"/>
        <pt x="822" y="434" on="0"/>
        <pt x="827" y="388" on="1"/>
        <pt x="831" y="361" on="0"/>
        <pt x="828" y="315" on="1"/>
        <pt x="827" y="310" on="0"/>
        <pt x="827" y="307" on="1"/>
        <pt x="813" y="174" on="0"/>
        <pt x="738" y="136" on="1"/>
        <pt x="713" y="123" on="0"/>
        <pt x="676" y="123" on="1"/>
        <pt x="648" y="124" on="0"/>
        <pt x="626" y="130" on="1"/>
        <pt x="588" y="139" on="0"/>
        <pt x="564" y="159" on="1"/>
        <pt x="560" y="159" on="0"/>
        <pt x="555" y="155" on="1"/>
        <pt x="520" y="132" on="0"/>
        <pt x="479" y="125" on="1"/>
        <pt x="455" y="121" on="0"/>
        <pt x="417" y="124" on="1"/>
        <pt x="414" y="125" on="0"/>
        <pt x="412" y="125" on="1"/>
        <pt x="344" y="134" on="0"/>
        <pt x="297" y="170" on="1"/>
        <pt x="276" y="184" on="0"/>
        <pt x="262" y="205" on="1"/>
        <pt x="235" y="241" on="0"/>
        <pt x="224" y="288" on="1"/>
        <pt x="218" y="312" on="0"/>
        <pt x="218" y="382" on="0"/>
        <pt x="224" y="406" on="1"/>
        <pt x="235" y="453" on="0"/>
        <pt x="262" y="489" on="1"/>
        <pt x="276" y="510" on="0"/>
        <pt x="297" y="524" on="1"/>
        <pt x="344" y="560" on="0"/>
        <pt x="412" y="569" on="1"/>
        <pt x="439" y="573" on="0"/>
        <pt x="474" y="570" on="1"/>
        <pt x="477" y="569" on="0"/>
        <pt x="479" y="569" on="1"/>
        <pt x="509" y="562" on="0"/>
        <pt x="520" y="557" on="1"/>
        <pt x="574" y="536" on="0"/>
        <pt x="607" y="485" on="1"/>
        <pt x="612" y="478" on="1"/>
        <pt x="640" y="477" on="1"/>
        <pt x="666" y="477" on="0"/>
        <pt x="670" y="475" on="1"/>
        <pt x="675" y="471" on="0"/>
        <pt x="675" y="448" on="1"/>
        <pt x="675" y="442" on="0"/>
        <pt x="676" y="338" on="1"/>
        <pt x="677" y="208" on="1"/>
        <pt x="679" y="202" on="1"/>
        <pt x="687" y="181" on="0"/>
        <pt x="709" y="185" on="1"/>
        <pt x="748" y="194" on="0"/>
        <pt x="755" y="278" on="1"/>
        <pt x="759" y="312" on="0"/>
        <pt x="756" y="372" on="1"/>
        <pt x="755" y="380" on="0"/>
        <pt x="755" y="383" on="1"/>
        <pt x="748" y="450" on="0"/>
        <pt x="719" y="500" on="1"/>
        <pt x="674" y="578" on="0"/>
        <pt x="587" y="613" on="1"/>
        <pt x="527" y="638" on="0"/>
        <pt x="447" y="638" on="1"/>
        <pt x="366" y="638" on="0"/>
        <pt x="306" y="613" on="1"/>
        <pt x="254" y="593" on="0"/>
        <pt x="216" y="555" on="1"/>
        <pt x="174" y="513" on="0"/>
        <pt x="154" y="454" on="1"/>
        <pt x="137" y="408" on="0"/>
        <pt x="137" y="347" on="1"/>
        <pt x="137" y="311" on="0"/>
        <pt x="141" y="289" on="1"/>
        <pt x="152" y="225" on="0"/>
        <pt x="184" y="177" on="1"/>
        <pt x="204" y="147" on="0"/>
        <pt x="235" y="122" on="1"/>
        <pt x="296" y="72" on="0"/>
        <pt x="382" y="60" on="1"/>
        <pt x="409" y="56" on="0"/>
        <pt x="454" y="56" on="1"/>
        <pt x="586" y="56" on="0"/>
        <pt x="715" y="97" on="1"/>
        <pt x="736" y="103" on="1"/>
        <pt x="777" y="103" on="1"/>
        <pt x="818" y="103" on="0"/>
        <pt x="822" y="101" on="1"/>
        <pt x="833" y="94" on="0"/>
        <pt x="827" y="82" on="1"/>
        <pt x="826" y="79" on="0"/>
        <pt x="814" y="73" on="1"/>
        <pt x="771" y="52" on="0"/>
        <pt x="695" y="29" on="1"/>
        <pt x="602" y="3" on="0"/>
        <pt x="506" y="-4" on="1"/>
        <pt x="460" y="-8" on="0"/>
        <pt x="403" y="-5" on="1"/>
        <pt x="398" y="-4" on="0"/>
        <pt x="395" y="-4" on="1"/>
        <pt x="259" y="11" on="0"/>
        <pt x="170" y="89" on="1"/>
        <pt x="107" y="146" on="0"/>
        <pt x="82" y="230" on="1"/>
        <pt x="71" y="261" on="0"/>
        <pt x="66" y="307" on="1"/>
        <pt x="62" y="332" on="0"/>
        <pt x="65" y="380" on="1"/>
        <pt x="66" y="385" on="0"/>
        <pt x="66" y="388" on="1"/>
        <pt x="78" y="492" on="0"/>
        <pt x="132" y="562" on="1"/>
        <pt x="157" y="597" on="0"/>
        <pt x="194" y="624" on="1"/>
        <pt x="279" y="690" on="0"/>
      </contour>
      <contour>
        <pt x="472" y="507" on="1"/>
        <pt x="454" y="512" on="0"/>
        <pt x="433" y="509" on="1"/>
        <pt x="409" y="503" on="0"/>
        <pt x="390" y="480" on="1"/>
        <pt x="371" y="456" on="0"/>
        <pt x="362" y="416" on="1"/>
        <pt x="350" y="356" on="0"/>
        <pt x="360" y="295" on="1"/>
        <pt x="371" y="213" on="0"/>
        <pt x="419" y="191" on="1"/>
        <pt x="432" y="184" on="0"/>
        <pt x="453" y="184" on="1"/>
        <pt x="497" y="187" on="0"/>
        <pt x="526" y="217" on="1"/>
        <pt x="537" y="228" on="1"/>
        <pt x="537" y="347" on="1"/>
        <pt x="537" y="466" on="1"/>
        <pt x="526" y="477" on="1"/>
        <pt x="504" y="500" on="0"/>
      </contour>
    </TTGlyph>
    <TTGlyph name="b" xMin="22" yMin="-9" xMax="604" yMax="694">
      <contour>
        <pt x="122" y="690" on="1"/>
        <pt x="222" y="694" on="0"/>
        <pt x="220" y="694" on="1"/>
        <pt x="226" y="694" on="1"/>
        <pt x="226" y="554" on="1"/>
        <pt x="226" y="414" on="1"/>
        <pt x="227" y="414" on="0"/>
        <pt x="237" y="419" on="1"/>
        <pt x="309" y="452" on="0"/>
        <pt x="397" y="450" on="1"/>
        <pt x="435" y="449" on="0"/>
        <pt x="468" y="437" on="1"/>
        <pt x="522" y="417" on="0"/>
        <pt x="554" y="374" on="1"/>
        <pt x="597" y="315" on="0"/>
        <pt x="600" y="232" on="1"/>
        <pt x="604" y="106" on="0"/>
        <pt x="517" y="40" on="1"/>
        <pt x="494" y="23" on="0"/>
        <pt x="466" y="12" on="1"/>
        <pt x="431" y="-2" on="0"/>
        <pt x="392" y="-5" on="1"/>
        <pt x="359" y="-9" on="0"/>
        <pt x="330" y="-3" on="1"/>
        <pt x="288" y="3" on="0"/>
        <pt x="253" y="20" on="1"/>
        <pt x="222" y="35" on="0"/>
        <pt x="207" y="49" on="1"/>
        <pt x="204" y="51" on="1"/>
        <pt x="185" y="26" on="1"/>
        <pt x="165" y="1" on="1"/>
        <pt x="129" y="0" on="1"/>
        <pt x="93" y="0" on="1"/>
        <pt x="93" y="296" on="1"/>
        <pt x="93" y="592" on="0"/>
        <pt x="91" y="597" on="1"/>
        <pt x="88" y="607" on="0"/>
        <pt x="78" y="610" on="1"/>
        <pt x="64" y="614" on="0"/>
        <pt x="37" y="614" on="1"/>
        <pt x="24" y="614" on="1"/>
        <pt x="24" y="650" on="1"/>
        <pt x="24" y="686" on="1"/>
        <pt x="27" y="686" on="1"/>
        <pt x="22" y="686" on="0"/>
      </contour>
      <contour>
        <pt x="375" y="387" on="1"/>
        <pt x="348" y="392" on="0"/>
        <pt x="310" y="385" on="1"/>
        <pt x="266" y="375" on="0"/>
        <pt x="237" y="349" on="1"/>
        <pt x="232" y="345" on="1"/>
        <pt x="232" y="226" on="1"/>
        <pt x="232" y="108" on="1"/>
        <pt x="244" y="96" on="1"/>
        <pt x="269" y="71" on="0"/>
        <pt x="296" y="62" on="1"/>
        <pt x="350" y="44" on="0"/>
        <pt x="398" y="68" on="1"/>
        <pt x="402" y="70" on="0"/>
        <pt x="406" y="73" on="1"/>
        <pt x="425" y="88" on="0"/>
        <pt x="431" y="101" on="1"/>
        <pt x="445" y="126" on="0"/>
        <pt x="447" y="205" on="1"/>
        <pt x="447" y="207" on="0"/>
        <pt x="447" y="210" on="1"/>
        <pt x="448" y="315" on="0"/>
        <pt x="433" y="346" on="1"/>
        <pt x="429" y="354" on="0"/>
        <pt x="421" y="362" on="1"/>
        <pt x="412" y="371" on="0"/>
        <pt x="406" y="375" on="1"/>
        <pt x="388" y="384" on="0"/>
      </contour>
    </TTGlyph>
    <TTGlyph name="backslash" xMin="89" yMin="320" xMax="567" yMax="695">
      <contour>
        <pt x="211" y="692" on="1"/>
        <pt x="215" y="695" on="0"/>
        <pt x="222" y="693" on="1"/>
        <pt x="231" y="689" on="0"/>
        <pt x="253" y="662" on="1"/>
        <pt x="257" y="652" on="0"/>
        <pt x="245" y="643" on="1"/>
        <pt x="222" y="625" on="0"/>
        <pt x="211" y="611" on="1"/>
        <pt x="177" y="572" on="0"/>
        <pt x="163" y="528" on="1"/>
        <pt x="151" y="497" on="0"/>
        <pt x="154" y="491" on="1"/>
        <pt x="159" y="493" on="1"/>
        <pt x="172" y="499" on="0"/>
        <pt x="197" y="499" on="1"/>
        <pt x="219" y="499" on="0"/>
        <pt x="235" y="493" on="1"/>
        <pt x="278" y="474" on="0"/>
        <pt x="286" y="424" on="1"/>
        <pt x="290" y="400" on="0"/>
        <pt x="282" y="377" on="1"/>
        <pt x="270" y="343" on="0"/>
        <pt x="235" y="326" on="1"/>
        <pt x="219" y="320" on="0"/>
        <pt x="197" y="320" on="1"/>
        <pt x="173" y="320" on="0"/>
        <pt x="157" y="328" on="1"/>
        <pt x="124" y="345" on="0"/>
        <pt x="107" y="381" on="1"/>
        <pt x="94" y="405" on="0"/>
        <pt x="91" y="437" on="1"/>
        <pt x="89" y="466" on="0"/>
        <pt x="92" y="491" on="1"/>
        <pt x="103" y="580" on="0"/>
        <pt x="162" y="648" on="1"/>
        <pt x="185" y="677" on="0"/>
      </contour>
      <contour>
        <pt x="488" y="692" on="1"/>
        <pt x="492" y="695" on="0"/>
        <pt x="499" y="693" on="1"/>
        <pt x="508" y="689" on="0"/>
        <pt x="530" y="662" on="1"/>
        <pt x="534" y="652" on="0"/>
        <pt x="522" y="643" on="1"/>
        <pt x="499" y="625" on="0"/>
        <pt x="488" y="611" on="1"/>
        <pt x="454" y="572" on="0"/>
        <pt x="440" y="528" on="1"/>
        <pt x="428" y="497" on="0"/>
        <pt x="431" y="491" on="1"/>
        <pt x="436" y="493" on="1"/>
        <pt x="449" y="499" on="0"/>
        <pt x="474" y="499" on="1"/>
        <pt x="496" y="499" on="0"/>
        <pt x="512" y="493" on="1"/>
        <pt x="555" y="474" on="0"/>
        <pt x="563" y="424" on="1"/>
        <pt x="567" y="400" on="0"/>
        <pt x="559" y="377" on="1"/>
        <pt x="547" y="343" on="0"/>
        <pt x="512" y="326" on="1"/>
        <pt x="496" y="320" on="0"/>
        <pt x="474" y="320" on="1"/>
        <pt x="450" y="320" on="0"/>
        <pt x="434" y="328" on="1"/>
        <pt x="401" y="345" on="0"/>
        <pt x="384" y="381" on="1"/>
        <pt x="371" y="405" on="0"/>
        <pt x="368" y="437" on="1"/>
        <pt x="366" y="466" on="0"/>
        <pt x="369" y="491" on="1"/>
        <pt x="380" y="580" on="0"/>
        <pt x="439" y="648" on="1"/>
        <pt x="462" y="677" on="0"/>
      </contour>
    </TTGlyph>
    <TTGlyph name="bar" xMin="0" yMin="244" xMax="1149" yMax="305">
      <contour>
        <pt x="0" y="275" on="1"/>
        <pt x="0" y="305" on="1"/>
        <pt x="575" y="305" on="1"/>
        <pt x="1149" y="305" on="1"/>
        <pt x="1149" y="275" on="1"/>
        <pt x="1149" y="244" on="1"/>
        <pt x="575" y="244" on="1"/>
        <pt x="0" y="244" on="1"/>
      </contour>
    </TTGlyph>
    <TTGlyph name="braceleft" xMin="0" yMin="244" xMax="574" yMax="305">
      <contour>
        <pt x="0" y="275" on="1"/>
        <pt x="0" y="305" on="1"/>
        <pt x="287" y="305" on="1"/>
        <pt x="574" y="305" on="1"/>
        <pt x="574" y="275" on="1"/>
        <pt x="574" y="244" on="1"/>
        <pt x="287" y="244" on="1"/>
        <pt x="0" y="244" on="1"/>
      </contour>
    </TTGlyph>
    <TTGlyph name="braceright" xMin="129" yMin="509" xMax="496" yMax="722">
      <contour>
        <pt x="211" y="716" on="1"/>
        <pt x="249" y="722" on="0"/>
        <pt x="282" y="691" on="1"/>
        <pt x="303" y="672" on="0"/>
        <pt x="304" y="646" on="1"/>
        <pt x="305" y="623" on="0"/>
        <pt x="289" y="602" on="1"/>
        <pt x="281" y="589" on="0"/>
        <pt x="194" y="513" on="1"/>
        <pt x="190" y="509" on="1"/>
        <pt x="160" y="527" on="1"/>
        <pt x="129" y="546" on="1"/>
        <pt x="162" y="673" on="1"/>
        <pt x="176" y="710" on="0"/>
      </contour>
      <contour>
        <pt x="402" y="716" on="1"/>
        <pt x="440" y="722" on="0"/>
        <pt x="473" y="691" on="1"/>
        <pt x="494" y="672" on="0"/>
        <pt x="495" y="646" on="1"/>
        <pt x="496" y="623" on="0"/>
        <pt x="480" y="602" on="1"/>
        <pt x="472" y="589" on="0"/>
        <pt x="385" y="513" on="1"/>
        <pt x="381" y="509" on="1"/>
        <pt x="351" y="527" on="1"/>
        <pt x="320" y="546" on="1"/>
        <pt x="353" y="673" on="1"/>
        <pt x="367" y="710" on="0"/>
      </contour>
    </TTGlyph>
    <TTGlyph name="bracketleft" xMin="128" yMin="-250" xMax="293" yMax="750">
      <contour>
        <pt x="128" y="250" on="1"/>
        <pt x="128" y="750" on="1"/>
        <pt x="211" y="750" on="1"/>
        <pt x="293" y="750" on="1"/>
        <pt x="293" y="720" on="1"/>
        <pt x="293" y="689" on="1"/>
        <pt x="241" y="689" on="1"/>
        <pt x="189" y="689" on="1"/>
        <pt x="189" y="250" on="1"/>
        <pt x="189" y="-189" on="1"/>
        <pt x="241" y="-189" on="1"/>
        <pt x="293" y="-189" on="1"/>
        <pt x="293" y="-219" on="1"/>
        <pt x="293" y="-250" on="1"/>
        <pt x="211" y="-250" on="1"/>
        <pt x="128" y="-250" on="1"/>
      </contour>
    </TTGlyph>
    <TTGlyph name="bracketright" xMin="25" yMin="-250" xMax="190" yMax="750">
      <contour>
        <pt x="25" y="720" on="1"/>
        <pt x="25" y="750" on="1"/>
        <pt x="108" y="750" on="1"/>
        <pt x="190" y="750" on="1"/>
        <pt x="190" y="250" on="1"/>
        <pt x="190" y="-250" on="1"/>
        <pt x="108" y="-250" on="1"/>
        <pt x="25" y="-250" on="1"/>
        <pt x="25" y="-219" on="1"/>
        <pt x="25" y="-189" on="1"/>
        <pt x="77" y="-189" on="1"/>
        <pt x="129" y="-189" on="1"/>
        <pt x="129" y="250" on="1"/>
        <pt x="129" y="689" on="1"/>
        <pt x="77" y="689" on="1"/>
        <pt x="25" y="689" on="1"/>
      </contour>
    </TTGlyph>
    <TTGlyph name="c" xMin="39" yMin="-8" xMax="478" yMax="452">
      <contour>
        <pt x="264" y="452" on="1"/>
        <pt x="333" y="451" on="1"/>
        <pt x="410" y="441" on="0"/>
        <pt x="443" y="405" on="1"/>
        <pt x="467" y="380" on="0"/>
        <pt x="465" y="345" on="1"/>
        <pt x="464" y="315" on="0"/>
        <pt x="444" y="295" on="1"/>
        <pt x="431" y="282" on="0"/>
        <pt x="413" y="276" on="1"/>
        <pt x="405" y="274" on="0"/>
        <pt x="375" y="274" on="0"/>
        <pt x="368" y="276" on="1"/>
        <pt x="349" y="282" on="0"/>
        <pt x="336" y="295" on="1"/>
        <pt x="324" y="307" on="0"/>
        <pt x="318" y="325" on="1"/>
        <pt x="316" y="332" on="0"/>
        <pt x="316" y="348" on="1"/>
        <pt x="315" y="369" on="0"/>
        <pt x="322" y="382" on="1"/>
        <pt x="324" y="386" on="0"/>
        <pt x="323" y="387" on="1"/>
        <pt x="298" y="387" on="1"/>
        <pt x="267" y="387" on="0"/>
        <pt x="251" y="381" on="1"/>
        <pt x="219" y="368" on="0"/>
        <pt x="205" y="336" on="1"/>
        <pt x="196" y="316" on="0"/>
        <pt x="193" y="283" on="1"/>
        <pt x="190" y="255" on="0"/>
        <pt x="192" y="191" on="1"/>
        <pt x="192" y="182" on="0"/>
        <pt x="193" y="178" on="1"/>
        <pt x="199" y="128" on="0"/>
        <pt x="218" y="103" on="1"/>
        <pt x="230" y="88" on="0"/>
        <pt x="247" y="77" on="1"/>
        <pt x="282" y="57" on="0"/>
        <pt x="325" y="59" on="1"/>
        <pt x="383" y="63" on="0"/>
        <pt x="406" y="119" on="1"/>
        <pt x="410" y="127" on="0"/>
        <pt x="413" y="129" on="1"/>
        <pt x="417" y="131" on="0"/>
        <pt x="467" y="131" on="0"/>
        <pt x="471" y="129" on="1"/>
        <pt x="478" y="125" on="0"/>
        <pt x="478" y="115" on="1"/>
        <pt x="477" y="113" on="0"/>
        <pt x="473" y="101" on="1"/>
        <pt x="435" y="11" on="0"/>
        <pt x="321" y="-4" on="1"/>
        <pt x="296" y="-8" on="0"/>
        <pt x="252" y="-5" on="1"/>
        <pt x="248" y="-4" on="0"/>
        <pt x="245" y="-4" on="1"/>
        <pt x="180" y="5" on="0"/>
        <pt x="135" y="35" on="1"/>
        <pt x="67" y="78" on="0"/>
        <pt x="46" y="160" on="1"/>
        <pt x="39" y="188" on="0"/>
        <pt x="39" y="222" on="1"/>
        <pt x="39" y="257" on="0"/>
        <pt x="46" y="286" on="1"/>
        <pt x="61" y="345" on="0"/>
        <pt x="101" y="384" on="1"/>
        <pt x="149" y="433" on="0"/>
        <pt x="228" y="448" on="1"/>
        <pt x="250" y="451" on="1"/>
        <pt x="256" y="452" on="0"/>
      </contour>
    </TTGlyph>
    <TTGlyph name="colon" xMin="54" yMin="1" xMax="264" yMax="444">
      <contour>
        <pt x="143" y="443" on="1"/>
        <pt x="148" y="444" on="0"/>
        <pt x="162" y="444" on="1"/>
        <pt x="193" y="443" on="0"/>
        <pt x="217" y="423" on="1"/>
        <pt x="230" y="413" on="0"/>
        <pt x="238" y="398" on="1"/>
        <pt x="264" y="353" on="0"/>
        <pt x="238" y="308" on="1"/>
        <pt x="230" y="294" on="0"/>
        <pt x="217" y="284" on="1"/>
        <pt x="205" y="273" on="0"/>
        <pt x="183" y="266" on="1"/>
        <pt x="175" y="264" on="0"/>
        <pt x="160" y="264" on="1"/>
        <pt x="144" y="264" on="0"/>
        <pt x="136" y="266" on="1"/>
        <pt x="108" y="274" on="0"/>
        <pt x="90" y="295" on="1"/>
        <pt x="54" y="340" on="0"/>
        <pt x="77" y="391" on="1"/>
        <pt x="82" y="402" on="0"/>
        <pt x="90" y="412" on="1"/>
        <pt x="100" y="423" on="0"/>
        <pt x="116" y="433" on="1"/>
        <pt x="129" y="440" on="0"/>
      </contour>
      <contour>
        <pt x="143" y="180" on="1"/>
        <pt x="148" y="181" on="0"/>
        <pt x="162" y="181" on="1"/>
        <pt x="193" y="180" on="0"/>
        <pt x="217" y="160" on="1"/>
        <pt x="230" y="150" on="0"/>
        <pt x="238" y="135" on="1"/>
        <pt x="264" y="90" on="0"/>
        <pt x="238" y="45" on="1"/>
        <pt x="230" y="31" on="0"/>
        <pt x="217" y="21" on="1"/>
        <pt x="205" y="10" on="0"/>
        <pt x="183" y="3" on="1"/>
        <pt x="175" y="1" on="0"/>
        <pt x="160" y="1" on="1"/>
        <pt x="144" y="1" on="0"/>
        <pt x="136" y="3" on="1"/>
        <pt x="108" y="11" on="0"/>
        <pt x="90" y="32" on="1"/>
        <pt x="54" y="77" on="0"/>
        <pt x="77" y="128" on="1"/>
        <pt x="82" y="139" on="0"/>
        <pt x="90" y="149" on="1"/>
        <pt x="100" y="160" on="0"/>
        <pt x="116" y="170" on="1"/>
        <pt x="129" y="176" on="0"/>
      </contour>
    </TTGlyph>
    <TTGlyph name="comma" xMin="67" yMin="-195" xMax="276" yMax="183">
      <contour>
        <pt x="146" y="180" on="1"/>
        <pt x="164" y="183" on="0"/>
        <pt x="182" y="178" on="1"/>
        <pt x="225" y="167" on="0"/>
        <pt x="247" y="120" on="1"/>
        <pt x="276" y="58" on="0"/>
        <pt x="253" y="-30" on="1"/>
        <pt x="238" y="-91" on="0"/>
        <pt x="197" y="-143" on="1"/>
        <pt x="175" y="-172" on="0"/>
        <pt x="148" y="-191" on="1"/>
        <pt x="145" y="-194" on="0"/>
        <pt x="143" y="-194" on="1"/>
        <pt x="134" y="-195" on="0"/>
        <pt x="119" y="-179" on="1"/>
        <pt x="106" y="-167" on="0"/>
        <pt x="103" y="-162" on="1"/>
        <pt x="99" y="-152" on="0"/>
        <pt x="114" y="-141" on="1"/>
        <pt x="159" y="-104" on="0"/>
        <pt x="182" y="-52" on="1"/>
        <pt x="194" y="-21" on="0"/>
        <pt x="199" y="4" on="1"/>
        <pt x="199" y="8" on="1"/>
        <pt x="196" y="7" on="1"/>
        <pt x="183" y="1" on="0"/>
        <pt x="160" y="1" on="1"/>
        <pt x="136" y="1" on="0"/>
        <pt x="122" y="7" on="1"/>
        <pt x="78" y="25" on="0"/>
        <pt x="70" y="75" on="1"/>
        <pt x="67" y="91" on="0"/>
        <pt x="70" y="107" on="1"/>
        <pt x="80" y="164" on="0"/>
        <pt x="135" y="178" on="1"/>
        <pt x="140" y="179" on="0"/>
      </contour>
    </TTGlyph>
    <TTGlyph name="d" xMin="35" yMin="-9" xMax="614" yMax="694">
      <contour>
        <pt x="441" y="690" on="1"/>
        <pt x="541" y="694" on="0"/>
        <pt x="539" y="694" on="1"/>
        <pt x="545" y="694" on="1"/>
        <pt x="545" y="394" on="1"/>
        <pt x="545" y="94" on="0"/>
        <pt x="547" y="89" on="1"/>
        <pt x="550" y="79" on="0"/>
        <pt x="560" y="76" on="1"/>
        <pt x="574" y="72" on="0"/>
        <pt x="601" y="72" on="1"/>
        <pt x="614" y="72" on="1"/>
        <pt x="614" y="36" on="1"/>
        <pt x="614" y="0" on="0"/>
        <pt x="613" y="0" on="1"/>
        <pt x="594" y="0" on="0"/>
        <pt x="426" y="-6" on="0"/>
        <pt x="407" y="-6" on="1"/>
        <pt x="406" y="-6" on="0"/>
        <pt x="406" y="15" on="1"/>
        <pt x="406" y="35" on="1"/>
        <pt x="401" y="32" on="1"/>
        <pt x="359" y="8" on="0"/>
        <pt x="305" y="-2" on="1"/>
        <pt x="258" y="-9" on="0"/>
        <pt x="219" y="-4" on="1"/>
        <pt x="145" y="9" on="0"/>
        <pt x="101" y="53" on="1"/>
        <pt x="35" y="118" on="0"/>
        <pt x="38" y="231" on="1"/>
        <pt x="39" y="270" on="0"/>
        <pt x="51" y="308" on="1"/>
        <pt x="83" y="400" on="0"/>
        <pt x="172" y="434" on="1"/>
        <pt x="175" y="435" on="0"/>
        <pt x="178" y="436" on="1"/>
        <pt x="213" y="448" on="0"/>
        <pt x="255" y="450" on="1"/>
        <pt x="335" y="452" on="0"/>
        <pt x="403" y="420" on="1"/>
        <pt x="412" y="416" on="1"/>
        <pt x="412" y="504" on="1"/>
        <pt x="412" y="592" on="0"/>
        <pt x="410" y="597" on="1"/>
        <pt x="407" y="607" on="0"/>
        <pt x="397" y="610" on="1"/>
        <pt x="383" y="614" on="0"/>
        <pt x="356" y="614" on="1"/>
        <pt x="343" y="614" on="1"/>
        <pt x="343" y="650" on="1"/>
        <pt x="343" y="686" on="1"/>
        <pt x="346" y="686" on="1"/>
        <pt x="341" y="686" on="0"/>
      </contour>
      <contour>
        <pt x="328" y="386" on="1"/>
        <pt x="308" y="390" on="0"/>
        <pt x="286" y="388" on="1"/>
        <pt x="242" y="383" on="0"/>
        <pt x="219" y="360" on="1"/>
        <pt x="195" y="335" on="0"/>
        <pt x="192" y="267" on="1"/>
        <pt x="191" y="243" on="0"/>
        <pt x="191" y="206" on="1"/>
        <pt x="192" y="117" on="0"/>
        <pt x="208" y="93" on="1"/>
        <pt x="211" y="88" on="0"/>
        <pt x="216" y="83" on="1"/>
        <pt x="249" y="46" on="0"/>
        <pt x="313" y="57" on="1"/>
        <pt x="335" y="61" on="0"/>
        <pt x="355" y="71" on="1"/>
        <pt x="376" y="82" on="0"/>
        <pt x="394" y="100" on="1"/>
        <pt x="406" y="112" on="1"/>
        <pt x="406" y="230" on="1"/>
        <pt x="406" y="348" on="1"/>
        <pt x="401" y="352" on="1"/>
        <pt x="368" y="380" on="0"/>
      </contour>
    </TTGlyph>
    <TTGlyph name="dollar" xMin="63" yMin="-56" xMax="530" yMax="750">
      <contour>
        <pt x="251" y="724" on="1"/>
        <pt x="251" y="750" on="1"/>
        <pt x="287" y="750" on="1"/>
        <pt x="323" y="750" on="1"/>
        <pt x="323" y="724" on="1"/>
        <pt x="323" y="698" on="1"/>
        <pt x="335" y="697" on="1"/>
        <pt x="417" y="685" on="0"/>
        <pt x="465" y="636" on="1"/>
        <pt x="512" y="586" on="0"/>
        <pt x="510" y="510" on="1"/>
        <pt x="507" y="465" on="0"/>
        <pt x="471" y="446" on="1"/>
        <pt x="437" y="428" on="0"/>
        <pt x="399" y="446" on="1"/>
        <pt x="363" y="466" on="0"/>
        <pt x="360" y="509" on="1"/>
        <pt x="359" y="559" on="0"/>
        <pt x="400" y="579" on="1"/>
        <pt x="403" y="581" on="0"/>
        <pt x="407" y="582" on="1"/>
        <pt x="413" y="585" on="1"/>
        <pt x="407" y="590" on="1"/>
        <pt x="378" y="617" on="0"/>
        <pt x="329" y="625" on="1"/>
        <pt x="323" y="626" on="1"/>
        <pt x="323" y="532" on="1"/>
        <pt x="323" y="438" on="1"/>
        <pt x="334" y="436" on="1"/>
        <pt x="416" y="418" on="0"/>
        <pt x="464" y="353" on="1"/>
        <pt x="530" y="266" on="0"/>
        <pt x="502" y="152" on="1"/>
        <pt x="478" y="58" on="0"/>
        <pt x="394" y="17" on="1"/>
        <pt x="373" y="6" on="0"/>
        <pt x="341" y="0" on="1"/>
        <pt x="325" y="-4" on="1"/>
        <pt x="323" y="-4" on="1"/>
        <pt x="323" y="-30" on="1"/>
        <pt x="323" y="-56" on="1"/>
        <pt x="287" y="-56" on="1"/>
        <pt x="251" y="-56" on="1"/>
        <pt x="251" y="-30" on="1"/>
        <pt x="251" y="-4" on="1"/>
        <pt x="243" y="-3" on="1"/>
        <pt x="177" y="6" on="0"/>
        <pt x="132" y="42" on="1"/>
        <pt x="67" y="95" on="0"/>
        <pt x="64" y="187" on="1"/>
        <pt x="63" y="216" on="0"/>
        <pt x="75" y="237" on="1"/>
        <pt x="87" y="257" on="0"/>
        <pt x="115" y="267" on="1"/>
        <pt x="137" y="273" on="0"/>
        <pt x="158" y="268" on="1"/>
        <pt x="200" y="257" on="0"/>
        <pt x="211" y="217" on="1"/>
        <pt x="217" y="196" on="0"/>
        <pt x="211" y="174" on="1"/>
        <pt x="203" y="144" on="0"/>
        <pt x="175" y="129" on="1"/>
        <pt x="171" y="127" on="0"/>
        <pt x="162" y="124" on="1"/>
        <pt x="157" y="122" on="1"/>
        <pt x="154" y="122" on="0"/>
        <pt x="172" y="104" on="1"/>
        <pt x="189" y="87" on="0"/>
        <pt x="221" y="76" on="1"/>
        <pt x="242" y="69" on="0"/>
        <pt x="249" y="69" on="1"/>
        <pt x="251" y="69" on="0"/>
        <pt x="251" y="176" on="1"/>
        <pt x="251" y="283" on="1"/>
        <pt x="236" y="287" on="1"/>
        <pt x="191" y="296" on="0"/>
        <pt x="147" y="327" on="1"/>
        <pt x="70" y="386" on="0"/>
        <pt x="64" y="478" on="1"/>
        <pt x="64" y="485" on="0"/>
        <pt x="64" y="491" on="1"/>
        <pt x="64" y="579" on="0"/>
        <pt x="118" y="635" on="1"/>
        <pt x="163" y="683" on="0"/>
        <pt x="244" y="697" on="1"/>
        <pt x="251" y="698" on="1"/>
      </contour>
      <contour>
        <pt x="251" y="540" on="1"/>
        <pt x="251" y="625" on="0"/>
        <pt x="250" y="625" on="1"/>
        <pt x="243" y="623" on="1"/>
        <pt x="195" y="611" on="0"/>
        <pt x="178" y="576" on="1"/>
        <pt x="170" y="561" on="0"/>
        <pt x="169" y="544" on="1"/>
        <pt x="168" y="513" on="0"/>
        <pt x="190" y="488" on="1"/>
        <pt x="214" y="464" on="0"/>
        <pt x="246" y="456" on="1"/>
        <pt x="251" y="454" on="1"/>
      </contour>
      <contour>
        <pt x="334" y="263" on="1"/>
        <pt x="325" y="267" on="0"/>
        <pt x="323" y="267" on="0"/>
        <pt x="323" y="169" on="1"/>
        <pt x="323" y="70" on="0"/>
        <pt x="324" y="70" on="1"/>
        <pt x="354" y="81" on="1"/>
        <pt x="386" y="98" on="0"/>
        <pt x="398" y="130" on="1"/>
        <pt x="422" y="193" on="0"/>
        <pt x="373" y="239" on="1"/>
        <pt x="358" y="254" on="0"/>
      </contour>
    </TTGlyph>
    <TTGlyph name="e" xMin="30" yMin="-8" xMax="496" yMax="452">
      <contour>
        <pt x="255" y="452" on="1"/>
        <pt x="322" y="451" on="1"/>
        <pt x="393" y="441" on="0"/>
        <pt x="436" y="401" on="1"/>
        <pt x="486" y="351" on="0"/>
        <pt x="493" y="265" on="1"/>
        <pt x="496" y="228" on="0"/>
        <pt x="484" y="220" on="1"/>
        <pt x="480" y="218" on="0"/>
        <pt x="332" y="218" on="1"/>
        <pt x="185" y="218" on="1"/>
        <pt x="185" y="198" on="1"/>
        <pt x="188" y="128" on="0"/>
        <pt x="213" y="100" on="1"/>
        <pt x="215" y="98" on="0"/>
        <pt x="218" y="95" on="1"/>
        <pt x="247" y="66" on="0"/>
        <pt x="306" y="60" on="1"/>
        <pt x="329" y="58" on="0"/>
        <pt x="344" y="61" on="1"/>
        <pt x="398" y="69" on="0"/>
        <pt x="420" y="115" on="1"/>
        <pt x="421" y="118" on="0"/>
        <pt x="422" y="120" on="1"/>
        <pt x="427" y="133" on="0"/>
        <pt x="438" y="134" on="1"/>
        <pt x="443" y="135" on="0"/>
        <pt x="458" y="135" on="1"/>
        <pt x="480" y="135" on="0"/>
        <pt x="484" y="133" on="1"/>
        <pt x="496" y="127" on="0"/>
        <pt x="493" y="112" on="1"/>
        <pt x="487" y="91" on="0"/>
        <pt x="473" y="73" on="1"/>
        <pt x="428" y="11" on="0"/>
        <pt x="332" y="-4" on="1"/>
        <pt x="304" y="-8" on="0"/>
        <pt x="257" y="-5" on="1"/>
        <pt x="254" y="-4" on="0"/>
        <pt x="251" y="-4" on="1"/>
        <pt x="89" y="17" on="0"/>
        <pt x="44" y="148" on="1"/>
        <pt x="38" y="168" on="0"/>
        <pt x="34" y="190" on="1"/>
        <pt x="30" y="218" on="0"/>
        <pt x="34" y="256" on="1"/>
        <pt x="34" y="259" on="0"/>
        <pt x="34" y="261" on="1"/>
        <pt x="45" y="326" on="0"/>
        <pt x="81" y="370" on="1"/>
        <pt x="94" y="388" on="0"/>
        <pt x="119" y="406" on="1"/>
        <pt x="174" y="446" on="0"/>
      </contour>
      <contour>
        <pt x="300" y="390" on="1"/>
        <pt x="285" y="393" on="0"/>
        <pt x="262" y="391" on="1"/>
        <pt x="217" y="383" on="0"/>
        <pt x="199" y="346" on="1"/>
        <pt x="189" y="325" on="0"/>
        <pt x="186" y="285" on="1"/>
        <pt x="186" y="276" on="1"/>
        <pt x="279" y="276" on="1"/>
        <pt x="373" y="276" on="1"/>
        <pt x="372" y="281" on="1"/>
        <pt x="362" y="374" on="0"/>
      </contour>
    </TTGlyph>
    <TTGlyph name="eight" xMin="48" yMin="-10" xMax="528" yMax="654">
      <contour>
        <pt x="265" y="654" on="1"/>
        <pt x="316" y="654" on="1"/>
        <pt x="396" y="648" on="0"/>
        <pt x="442" y="612" on="1"/>
        <pt x="481" y="581" on="0"/>
        <pt x="491" y="532" on="1"/>
        <pt x="497" y="507" on="0"/>
        <pt x="493" y="482" on="1"/>
        <pt x="486" y="418" on="0"/>
        <pt x="424" y="377" on="1"/>
        <pt x="416" y="371" on="1"/>
        <pt x="424" y="366" on="1"/>
        <pt x="468" y="339" on="0"/>
        <pt x="496" y="297" on="1"/>
        <pt x="528" y="247" on="0"/>
        <pt x="526" y="188" on="1"/>
        <pt x="523" y="126" on="0"/>
        <pt x="493" y="82" on="1"/>
        <pt x="455" y="25" on="0"/>
        <pt x="378" y="1" on="1"/>
        <pt x="339" y="-10" on="0"/>
        <pt x="286" y="-10" on="1"/>
        <pt x="220" y="-10" on="0"/>
        <pt x="172" y="6" on="1"/>
        <pt x="62" y="43" on="0"/>
        <pt x="49" y="146" on="1"/>
        <pt x="48" y="158" on="0"/>
        <pt x="48" y="170" on="1"/>
        <pt x="48" y="264" on="0"/>
        <pt x="141" y="322" on="1"/>
        <pt x="152" y="328" on="0"/>
        <pt x="153" y="329" on="1"/>
        <pt x="143" y="338" on="1"/>
        <pt x="99" y="374" on="0"/>
        <pt x="85" y="430" on="1"/>
        <pt x="69" y="494" on="0"/>
        <pt x="98" y="554" on="1"/>
        <pt x="140" y="641" on="0"/>
        <pt x="256" y="653" on="1"/>
        <pt x="261" y="654" on="0"/>
      </contour>
      <contour>
        <pt x="305" y="590" on="1"/>
        <pt x="275" y="593" on="0"/>
        <pt x="244" y="587" on="1"/>
        <pt x="186" y="579" on="0"/>
        <pt x="180" y="539" on="1"/>
        <pt x="179" y="533" on="0"/>
        <pt x="180" y="526" on="1"/>
        <pt x="183" y="504" on="0"/>
        <pt x="206" y="490" on="1"/>
        <pt x="212" y="484" on="0"/>
        <pt x="279" y="448" on="1"/>
        <pt x="345" y="410" on="0"/>
        <pt x="346" y="410" on="1"/>
        <pt x="368" y="430" on="1"/>
        <pt x="379" y="442" on="0"/>
        <pt x="385" y="457" on="1"/>
        <pt x="393" y="474" on="0"/>
        <pt x="393" y="500" on="1"/>
        <pt x="393" y="525" on="0"/>
        <pt x="384" y="542" on="1"/>
        <pt x="374" y="563" on="0"/>
        <pt x="356" y="573" on="1"/>
        <pt x="334" y="587" on="0"/>
      </contour>
      <contour>
        <pt x="299" y="245" on="1"/>
        <pt x="224" y="287" on="1"/>
        <pt x="218" y="287" on="0"/>
        <pt x="201" y="268" on="1"/>
        <pt x="170" y="239" on="0"/>
        <pt x="161" y="196" on="1"/>
        <pt x="157" y="174" on="0"/>
        <pt x="161" y="147" on="1"/>
        <pt x="166" y="119" on="0"/>
        <pt x="179" y="103" on="1"/>
        <pt x="193" y="84" on="0"/>
        <pt x="218" y="72" on="1"/>
        <pt x="239" y="62" on="0"/>
        <pt x="257" y="59" on="1"/>
        <pt x="279" y="55" on="0"/>
        <pt x="315" y="58" on="1"/>
        <pt x="318" y="59" on="0"/>
        <pt x="320" y="59" on="1"/>
        <pt x="399" y="69" on="0"/>
        <pt x="413" y="121" on="1"/>
        <pt x="416" y="135" on="0"/>
        <pt x="414" y="153" on="1"/>
        <pt x="407" y="181" on="0"/>
        <pt x="378" y="201" on="1"/>
      </contour>
    </TTGlyph>
    <TTGlyph name="equal" xMin="56" yMin="108" xMax="829" yMax="392">
      <contour>
        <pt x="84" y="390" on="1"/>
        <pt x="89" y="392" on="0"/>
        <pt x="448" y="392" on="1"/>
        <pt x="807" y="392" on="1"/>
        <pt x="811" y="389" on="1"/>
        <pt x="829" y="382" on="0"/>
        <pt x="829" y="342" on="0"/>
        <pt x="811" y="334" on="1"/>
        <pt x="807" y="332" on="1"/>
        <pt x="447" y="332" on="1"/>
        <pt x="87" y="332" on="1"/>
        <pt x="80" y="335" on="1"/>
        <pt x="74" y="339" on="0"/>
        <pt x="71" y="342" on="1"/>
        <pt x="56" y="362" on="0"/>
        <pt x="71" y="381" on="1"/>
        <pt x="76" y="387" on="0"/>
      </contour>
      <contour>
        <pt x="86" y="167" on="1"/>
        <pt x="89" y="168" on="0"/>
        <pt x="448" y="168" on="1"/>
        <pt x="807" y="168" on="1"/>
        <pt x="811" y="165" on="1"/>
        <pt x="829" y="157" on="0"/>
        <pt x="829" y="138" on="1"/>
        <pt x="829" y="117" on="0"/>
        <pt x="811" y="110" on="1"/>
        <pt x="807" y="108" on="1"/>
        <pt x="447" y="108" on="1"/>
        <pt x="87" y="108" on="1"/>
        <pt x="82" y="110" on="1"/>
        <pt x="63" y="118" on="0"/>
        <pt x="64" y="139" on="1"/>
        <pt x="64" y="144" on="0"/>
        <pt x="66" y="148" on="1"/>
        <pt x="70" y="161" on="0"/>
      </contour>
    </TTGlyph>
    <TTGlyph name="exclam" xMin="81" yMin="-3" xMax="268" yMax="708">
      <contour>
        <pt x="157" y="704" on="1"/>
        <pt x="178" y="708" on="0"/>
        <pt x="199" y="702" on="1"/>
        <pt x="246" y="690" on="0"/>
        <pt x="263" y="645" on="1"/>
        <pt x="267" y="630" on="0"/>
        <pt x="261" y="583" on="1"/>
        <pt x="257" y="557" on="0"/>
        <pt x="238" y="434" on="1"/>
        <pt x="210" y="252" on="0"/>
        <pt x="203" y="246" on="1"/>
        <pt x="196" y="243" on="0"/>
        <pt x="155" y="245" on="1"/>
        <pt x="147" y="245" on="0"/>
        <pt x="146" y="246" on="1"/>
        <pt x="141" y="249" on="0"/>
        <pt x="137" y="269" on="1"/>
        <pt x="134" y="287" on="0"/>
        <pt x="111" y="434" on="1"/>
        <pt x="82" y="624" on="0"/>
        <pt x="84" y="637" on="1"/>
        <pt x="84" y="639" on="0"/>
        <pt x="86" y="645" on="1"/>
        <pt x="99" y="687" on="0"/>
        <pt x="147" y="701" on="1"/>
        <pt x="152" y="703" on="0"/>
      </contour>
      <contour>
        <pt x="158" y="180" on="1"/>
        <pt x="175" y="184" on="0"/>
        <pt x="197" y="178" on="1"/>
        <pt x="241" y="167" on="0"/>
        <pt x="258" y="124" on="1"/>
        <pt x="261" y="119" on="0"/>
        <pt x="262" y="113" on="1"/>
        <pt x="268" y="90" on="0"/>
        <pt x="262" y="68" on="1"/>
        <pt x="250" y="22" on="0"/>
        <pt x="206" y="6" on="1"/>
        <pt x="201" y="4" on="0"/>
        <pt x="197" y="3" on="1"/>
        <pt x="174" y="-3" on="0"/>
        <pt x="152" y="3" on="1"/>
        <pt x="106" y="15" on="0"/>
        <pt x="90" y="59" on="1"/>
        <pt x="88" y="64" on="0"/>
        <pt x="87" y="68" on="1"/>
        <pt x="81" y="90" on="0"/>
        <pt x="87" y="113" on="1"/>
        <pt x="95" y="143" on="0"/>
        <pt x="117" y="160" on="1"/>
        <pt x="134" y="174" on="0"/>
      </contour>
    </TTGlyph>
    <TTGlyph name="f" xMin="35" yMin="0" xMax="461" yMax="700">
      <contour>
        <pt x="337" y="699" on="1"/>
        <pt x="340" y="700" on="0"/>
        <pt x="364" y="700" on="1"/>
        <pt x="387" y="699" on="0"/>
        <pt x="392" y="697" on="1"/>
        <pt x="410" y="692" on="0"/>
        <pt x="423" y="682" on="1"/>
        <pt x="433" y="674" on="0"/>
        <pt x="445" y="658" on="1"/>
        <pt x="453" y="647" on="0"/>
        <pt x="459" y="627" on="1"/>
        <pt x="461" y="618" on="0"/>
        <pt x="461" y="601" on="1"/>
        <pt x="461" y="585" on="0"/>
        <pt x="459" y="577" on="1"/>
        <pt x="445" y="533" on="0"/>
        <pt x="398" y="528" on="1"/>
        <pt x="393" y="527" on="0"/>
        <pt x="388" y="527" on="1"/>
        <pt x="369" y="527" on="0"/>
        <pt x="353" y="535" on="1"/>
        <pt x="326" y="548" on="0"/>
        <pt x="317" y="577" on="1"/>
        <pt x="315" y="584" on="0"/>
        <pt x="315" y="600" on="1"/>
        <pt x="314" y="621" on="0"/>
        <pt x="321" y="634" on="1"/>
        <pt x="323" y="638" on="1"/>
        <pt x="320" y="638" on="1"/>
        <pt x="314" y="638" on="0"/>
        <pt x="296" y="633" on="1"/>
        <pt x="268" y="624" on="0"/>
        <pt x="252" y="603" on="1"/>
        <pt x="242" y="592" on="0"/>
        <pt x="237" y="576" on="1"/>
        <pt x="231" y="557" on="0"/>
        <pt x="231" y="495" on="1"/>
        <pt x="231" y="444" on="1"/>
        <pt x="286" y="444" on="1"/>
        <pt x="340" y="444" on="1"/>
        <pt x="340" y="408" on="1"/>
        <pt x="340" y="372" on="1"/>
        <pt x="289" y="372" on="1"/>
        <pt x="237" y="372" on="1"/>
        <pt x="237" y="222" on="1"/>
        <pt x="237" y="72" on="1"/>
        <pt x="280" y="72" on="1"/>
        <pt x="323" y="72" on="1"/>
        <pt x="323" y="36" on="1"/>
        <pt x="323" y="0" on="1"/>
        <pt x="313" y="0" on="1"/>
        <pt x="237" y="2" on="1"/>
        <pt x="171" y="3" on="0"/>
        <pt x="112" y="2" on="1"/>
        <pt x="44" y="0" on="1"/>
        <pt x="35" y="0" on="1"/>
        <pt x="35" y="36" on="1"/>
        <pt x="35" y="72" on="1"/>
        <pt x="70" y="72" on="1"/>
        <pt x="104" y="72" on="1"/>
        <pt x="104" y="222" on="1"/>
        <pt x="104" y="372" on="1"/>
        <pt x="73" y="372" on="1"/>
        <pt x="42" y="372" on="1"/>
        <pt x="42" y="408" on="1"/>
        <pt x="42" y="444" on="1"/>
        <pt x="73" y="444" on="1"/>
        <pt x="104" y="444" on="1"/>
        <pt x="104" y="500" on="1"/>
        <pt x="105" y="557" on="1"/>
        <pt x="107" y="566" on="1"/>
        <pt x="116" y="596" on="0"/>
        <pt x="132" y="617" on="1"/>
        <pt x="182" y="681" on="0"/>
        <pt x="302" y="696" on="1"/>
        <pt x="310" y="697" on="0"/>
        <pt x="319" y="698" on="1"/>
        <pt x="326" y="699" on="0"/>
      </contour>
    </TTGlyph>
    <TTGlyph name="five" xMin="48" yMin="-16" xMax="516" yMax="655">
      <contour>
        <pt x="102" y="653" on="1"/>
        <pt x="106" y="655" on="0"/>
        <pt x="108" y="655" on="1"/>
        <pt x="111" y="655" on="0"/>
        <pt x="132" y="648" on="1"/>
        <pt x="205" y="624" on="0"/>
        <pt x="284" y="624" on="1"/>
        <pt x="366" y="624" on="0"/>
        <pt x="437" y="649" on="1"/>
        <pt x="457" y="655" on="0"/>
        <pt x="458" y="655" on="1"/>
        <pt x="468" y="655" on="0"/>
        <pt x="470" y="647" on="1"/>
        <pt x="472" y="645" on="0"/>
        <pt x="472" y="603" on="0"/>
        <pt x="466" y="596" on="1"/>
        <pt x="467" y="597" on="0"/>
        <pt x="460" y="589" on="1"/>
        <pt x="425" y="548" on="0"/>
        <pt x="376" y="520" on="1"/>
        <pt x="323" y="490" on="0"/>
        <pt x="261" y="481" on="1"/>
        <pt x="247" y="479" on="0"/>
        <pt x="214" y="479" on="1"/>
        <pt x="177" y="479" on="1"/>
        <pt x="173" y="480" on="1"/>
        <pt x="173" y="429" on="1"/>
        <pt x="173" y="378" on="1"/>
        <pt x="180" y="382" on="1"/>
        <pt x="224" y="408" on="0"/>
        <pt x="277" y="409" on="1"/>
        <pt x="367" y="411" on="0"/>
        <pt x="429" y="370" on="1"/>
        <pt x="492" y="328" on="0"/>
        <pt x="510" y="256" on="1"/>
        <pt x="516" y="230" on="0"/>
        <pt x="516" y="202" on="1"/>
        <pt x="516" y="168" on="0"/>
        <pt x="509" y="146" on="1"/>
        <pt x="479" y="40" on="0"/>
        <pt x="358" y="4" on="1"/>
        <pt x="322" y="-7" on="0"/>
        <pt x="281" y="-10" on="1"/>
        <pt x="208" y="-16" on="0"/>
        <pt x="152" y="11" on="1"/>
        <pt x="103" y="34" on="0"/>
        <pt x="78" y="75" on="1"/>
        <pt x="48" y="123" on="0"/>
        <pt x="60" y="171" on="1"/>
        <pt x="61" y="178" on="0"/>
        <pt x="64" y="184" on="1"/>
        <pt x="83" y="225" on="0"/>
        <pt x="130" y="228" on="1"/>
        <pt x="147" y="229" on="0"/>
        <pt x="164" y="224" on="1"/>
        <pt x="203" y="212" on="0"/>
        <pt x="214" y="172" on="1"/>
        <pt x="216" y="160" on="0"/>
        <pt x="216" y="149" on="1"/>
        <pt x="216" y="123" on="0"/>
        <pt x="202" y="101" on="1"/>
        <pt x="191" y="87" on="0"/>
        <pt x="178" y="80" on="1"/>
        <pt x="174" y="78" on="0"/>
        <pt x="174" y="77" on="1"/>
        <pt x="199" y="66" on="1"/>
        <pt x="200" y="65" on="0"/>
        <pt x="201" y="65" on="1"/>
        <pt x="228" y="55" on="0"/>
        <pt x="266" y="58" on="1"/>
        <pt x="306" y="62" on="0"/>
        <pt x="327" y="83" on="1"/>
        <pt x="347" y="104" on="0"/>
        <pt x="350" y="165" on="1"/>
        <pt x="350" y="187" on="0"/>
        <pt x="350" y="222" on="1"/>
        <pt x="349" y="299" on="0"/>
        <pt x="342" y="315" on="1"/>
        <pt x="337" y="327" on="0"/>
        <pt x="321" y="338" on="1"/>
        <pt x="315" y="342" on="0"/>
        <pt x="306" y="344" on="1"/>
        <pt x="298" y="347" on="0"/>
        <pt x="280" y="347" on="1"/>
        <pt x="229" y="347" on="0"/>
        <pt x="196" y="324" on="1"/>
        <pt x="177" y="312" on="0"/>
        <pt x="167" y="296" on="1"/>
        <pt x="157" y="282" on="0"/>
        <pt x="148" y="281" on="1"/>
        <pt x="144" y="280" on="0"/>
        <pt x="130" y="280" on="1"/>
        <pt x="109" y="280" on="0"/>
        <pt x="106" y="282" on="1"/>
        <pt x="100" y="285" on="0"/>
        <pt x="97" y="291" on="1"/>
        <pt x="95" y="295" on="0"/>
        <pt x="95" y="469" on="1"/>
        <pt x="95" y="647" on="0"/>
        <pt x="98" y="651" on="1"/>
      </contour>
    </TTGlyph>
    <TTGlyph name="four" xMin="32" yMin="0" xMax="542" yMax="659">
      <contour>
        <pt x="377" y="654" on="1"/>
        <pt x="388" y="659" on="0"/>
        <pt x="437" y="656" on="1"/>
        <pt x="445" y="655" on="0"/>
        <pt x="447" y="654" on="1"/>
        <pt x="453" y="652" on="0"/>
        <pt x="456" y="646" on="1"/>
        <pt x="458" y="642" on="0"/>
        <pt x="458" y="434" on="1"/>
        <pt x="458" y="226" on="1"/>
        <pt x="500" y="226" on="1"/>
        <pt x="542" y="226" on="1"/>
        <pt x="542" y="190" on="1"/>
        <pt x="542" y="154" on="1"/>
        <pt x="500" y="154" on="1"/>
        <pt x="458" y="154" on="1"/>
        <pt x="458" y="113" on="1"/>
        <pt x="458" y="72" on="1"/>
        <pt x="500" y="72" on="1"/>
        <pt x="542" y="72" on="1"/>
        <pt x="542" y="36" on="1"/>
        <pt x="542" y="0" on="1"/>
        <pt x="531" y="0" on="1"/>
        <pt x="532" y="0" on="0"/>
        <pt x="452" y="2" on="1"/>
        <pt x="383" y="3" on="0"/>
        <pt x="302" y="2" on="1"/>
        <pt x="209" y="0" on="1"/>
        <pt x="196" y="0" on="1"/>
        <pt x="196" y="36" on="1"/>
        <pt x="196" y="72" on="1"/>
        <pt x="252" y="72" on="1"/>
        <pt x="308" y="72" on="1"/>
        <pt x="308" y="113" on="1"/>
        <pt x="308" y="154" on="1"/>
        <pt x="170" y="154" on="1"/>
        <pt x="32" y="154" on="1"/>
        <pt x="32" y="190" on="1"/>
        <pt x="32" y="226" on="1"/>
        <pt x="198" y="435" on="1"/>
        <pt x="368" y="647" on="0"/>
        <pt x="369" y="648" on="1"/>
        <pt x="373" y="654" on="0"/>
      </contour>
      <contour>
        <pt x="319" y="226" on="1"/>
        <pt x="319" y="354" on="1"/>
        <pt x="319" y="481" on="1"/>
        <pt x="217" y="354" on="1"/>
        <pt x="116" y="227" on="1"/>
        <pt x="217" y="226" on="1"/>
      </contour>
    </TTGlyph>
    <TTGlyph name="g" xMin="21" yMin="-205" xMax="560" yMax="455">
      <contour>
        <pt x="471" y="454" on="1"/>
        <pt x="490" y="455" on="1"/>
        <pt x="491" y="455" on="1"/>
        <pt x="506" y="454" on="0"/>
        <pt x="511" y="452" on="1"/>
        <pt x="533" y="445" on="0"/>
        <pt x="546" y="424" on="1"/>
        <pt x="560" y="404" on="0"/>
        <pt x="558" y="381" on="1"/>
        <pt x="557" y="365" on="0"/>
        <pt x="548" y="352" on="1"/>
        <pt x="533" y="327" on="0"/>
        <pt x="500" y="329" on="1"/>
        <pt x="472" y="331" on="0"/>
        <pt x="457" y="351" on="1"/>
        <pt x="455" y="354" on="1"/>
        <pt x="457" y="348" on="1"/>
        <pt x="463" y="331" on="0"/>
        <pt x="463" y="330" on="1"/>
        <pt x="466" y="317" on="0"/>
        <pt x="466" y="279" on="0"/>
        <pt x="464" y="268" on="1"/>
        <pt x="455" y="235" on="0"/>
        <pt x="433" y="208" on="1"/>
        <pt x="409" y="179" on="0"/>
        <pt x="363" y="162" on="1"/>
        <pt x="340" y="153" on="0"/>
        <pt x="309" y="149" on="1"/>
        <pt x="218" y="136" on="0"/>
        <pt x="148" y="162" on="1"/>
        <pt x="137" y="166" on="1"/>
        <pt x="136" y="166" on="0"/>
        <pt x="133" y="149" on="1"/>
        <pt x="131" y="128" on="0"/>
        <pt x="146" y="113" on="1"/>
        <pt x="155" y="103" on="0"/>
        <pt x="166" y="99" on="1"/>
        <pt x="173" y="97" on="1"/>
        <pt x="262" y="96" on="1"/>
        <pt x="347" y="96" on="0"/>
        <pt x="365" y="94" on="1"/>
        <pt x="441" y="87" on="0"/>
        <pt x="486" y="59" on="1"/>
        <pt x="540" y="26" on="0"/>
        <pt x="549" y="-49" on="1"/>
        <pt x="555" y="-101" on="0"/>
        <pt x="519" y="-136" on="1"/>
        <pt x="461" y="-192" on="0"/>
        <pt x="329" y="-200" on="1"/>
        <pt x="231" y="-205" on="0"/>
        <pt x="162" y="-189" on="1"/>
        <pt x="45" y="-160" on="0"/>
        <pt x="27" y="-89" on="1"/>
        <pt x="24" y="-81" on="0"/>
        <pt x="24" y="-72" on="1"/>
        <pt x="21" y="-20" on="0"/>
        <pt x="77" y="10" on="1"/>
        <pt x="81" y="12" on="0"/>
        <pt x="85" y="14" on="1"/>
        <pt x="91" y="17" on="1"/>
        <pt x="88" y="22" on="1"/>
        <pt x="59" y="59" on="0"/>
        <pt x="59" y="108" on="1"/>
        <pt x="59" y="151" on="0"/>
        <pt x="84" y="188" on="1"/>
        <pt x="90" y="196" on="1"/>
        <pt x="82" y="204" on="1"/>
        <pt x="69" y="217" on="0"/>
        <pt x="58" y="237" on="1"/>
        <pt x="51" y="254" on="0"/>
        <pt x="47" y="268" on="1"/>
        <pt x="45" y="278" on="0"/>
        <pt x="45" y="298" on="1"/>
        <pt x="45" y="317" on="0"/>
        <pt x="47" y="327" on="1"/>
        <pt x="56" y="360" on="0"/>
        <pt x="78" y="387" on="1"/>
        <pt x="102" y="416" on="0"/>
        <pt x="194" y="450" on="0"/>
        <pt x="256" y="450" on="1"/>
        <pt x="330" y="450" on="0"/>
        <pt x="380" y="426" on="1"/>
        <pt x="387" y="422" on="1"/>
        <pt x="394" y="427" on="1"/>
        <pt x="428" y="449" on="0"/>
      </contour>
      <contour>
        <pt x="275" y="388" on="1"/>
        <pt x="244" y="392" on="0"/>
        <pt x="222" y="385" on="1"/>
        <pt x="197" y="380" on="0"/>
        <pt x="187" y="361" on="1"/>
        <pt x="180" y="344" on="0"/>
        <pt x="180" y="298" on="1"/>
        <pt x="180" y="251" on="0"/>
        <pt x="187" y="234" on="1"/>
        <pt x="193" y="219" on="0"/>
        <pt x="217" y="211" on="1"/>
        <pt x="238" y="203" on="0"/>
        <pt x="277" y="207" on="1"/>
        <pt x="303" y="211" on="0"/>
        <pt x="316" y="224" on="1"/>
        <pt x="327" y="234" on="0"/>
        <pt x="330" y="263" on="1"/>
        <pt x="330" y="332" on="1"/>
        <pt x="327" y="361" on="0"/>
        <pt x="316" y="371" on="1"/>
        <pt x="302" y="385" on="0"/>
      </contour>
      <contour>
        <pt x="447" y="383" on="1"/>
        <pt x="447" y="386" on="0"/>
        <pt x="448" y="389" on="1"/>
        <pt x="441" y="387" on="1"/>
        <pt x="435" y="385" on="1"/>
        <pt x="443" y="374" on="1"/>
        <pt x="449" y="363" on="0"/>
        <pt x="450" y="362" on="1"/>
        <pt x="451" y="362" on="0"/>
        <pt x="449" y="369" on="1"/>
        <pt x="447" y="379" on="0"/>
      </contour>
      <contour>
        <pt x="341" y="-26" on="1"/>
        <pt x="171" y="-26" on="1"/>
        <pt x="150" y="-29" on="0"/>
        <pt x="140" y="-47" on="1"/>
        <pt x="122" y="-81" on="0"/>
        <pt x="160" y="-110" on="1"/>
        <pt x="167" y="-116" on="0"/>
        <pt x="176" y="-120" on="1"/>
        <pt x="203" y="-132" on="0"/>
        <pt x="242" y="-138" on="1"/>
        <pt x="277" y="-142" on="0"/>
        <pt x="325" y="-139" on="1"/>
        <pt x="329" y="-138" on="0"/>
        <pt x="332" y="-138" on="1"/>
        <pt x="401" y="-129" on="0"/>
        <pt x="427" y="-98" on="1"/>
        <pt x="443" y="-78" on="0"/>
        <pt x="438" y="-61" on="1"/>
        <pt x="433" y="-49" on="0"/>
        <pt x="422" y="-43" on="1"/>
        <pt x="399" y="-29" on="0"/>
      </contour>
    </TTGlyph>
    <TTGlyph name="grave" xMin="52" yMin="320" xMax="253" yMax="695">
      <contour>
        <pt x="174" y="692" on="1"/>
        <pt x="178" y="695" on="0"/>
        <pt x="185" y="693" on="1"/>
        <pt x="194" y="689" on="0"/>
        <pt x="216" y="662" on="1"/>
        <pt x="220" y="652" on="0"/>
        <pt x="206" y="641" on="1"/>
        <pt x="149" y="599" on="0"/>
        <pt x="126" y="528" on="1"/>
        <pt x="114" y="497" on="0"/>
        <pt x="117" y="491" on="1"/>
        <pt x="122" y="493" on="1"/>
        <pt x="135" y="499" on="0"/>
        <pt x="160" y="499" on="1"/>
        <pt x="182" y="499" on="0"/>
        <pt x="198" y="493" on="1"/>
        <pt x="241" y="474" on="0"/>
        <pt x="249" y="424" on="1"/>
        <pt x="253" y="400" on="0"/>
        <pt x="245" y="377" on="1"/>
        <pt x="233" y="343" on="0"/>
        <pt x="198" y="326" on="1"/>
        <pt x="182" y="320" on="0"/>
        <pt x="160" y="320" on="1"/>
        <pt x="136" y="320" on="0"/>
        <pt x="120" y="328" on="1"/>
        <pt x="79" y="349" on="0"/>
        <pt x="64" y="395" on="1"/>
        <pt x="52" y="429" on="0"/>
        <pt x="53" y="465" on="1"/>
        <pt x="54" y="490" on="0"/>
        <pt x="59" y="514" on="1"/>
        <pt x="73" y="584" on="0"/>
        <pt x="119" y="641" on="1"/>
        <pt x="141" y="670" on="0"/>
        <pt x="169" y="689" on="1"/>
        <pt x="172" y="691" on="0"/>
      </contour>
    </TTGlyph>
    <TTGlyph name="greater" xMin="57" yMin="-202" xMax="477" yMax="503">
      <contour>
        <pt x="239" y="499" on="1"/>
        <pt x="256" y="503" on="0"/>
        <pt x="278" y="497" on="1"/>
        <pt x="322" y="486" on="0"/>
        <pt x="339" y="443" on="1"/>
        <pt x="342" y="438" on="0"/>
        <pt x="343" y="432" on="1"/>
        <pt x="349" y="410" on="0"/>
        <pt x="343" y="387" on="1"/>
        <pt x="331" y="341" on="0"/>
        <pt x="287" y="325" on="1"/>
        <pt x="282" y="323" on="0"/>
        <pt x="278" y="322" on="1"/>
        <pt x="256" y="316" on="0"/>
        <pt x="233" y="322" on="1"/>
        <pt x="187" y="334" on="0"/>
        <pt x="171" y="378" on="1"/>
        <pt x="169" y="383" on="0"/>
        <pt x="168" y="387" on="1"/>
        <pt x="162" y="410" on="0"/>
        <pt x="168" y="432" on="1"/>
        <pt x="176" y="462" on="0"/>
        <pt x="198" y="479" on="1"/>
        <pt x="215" y="493" on="0"/>
      </contour>
      <contour>
        <pt x="226" y="253" on="1"/>
        <pt x="229" y="255" on="0"/>
        <pt x="255" y="255" on="1"/>
        <pt x="285" y="255" on="0"/>
        <pt x="289" y="249" on="1"/>
        <pt x="292" y="244" on="0"/>
        <pt x="292" y="229" on="1"/>
        <pt x="292" y="182" on="0"/>
        <pt x="288" y="152" on="1"/>
        <pt x="276" y="72" on="0"/>
        <pt x="234" y="1" on="1"/>
        <pt x="219" y="-25" on="0"/>
        <pt x="218" y="-48" on="1"/>
        <pt x="218" y="-57" on="0"/>
        <pt x="218" y="-86" on="1"/>
        <pt x="218" y="-129" on="1"/>
        <pt x="221" y="-132" on="1"/>
        <pt x="233" y="-141" on="0"/>
        <pt x="282" y="-138" on="1"/>
        <pt x="321" y="-135" on="0"/>
        <pt x="345" y="-128" on="1"/>
        <pt x="354" y="-126" on="1"/>
        <pt x="348" y="-119" on="1"/>
        <pt x="327" y="-96" on="0"/>
        <pt x="328" y="-63" on="1"/>
        <pt x="331" y="-24" on="0"/>
        <pt x="360" y="-4" on="1"/>
        <pt x="379" y="8" on="0"/>
        <pt x="427" y="8" on="0"/>
        <pt x="446" y="-4" on="1"/>
        <pt x="469" y="-21" on="0"/>
        <pt x="475" y="-44" on="1"/>
        <pt x="477" y="-51" on="0"/>
        <pt x="477" y="-68" on="1"/>
        <pt x="477" y="-86" on="0"/>
        <pt x="475" y="-94" on="1"/>
        <pt x="462" y="-143" on="0"/>
        <pt x="404" y="-172" on="1"/>
        <pt x="366" y="-190" on="0"/>
        <pt x="305" y="-198" on="1"/>
        <pt x="265" y="-202" on="0"/>
        <pt x="212" y="-199" on="1"/>
        <pt x="207" y="-198" on="0"/>
        <pt x="204" y="-198" on="1"/>
        <pt x="134" y="-189" on="0"/>
        <pt x="100" y="-155" on="1"/>
        <pt x="57" y="-114" on="0"/>
        <pt x="65" y="-49" on="1"/>
        <pt x="69" y="-19" on="0"/>
        <pt x="86" y="6" on="1"/>
        <pt x="96" y="20" on="0"/>
        <pt x="118" y="36" on="1"/>
        <pt x="143" y="54" on="0"/>
        <pt x="163" y="74" on="1"/>
        <pt x="193" y="106" on="0"/>
        <pt x="206" y="138" on="1"/>
        <pt x="219" y="167" on="0"/>
        <pt x="220" y="216" on="1"/>
        <pt x="220" y="249" on="0"/>
      </contour>
    </TTGlyph>
    <TTGlyph name="h" xMin="30" yMin="0" xMax="628" yMax="694">
      <contour>
        <pt x="130" y="690" on="1"/>
        <pt x="230" y="694" on="0"/>
        <pt x="228" y="694" on="1"/>
        <pt x="234" y="694" on="1"/>
        <pt x="234" y="538" on="1"/>
        <pt x="234" y="381" on="1"/>
        <pt x="240" y="387" on="1"/>
        <pt x="274" y="421" on="0"/>
        <pt x="319" y="436" on="1"/>
        <pt x="346" y="445" on="0"/>
        <pt x="365" y="448" on="1"/>
        <pt x="390" y="452" on="0"/>
        <pt x="434" y="449" on="1"/>
        <pt x="438" y="448" on="0"/>
        <pt x="441" y="448" on="1"/>
        <pt x="518" y="439" on="0"/>
        <pt x="545" y="383" on="1"/>
        <pt x="551" y="371" on="0"/>
        <pt x="556" y="346" on="1"/>
        <pt x="558" y="335" on="0"/>
        <pt x="559" y="203" on="1"/>
        <pt x="559" y="72" on="1"/>
        <pt x="594" y="72" on="1"/>
        <pt x="628" y="72" on="1"/>
        <pt x="628" y="36" on="1"/>
        <pt x="628" y="0" on="1"/>
        <pt x="619" y="0" on="1"/>
        <pt x="620" y="0" on="0"/>
        <pt x="550" y="2" on="1"/>
        <pt x="490" y="3" on="0"/>
        <pt x="430" y="2" on="1"/>
        <pt x="360" y="0" on="1"/>
        <pt x="351" y="0" on="1"/>
        <pt x="351" y="36" on="1"/>
        <pt x="351" y="72" on="1"/>
        <pt x="386" y="72" on="1"/>
        <pt x="420" y="72" on="1"/>
        <pt x="420" y="197" on="1"/>
        <pt x="420" y="327" on="0"/>
        <pt x="419" y="333" on="1"/>
        <pt x="414" y="384" on="0"/>
        <pt x="376" y="389" on="1"/>
        <pt x="369" y="389" on="0"/>
        <pt x="360" y="389" on="1"/>
        <pt x="312" y="386" on="0"/>
        <pt x="278" y="352" on="1"/>
        <pt x="254" y="328" on="0"/>
        <pt x="246" y="299" on="1"/>
        <pt x="240" y="282" on="0"/>
        <pt x="240" y="213" on="1"/>
        <pt x="240" y="201" on="0"/>
        <pt x="240" y="171" on="1"/>
        <pt x="240" y="72" on="1"/>
        <pt x="275" y="72" on="1"/>
        <pt x="309" y="72" on="1"/>
        <pt x="309" y="36" on="1"/>
        <pt x="309" y="0" on="1"/>
        <pt x="300" y="0" on="1"/>
        <pt x="230" y="2" on="1"/>
        <pt x="170" y="3" on="0"/>
        <pt x="110" y="2" on="1"/>
        <pt x="40" y="0" on="0"/>
        <pt x="41" y="0" on="1"/>
        <pt x="32" y="0" on="1"/>
        <pt x="32" y="36" on="1"/>
        <pt x="32" y="72" on="1"/>
        <pt x="67" y="72" on="1"/>
        <pt x="101" y="72" on="1"/>
        <pt x="101" y="332" on="1"/>
        <pt x="101" y="592" on="0"/>
        <pt x="99" y="597" on="1"/>
        <pt x="96" y="607" on="0"/>
        <pt x="86" y="610" on="1"/>
        <pt x="72" y="614" on="0"/>
        <pt x="45" y="614" on="1"/>
        <pt x="32" y="614" on="1"/>
        <pt x="32" y="650" on="1"/>
        <pt x="32" y="686" on="1"/>
        <pt x="35" y="686" on="1"/>
        <pt x="30" y="686" on="0"/>
      </contour>
    </TTGlyph>
    <TTGlyph name="hyphen" xMin="13" yMin="161" xMax="318" yMax="283">
      <contour>
        <pt x="13" y="222" on="1"/>
        <pt x="13" y="283" on="1"/>
        <pt x="166" y="283" on="1"/>
        <pt x="318" y="283" on="1"/>
        <pt x="318" y="222" on="1"/>
        <pt x="318" y="161" on="1"/>
        <pt x="166" y="161" on="1"/>
        <pt x="13" y="161" on="1"/>
      </contour>
    </TTGlyph>
    <TTGlyph name="i" xMin="35" yMin="0" xMax="299" yMax="695">
      <contour>
        <pt x="142" y="694" on="1"/>
        <pt x="144" y="695" on="0"/>
        <pt x="160" y="695" on="1"/>
        <pt x="177" y="693" on="0"/>
        <pt x="182" y="692" on="1"/>
        <pt x="221" y="680" on="0"/>
        <pt x="238" y="646" on="1"/>
        <pt x="247" y="627" on="0"/>
        <pt x="247" y="609" on="1"/>
        <pt x="247" y="590" on="0"/>
        <pt x="238" y="572" on="1"/>
        <pt x="221" y="537" on="0"/>
        <pt x="182" y="525" on="1"/>
        <pt x="173" y="523" on="0"/>
        <pt x="157" y="523" on="1"/>
        <pt x="140" y="523" on="0"/>
        <pt x="132" y="525" on="1"/>
        <pt x="92" y="537" on="0"/>
        <pt x="75" y="572" on="1"/>
        <pt x="67" y="588" on="0"/>
        <pt x="67" y="609" on="1"/>
        <pt x="67" y="623" on="0"/>
        <pt x="68" y="629" on="1"/>
        <pt x="73" y="647" on="0"/>
        <pt x="86" y="663" on="1"/>
        <pt x="107" y="688" on="0"/>
      </contour>
      <contour>
        <pt x="135" y="446" on="1"/>
        <pt x="235" y="450" on="0"/>
        <pt x="231" y="450" on="1"/>
        <pt x="237" y="450" on="1"/>
        <pt x="237" y="261" on="1"/>
        <pt x="237" y="72" on="1"/>
        <pt x="268" y="72" on="1"/>
        <pt x="299" y="72" on="1"/>
        <pt x="299" y="36" on="1"/>
        <pt x="299" y="0" on="1"/>
        <pt x="290" y="0" on="1"/>
        <pt x="226" y="2" on="1"/>
        <pt x="171" y="3" on="0"/>
        <pt x="112" y="2" on="1"/>
        <pt x="44" y="0" on="1"/>
        <pt x="35" y="0" on="1"/>
        <pt x="35" y="36" on="1"/>
        <pt x="35" y="72" on="1"/>
        <pt x="70" y="72" on="1"/>
        <pt x="104" y="72" on="1"/>
        <pt x="104" y="209" on="1"/>
        <pt x="104" y="348" on="0"/>
        <pt x="103" y="352" on="1"/>
        <pt x="99" y="364" on="0"/>
        <pt x="90" y="366" on="1"/>
        <pt x="76" y="370" on="0"/>
        <pt x="50" y="370" on="1"/>
        <pt x="38" y="370" on="1"/>
        <pt x="38" y="406" on="1"/>
        <pt x="38" y="442" on="1"/>
        <pt x="41" y="442" on="1"/>
      </contour>
    </TTGlyph>
    <TTGlyph name="idieresis" xMin="6" yMin="278" xMax="336" yMax="402">
      <contour>
        <pt x="164" y="376" on="1"/>
        <pt x="324" y="402" on="0"/>
        <pt x="322" y="402" on="1"/>
        <pt x="334" y="331" on="1"/>
        <pt x="336" y="331" on="0"/>
        <pt x="178" y="305" on="1"/>
        <pt x="18" y="279" on="0"/>
        <pt x="20" y="279" on="1"/>
        <pt x="17" y="278" on="1"/>
        <pt x="12" y="313" on="1"/>
        <pt x="6" y="347" on="0"/>
        <pt x="6" y="348" on="1"/>
        <pt x="6" y="350" on="0"/>
      </contour>
    </TTGlyph>
    <TTGlyph name="j" xMin="-80" yMin="-202" xMax="279" yMax="695">
      <contour>
        <pt x="174" y="694" on="1"/>
        <pt x="176" y="695" on="0"/>
        <pt x="192" y="695" on="1"/>
        <pt x="209" y="693" on="0"/>
        <pt x="214" y="692" on="1"/>
        <pt x="253" y="680" on="0"/>
        <pt x="270" y="646" on="1"/>
        <pt x="279" y="627" on="0"/>
        <pt x="279" y="609" on="1"/>
        <pt x="279" y="590" on="0"/>
        <pt x="270" y="572" on="1"/>
        <pt x="253" y="537" on="0"/>
        <pt x="214" y="525" on="1"/>
        <pt x="205" y="523" on="0"/>
        <pt x="189" y="523" on="1"/>
        <pt x="172" y="523" on="0"/>
        <pt x="164" y="525" on="1"/>
        <pt x="124" y="537" on="0"/>
        <pt x="107" y="572" on="1"/>
        <pt x="99" y="588" on="0"/>
        <pt x="99" y="609" on="1"/>
        <pt x="99" y="623" on="0"/>
        <pt x="100" y="629" on="1"/>
        <pt x="105" y="647" on="0"/>
        <pt x="118" y="663" on="1"/>
        <pt x="139" y="688" on="0"/>
      </contour>
      <contour>
        <pt x="172" y="446" on="1"/>
        <pt x="276" y="450" on="0"/>
        <pt x="273" y="450" on="1"/>
        <pt x="279" y="450" on="1"/>
        <pt x="279" y="192" on="1"/>
        <pt x="278" y="-70" on="0"/>
        <pt x="275" y="-79" on="1"/>
        <pt x="276" y="-77" on="0"/>
        <pt x="273" y="-86" on="1"/>
        <pt x="258" y="-132" on="0"/>
        <pt x="210" y="-161" on="1"/>
        <pt x="189" y="-174" on="0"/>
        <pt x="165" y="-182" on="1"/>
        <pt x="130" y="-196" on="0"/>
        <pt x="82" y="-199" on="1"/>
        <pt x="51" y="-202" on="0"/>
        <pt x="24" y="-198" on="1"/>
        <pt x="-49" y="-184" on="0"/>
        <pt x="-73" y="-133" on="1"/>
        <pt x="-80" y="-118" on="0"/>
        <pt x="-80" y="-96" on="1"/>
        <pt x="-80" y="-75" on="0"/>
        <pt x="-73" y="-60" on="1"/>
        <pt x="-59" y="-31" on="0"/>
        <pt x="-25" y="-23" on="1"/>
        <pt x="-6" y="-18" on="0"/>
        <pt x="13" y="-23" on="1"/>
        <pt x="47" y="-31" on="0"/>
        <pt x="61" y="-60" on="1"/>
        <pt x="68" y="-75" on="0"/>
        <pt x="68" y="-95" on="1"/>
        <pt x="68" y="-117" on="0"/>
        <pt x="61" y="-132" on="1"/>
        <pt x="57" y="-138" on="1"/>
        <pt x="63" y="-139" on="1"/>
        <pt x="78" y="-139" on="1"/>
        <pt x="122" y="-136" on="0"/>
        <pt x="140" y="-82" on="1"/>
        <pt x="145" y="-68" on="0"/>
        <pt x="146" y="-3" on="1"/>
        <pt x="146" y="29" on="0"/>
        <pt x="146" y="146" on="1"/>
        <pt x="146" y="352" on="1"/>
        <pt x="143" y="356" on="1"/>
        <pt x="137" y="367" on="0"/>
        <pt x="113" y="369" on="1"/>
        <pt x="105" y="370" on="0"/>
        <pt x="92" y="370" on="1"/>
        <pt x="70" y="370" on="1"/>
        <pt x="70" y="406" on="1"/>
        <pt x="70" y="442" on="1"/>
        <pt x="73" y="442" on="1"/>
      </contour>
    </TTGlyph>
    <TTGlyph name="k" xMin="22" yMin="0" xMax="587" yMax="694">
      <contour>
        <pt x="122" y="690" on="1"/>
        <pt x="222" y="694" on="0"/>
        <pt x="220" y="694" on="1"/>
        <pt x="226" y="694" on="1"/>
        <pt x="226" y="481" on="1"/>
        <pt x="227" y="268" on="1"/>
        <pt x="289" y="320" on="1"/>
        <pt x="352" y="372" on="1"/>
        <pt x="341" y="372" on="1"/>
        <pt x="331" y="372" on="1"/>
        <pt x="331" y="408" on="1"/>
        <pt x="331" y="444" on="1"/>
        <pt x="340" y="444" on="1"/>
        <pt x="412" y="442" on="1"/>
        <pt x="474" y="441" on="0"/>
        <pt x="512" y="442" on="1"/>
        <pt x="556" y="444" on="1"/>
        <pt x="562" y="444" on="1"/>
        <pt x="562" y="408" on="1"/>
        <pt x="562" y="372" on="1"/>
        <pt x="514" y="372" on="1"/>
        <pt x="465" y="372" on="1"/>
        <pt x="408" y="325" on="1"/>
        <pt x="352" y="277" on="1"/>
        <pt x="430" y="174" on="1"/>
        <pt x="508" y="72" on="1"/>
        <pt x="548" y="72" on="1"/>
        <pt x="587" y="72" on="1"/>
        <pt x="587" y="36" on="1"/>
        <pt x="587" y="0" on="1"/>
        <pt x="579" y="0" on="1"/>
        <pt x="522" y="2" on="1"/>
        <pt x="473" y="3" on="0"/>
        <pt x="412" y="2" on="1"/>
        <pt x="340" y="0" on="0"/>
        <pt x="341" y="0" on="1"/>
        <pt x="331" y="0" on="1"/>
        <pt x="331" y="36" on="1"/>
        <pt x="331" y="72" on="1"/>
        <pt x="342" y="72" on="1"/>
        <pt x="354" y="73" on="1"/>
        <pt x="305" y="136" on="1"/>
        <pt x="257" y="199" on="1"/>
        <pt x="255" y="197" on="1"/>
        <pt x="250" y="195" on="0"/>
        <pt x="237" y="183" on="1"/>
        <pt x="221" y="170" on="1"/>
        <pt x="221" y="121" on="1"/>
        <pt x="221" y="72" on="1"/>
        <pt x="256" y="72" on="1"/>
        <pt x="290" y="72" on="1"/>
        <pt x="290" y="36" on="1"/>
        <pt x="290" y="0" on="1"/>
        <pt x="281" y="0" on="1"/>
        <pt x="215" y="2" on="1"/>
        <pt x="157" y="3" on="0"/>
        <pt x="99" y="2" on="1"/>
        <pt x="34" y="0" on="0"/>
        <pt x="33" y="0" on="1"/>
        <pt x="24" y="0" on="1"/>
        <pt x="24" y="36" on="1"/>
        <pt x="24" y="72" on="1"/>
        <pt x="59" y="72" on="1"/>
        <pt x="93" y="72" on="1"/>
        <pt x="93" y="332" on="1"/>
        <pt x="93" y="592" on="0"/>
        <pt x="91" y="597" on="1"/>
        <pt x="88" y="607" on="0"/>
        <pt x="78" y="610" on="1"/>
        <pt x="64" y="614" on="0"/>
        <pt x="37" y="614" on="1"/>
        <pt x="24" y="614" on="1"/>
        <pt x="24" y="650" on="1"/>
        <pt x="24" y="686" on="1"/>
        <pt x="27" y="686" on="1"/>
        <pt x="22" y="686" on="0"/>
      </contour>
    </TTGlyph>
    <TTGlyph name="l" xMin="33" yMin="0" xMax="306" yMax="694">
      <contour>
        <pt x="133" y="690" on="1"/>
        <pt x="233" y="694" on="0"/>
        <pt x="231" y="694" on="1"/>
        <pt x="237" y="694" on="1"/>
        <pt x="237" y="383" on="1"/>
        <pt x="237" y="72" on="1"/>
        <pt x="272" y="72" on="1"/>
        <pt x="306" y="72" on="1"/>
        <pt x="306" y="36" on="1"/>
        <pt x="306" y="0" on="1"/>
        <pt x="297" y="0" on="1"/>
        <pt x="229" y="2" on="1"/>
        <pt x="170" y="3" on="0"/>
        <pt x="112" y="2" on="1"/>
        <pt x="44" y="0" on="1"/>
        <pt x="35" y="0" on="1"/>
        <pt x="35" y="36" on="1"/>
        <pt x="35" y="72" on="1"/>
        <pt x="70" y="72" on="1"/>
        <pt x="104" y="72" on="1"/>
        <pt x="104" y="332" on="1"/>
        <pt x="104" y="592" on="0"/>
        <pt x="102" y="597" on="1"/>
        <pt x="99" y="607" on="0"/>
        <pt x="89" y="610" on="1"/>
        <pt x="75" y="614" on="0"/>
        <pt x="48" y="614" on="1"/>
        <pt x="35" y="614" on="1"/>
        <pt x="35" y="650" on="1"/>
        <pt x="35" y="686" on="1"/>
        <pt x="38" y="686" on="1"/>
        <pt x="33" y="686" on="0"/>
      </contour>
    </TTGlyph>
    <TTGlyph name="less" xMin="81" yMin="-208" xMax="268" yMax="503">
      <contour>
        <pt x="158" y="499" on="1"/>
        <pt x="175" y="503" on="0"/>
        <pt x="197" y="497" on="1"/>
        <pt x="241" y="486" on="0"/>
        <pt x="258" y="443" on="1"/>
        <pt x="261" y="438" on="0"/>
        <pt x="262" y="432" on="1"/>
        <pt x="268" y="410" on="0"/>
        <pt x="262" y="387" on="1"/>
        <pt x="250" y="341" on="0"/>
        <pt x="206" y="325" on="1"/>
        <pt x="201" y="323" on="0"/>
        <pt x="197" y="322" on="1"/>
        <pt x="174" y="316" on="0"/>
        <pt x="152" y="322" on="1"/>
        <pt x="106" y="334" on="0"/>
        <pt x="90" y="378" on="1"/>
        <pt x="88" y="383" on="0"/>
        <pt x="87" y="387" on="1"/>
        <pt x="81" y="410" on="0"/>
        <pt x="87" y="432" on="1"/>
        <pt x="95" y="462" on="0"/>
        <pt x="117" y="479" on="1"/>
        <pt x="134" y="493" on="0"/>
      </contour>
      <contour>
        <pt x="145" y="253" on="1"/>
        <pt x="148" y="255" on="0"/>
        <pt x="174" y="255" on="1"/>
        <pt x="201" y="255" on="0"/>
        <pt x="203" y="254" on="1"/>
        <pt x="208" y="251" on="0"/>
        <pt x="212" y="231" on="1"/>
        <pt x="215" y="213" on="0"/>
        <pt x="238" y="66" on="1"/>
        <pt x="267" y="-124" on="0"/>
        <pt x="265" y="-136" on="1"/>
        <pt x="265" y="-138" on="0"/>
        <pt x="263" y="-144" on="1"/>
        <pt x="249" y="-188" on="0"/>
        <pt x="199" y="-202" on="1"/>
        <pt x="174" y="-208" on="0"/>
        <pt x="151" y="-202" on="1"/>
        <pt x="102" y="-190" on="0"/>
        <pt x="86" y="-144" on="1"/>
        <pt x="82" y="-129" on="0"/>
        <pt x="88" y="-83" on="1"/>
        <pt x="92" y="-57" on="0"/>
        <pt x="111" y="66" on="1"/>
        <pt x="140" y="248" on="0"/>
        <pt x="141" y="249" on="1"/>
      </contour>
    </TTGlyph>
    <TTGlyph name="m" xMin="30" yMin="0" xMax="947" yMax="452">
      <contour>
        <pt x="128" y="446" on="1"/>
        <pt x="226" y="450" on="0"/>
        <pt x="223" y="450" on="1"/>
        <pt x="229" y="450" on="1"/>
        <pt x="229" y="413" on="1"/>
        <pt x="229" y="376" on="1"/>
        <pt x="237" y="384" on="1"/>
        <pt x="262" y="410" on="0"/>
        <pt x="297" y="426" on="1"/>
        <pt x="326" y="442" on="0"/>
        <pt x="365" y="448" on="1"/>
        <pt x="395" y="452" on="0"/>
        <pt x="440" y="448" on="1"/>
        <pt x="443" y="448" on="0"/>
        <pt x="445" y="448" on="1"/>
        <pt x="478" y="444" on="0"/>
        <pt x="502" y="430" on="1"/>
        <pt x="532" y="413" on="0"/>
        <pt x="545" y="383" on="1"/>
        <pt x="548" y="376" on="1"/>
        <pt x="556" y="384" on="1"/>
        <pt x="582" y="410" on="0"/>
        <pt x="616" y="426" on="1"/>
        <pt x="645" y="442" on="0"/>
        <pt x="684" y="448" on="1"/>
        <pt x="709" y="452" on="0"/>
        <pt x="753" y="449" on="1"/>
        <pt x="757" y="448" on="0"/>
        <pt x="760" y="448" on="1"/>
        <pt x="790" y="445" on="0"/>
        <pt x="814" y="434" on="1"/>
        <pt x="864" y="409" on="0"/>
        <pt x="875" y="346" on="1"/>
        <pt x="877" y="335" on="0"/>
        <pt x="878" y="203" on="1"/>
        <pt x="878" y="72" on="1"/>
        <pt x="913" y="72" on="1"/>
        <pt x="947" y="72" on="1"/>
        <pt x="947" y="36" on="1"/>
        <pt x="947" y="0" on="1"/>
        <pt x="938" y="0" on="1"/>
        <pt x="939" y="0" on="0"/>
        <pt x="869" y="2" on="1"/>
        <pt x="809" y="3" on="0"/>
        <pt x="749" y="2" on="1"/>
        <pt x="679" y="0" on="1"/>
        <pt x="670" y="0" on="1"/>
        <pt x="670" y="36" on="1"/>
        <pt x="670" y="72" on="1"/>
        <pt x="705" y="72" on="1"/>
        <pt x="739" y="72" on="1"/>
        <pt x="739" y="197" on="1"/>
        <pt x="739" y="327" on="0"/>
        <pt x="738" y="333" on="1"/>
        <pt x="733" y="384" on="0"/>
        <pt x="695" y="389" on="1"/>
        <pt x="688" y="389" on="0"/>
        <pt x="679" y="389" on="1"/>
        <pt x="631" y="386" on="0"/>
        <pt x="597" y="352" on="1"/>
        <pt x="573" y="328" on="0"/>
        <pt x="565" y="299" on="1"/>
        <pt x="559" y="282" on="0"/>
        <pt x="559" y="213" on="1"/>
        <pt x="559" y="201" on="0"/>
        <pt x="559" y="171" on="1"/>
        <pt x="559" y="72" on="1"/>
        <pt x="594" y="72" on="1"/>
        <pt x="628" y="72" on="1"/>
        <pt x="628" y="36" on="1"/>
        <pt x="628" y="0" on="1"/>
        <pt x="619" y="0" on="1"/>
        <pt x="549" y="2" on="1"/>
        <pt x="489" y="3" on="0"/>
        <pt x="429" y="2" on="1"/>
        <pt x="359" y="0" on="0"/>
        <pt x="360" y="0" on="1"/>
        <pt x="351" y="0" on="1"/>
        <pt x="351" y="36" on="1"/>
        <pt x="351" y="72" on="1"/>
        <pt x="386" y="72" on="1"/>
        <pt x="420" y="72" on="1"/>
        <pt x="420" y="197" on="1"/>
        <pt x="420" y="327" on="0"/>
        <pt x="419" y="333" on="1"/>
        <pt x="414" y="384" on="0"/>
        <pt x="376" y="389" on="1"/>
        <pt x="369" y="389" on="0"/>
        <pt x="360" y="389" on="1"/>
        <pt x="312" y="386" on="0"/>
        <pt x="278" y="352" on="1"/>
        <pt x="254" y="328" on="0"/>
        <pt x="246" y="299" on="1"/>
        <pt x="240" y="282" on="0"/>
        <pt x="240" y="213" on="1"/>
        <pt x="240" y="201" on="0"/>
        <pt x="240" y="171" on="1"/>
        <pt x="240" y="72" on="1"/>
        <pt x="275" y="72" on="1"/>
        <pt x="309" y="72" on="1"/>
        <pt x="309" y="36" on="1"/>
        <pt x="309" y="0" on="1"/>
        <pt x="300" y="0" on="1"/>
        <pt x="230" y="2" on="1"/>
        <pt x="170" y="3" on="0"/>
        <pt x="110" y="2" on="1"/>
        <pt x="40" y="0" on="0"/>
        <pt x="41" y="0" on="1"/>
        <pt x="32" y="0" on="1"/>
        <pt x="32" y="36" on="1"/>
        <pt x="32" y="72" on="1"/>
        <pt x="67" y="72" on="1"/>
        <pt x="101" y="72" on="1"/>
        <pt x="101" y="210" on="1"/>
        <pt x="101" y="348" on="0"/>
        <pt x="99" y="353" on="1"/>
        <pt x="96" y="363" on="0"/>
        <pt x="86" y="366" on="1"/>
        <pt x="72" y="370" on="0"/>
        <pt x="45" y="370" on="1"/>
        <pt x="32" y="370" on="1"/>
        <pt x="32" y="406" on="1"/>
        <pt x="32" y="442" on="1"/>
        <pt x="35" y="442" on="1"/>
        <pt x="30" y="442" on="0"/>
      </contour>
    </TTGlyph>
    <TTGlyph name="n" xMin="30" yMin="0" xMax="628" yMax="452">
      <contour>
        <pt x="128" y="446" on="1"/>
        <pt x="226" y="450" on="0"/>
        <pt x="223" y="450" on="1"/>
        <pt x="229" y="450" on="1"/>
        <pt x="229" y="413" on="1"/>
        <pt x="229" y="376" on="1"/>
        <pt x="237" y="384" on="1"/>
        <pt x="262" y="410" on="0"/>
        <pt x="297" y="426" on="1"/>
        <pt x="326" y="442" on="0"/>
        <pt x="365" y="448" on="1"/>
        <pt x="390" y="452" on="0"/>
        <pt x="434" y="449" on="1"/>
        <pt x="438" y="448" on="0"/>
        <pt x="441" y="448" on="1"/>
        <pt x="518" y="439" on="0"/>
        <pt x="545" y="383" on="1"/>
        <pt x="551" y="371" on="0"/>
        <pt x="556" y="346" on="1"/>
        <pt x="558" y="335" on="0"/>
        <pt x="559" y="203" on="1"/>
        <pt x="559" y="72" on="1"/>
        <pt x="594" y="72" on="1"/>
        <pt x="628" y="72" on="1"/>
        <pt x="628" y="36" on="1"/>
        <pt x="628" y="0" on="1"/>
        <pt x="619" y="0" on="1"/>
        <pt x="549" y="2" on="1"/>
        <pt x="489" y="3" on="0"/>
        <pt x="429" y="2" on="1"/>
        <pt x="359" y="0" on="0"/>
        <pt x="360" y="0" on="1"/>
        <pt x="351" y="0" on="1"/>
        <pt x="351" y="36" on="1"/>
        <pt x="351" y="72" on="1"/>
        <pt x="386" y="72" on="1"/>
        <pt x="420" y="72" on="1"/>
        <pt x="420" y="197" on="1"/>
        <pt x="420" y="327" on="0"/>
        <pt x="419" y="333" on="1"/>
        <pt x="414" y="384" on="0"/>
        <pt x="376" y="389" on="1"/>
        <pt x="369" y="389" on="0"/>
        <pt x="360" y="389" on="1"/>
        <pt x="312" y="386" on="0"/>
        <pt x="278" y="352" on="1"/>
        <pt x="254" y="328" on="0"/>
        <pt x="246" y="299" on="1"/>
        <pt x="240" y="282" on="0"/>
        <pt x="240" y="213" on="1"/>
        <pt x="240" y="201" on="0"/>
        <pt x="240" y="171" on="1"/>
        <pt x="240" y="72" on="1"/>
        <pt x="275" y="72" on="1"/>
        <pt x="309" y="72" on="1"/>
        <pt x="309" y="36" on="1"/>
        <pt x="309" y="0" on="1"/>
        <pt x="300" y="0" on="1"/>
        <pt x="230" y="2" on="1"/>
        <pt x="170" y="3" on="0"/>
        <pt x="110" y="2" on="1"/>
        <pt x="40" y="0" on="0"/>
        <pt x="41" y="0" on="1"/>
        <pt x="32" y="0" on="1"/>
        <pt x="32" y="36" on="1"/>
        <pt x="32" y="72" on="1"/>
        <pt x="67" y="72" on="1"/>
        <pt x="101" y="72" on="1"/>
        <pt x="101" y="210" on="1"/>
        <pt x="101" y="348" on="0"/>
        <pt x="99" y="353" on="1"/>
        <pt x="96" y="363" on="0"/>
        <pt x="86" y="366" on="1"/>
        <pt x="72" y="370" on="0"/>
        <pt x="45" y="370" on="1"/>
        <pt x="32" y="370" on="1"/>
        <pt x="32" y="406" on="1"/>
        <pt x="32" y="442" on="1"/>
        <pt x="35" y="442" on="1"/>
        <pt x="30" y="442" on="0"/>
      </contour>
    </TTGlyph>
    <TTGlyph name="nine" xMin="45" yMin="-11" xMax="529" yMax="656">
      <contour>
        <pt x="259" y="654" on="1"/>
        <pt x="292" y="656" on="0"/>
        <pt x="329" y="653" on="1"/>
        <pt x="472" y="629" on="0"/>
        <pt x="511" y="470" on="1"/>
        <pt x="522" y="425" on="0"/>
        <pt x="525" y="368" on="1"/>
        <pt x="529" y="317" on="0"/>
        <pt x="524" y="271" on="1"/>
        <pt x="515" y="194" on="0"/>
        <pt x="486" y="139" on="1"/>
        <pt x="471" y="108" on="0"/>
        <pt x="454" y="88" on="1"/>
        <pt x="386" y="3" on="0"/>
        <pt x="271" y="-9" on="1"/>
        <pt x="255" y="-11" on="0"/>
        <pt x="240" y="-11" on="1"/>
        <pt x="132" y="-11" on="0"/>
        <pt x="93" y="60" on="1"/>
        <pt x="79" y="87" on="0"/>
        <pt x="77" y="120" on="1"/>
        <pt x="76" y="147" on="0"/>
        <pt x="87" y="168" on="1"/>
        <pt x="96" y="185" on="0"/>
        <pt x="115" y="194" on="1"/>
        <pt x="131" y="202" on="0"/>
        <pt x="173" y="202" on="0"/>
        <pt x="189" y="194" on="1"/>
        <pt x="208" y="185" on="0"/>
        <pt x="217" y="168" on="1"/>
        <pt x="236" y="134" on="0"/>
        <pt x="221" y="95" on="1"/>
        <pt x="219" y="91" on="0"/>
        <pt x="217" y="88" on="1"/>
        <pt x="207" y="72" on="0"/>
        <pt x="196" y="66" on="1"/>
        <pt x="193" y="64" on="1"/>
        <pt x="200" y="62" on="1"/>
        <pt x="210" y="60" on="0"/>
        <pt x="219" y="58" on="1"/>
        <pt x="293" y="49" on="0"/>
        <pt x="335" y="102" on="1"/>
        <pt x="338" y="106" on="0"/>
        <pt x="341" y="110" on="1"/>
        <pt x="359" y="138" on="0"/>
        <pt x="364" y="239" on="1"/>
        <pt x="364" y="245" on="0"/>
        <pt x="364" y="251" on="1"/>
        <pt x="365" y="264" on="1"/>
        <pt x="358" y="256" on="1"/>
        <pt x="333" y="231" on="0"/>
        <pt x="303" y="221" on="1"/>
        <pt x="286" y="215" on="0"/>
        <pt x="257" y="215" on="1"/>
        <pt x="173" y="215" on="0"/>
        <pt x="119" y="263" on="1"/>
        <pt x="115" y="266" on="0"/>
        <pt x="111" y="270" on="1"/>
        <pt x="91" y="290" on="0"/>
        <pt x="80" y="307" on="1"/>
        <pt x="51" y="353" on="0"/>
        <pt x="48" y="423" on="1"/>
        <pt x="45" y="520" on="0"/>
        <pt x="98" y="576" on="1"/>
        <pt x="100" y="579" on="0"/>
        <pt x="102" y="581" on="1"/>
        <pt x="139" y="621" on="0"/>
        <pt x="185" y="638" on="1"/>
        <pt x="215" y="651" on="0"/>
      </contour>
      <contour>
        <pt x="314" y="588" on="1"/>
        <pt x="308" y="590" on="0"/>
        <pt x="293" y="591" on="1"/>
        <pt x="278" y="591" on="0"/>
        <pt x="277" y="590" on="1"/>
        <pt x="270" y="590" on="0"/>
        <pt x="266" y="589" on="1"/>
        <pt x="252" y="588" on="0"/>
        <pt x="237" y="579" on="1"/>
        <pt x="224" y="571" on="0"/>
        <pt x="216" y="556" on="1"/>
        <pt x="209" y="541" on="0"/>
        <pt x="209" y="404" on="1"/>
        <pt x="210" y="312" on="0"/>
        <pt x="215" y="305" on="1"/>
        <pt x="224" y="290" on="0"/>
        <pt x="237" y="284" on="1"/>
        <pt x="251" y="277" on="0"/>
        <pt x="274" y="276" on="1"/>
        <pt x="295" y="276" on="0"/>
        <pt x="309" y="282" on="1"/>
        <pt x="354" y="303" on="0"/>
        <pt x="363" y="397" on="1"/>
        <pt x="366" y="419" on="0"/>
        <pt x="364" y="507" on="1"/>
        <pt x="364" y="519" on="0"/>
        <pt x="363" y="525" on="1"/>
        <pt x="362" y="549" on="0"/>
        <pt x="342" y="570" on="1"/>
        <pt x="331" y="581" on="0"/>
      </contour>
    </TTGlyph>
    <TTGlyph name="numbersign" xMin="58" yMin="-201" xMax="893" yMax="697">
      <contour>
        <pt x="468" y="692" on="1"/>
        <pt x="479" y="697" on="0"/>
        <pt x="491" y="691" on="1"/>
        <pt x="508" y="684" on="0"/>
        <pt x="509" y="664" on="1"/>
        <pt x="509" y="656" on="0"/>
        <pt x="427" y="394" on="1"/>
        <pt x="427" y="392" on="0"/>
        <pt x="523" y="392" on="1"/>
        <pt x="620" y="392" on="1"/>
        <pt x="624" y="405" on="1"/>
        <pt x="668" y="547" on="1"/>
        <pt x="707" y="676" on="0"/>
        <pt x="709" y="678" on="1"/>
        <pt x="713" y="687" on="0"/>
        <pt x="723" y="691" on="1"/>
        <pt x="734" y="697" on="0"/>
        <pt x="748" y="691" on="1"/>
        <pt x="765" y="684" on="0"/>
        <pt x="766" y="664" on="1"/>
        <pt x="766" y="654" on="0"/>
        <pt x="684" y="394" on="1"/>
        <pt x="684" y="392" on="0"/>
        <pt x="777" y="392" on="1"/>
        <pt x="871" y="392" on="1"/>
        <pt x="875" y="389" on="1"/>
        <pt x="893" y="382" on="0"/>
        <pt x="893" y="361" on="1"/>
        <pt x="893" y="342" on="0"/>
        <pt x="875" y="334" on="1"/>
        <pt x="871" y="332" on="1"/>
        <pt x="767" y="331" on="1"/>
        <pt x="664" y="331" on="1"/>
        <pt x="660" y="318" on="1"/>
        <pt x="658" y="311" on="0"/>
        <pt x="636" y="239" on="1"/>
        <pt x="613" y="169" on="0"/>
        <pt x="614" y="170" on="1"/>
        <pt x="614" y="168" on="0"/>
        <pt x="742" y="168" on="1"/>
        <pt x="871" y="168" on="1"/>
        <pt x="875" y="165" on="1"/>
        <pt x="893" y="157" on="0"/>
        <pt x="893" y="138" on="1"/>
        <pt x="893" y="117" on="0"/>
        <pt x="875" y="110" on="1"/>
        <pt x="871" y="108" on="1"/>
        <pt x="732" y="107" on="1"/>
        <pt x="594" y="107" on="1"/>
        <pt x="591" y="96" on="1"/>
        <pt x="584" y="74" on="0"/>
        <pt x="547" y="-46" on="1"/>
        <pt x="507" y="-177" on="0"/>
        <pt x="503" y="-181" on="1"/>
        <pt x="491" y="-201" on="0"/>
        <pt x="468" y="-192" on="1"/>
        <pt x="462" y="-190" on="0"/>
        <pt x="457" y="-185" on="1"/>
        <pt x="448" y="-176" on="0"/>
        <pt x="448" y="-162" on="1"/>
        <pt x="452" y="-143" on="0"/>
        <pt x="530" y="105" on="1"/>
        <pt x="530" y="107" on="0"/>
        <pt x="434" y="107" on="1"/>
        <pt x="337" y="107" on="1"/>
        <pt x="334" y="96" on="1"/>
        <pt x="327" y="74" on="0"/>
        <pt x="290" y="-46" on="1"/>
        <pt x="250" y="-177" on="0"/>
        <pt x="246" y="-181" on="1"/>
        <pt x="234" y="-201" on="0"/>
        <pt x="211" y="-192" on="1"/>
        <pt x="205" y="-190" on="0"/>
        <pt x="200" y="-185" on="1"/>
        <pt x="191" y="-176" on="0"/>
        <pt x="191" y="-162" on="1"/>
        <pt x="195" y="-143" on="0"/>
        <pt x="273" y="105" on="1"/>
        <pt x="273" y="107" on="0"/>
        <pt x="180" y="107" on="1"/>
        <pt x="87" y="108" on="1"/>
        <pt x="82" y="110" on="1"/>
        <pt x="71" y="115" on="0"/>
        <pt x="66" y="127" on="1"/>
        <pt x="58" y="150" on="0"/>
        <pt x="80" y="164" on="1"/>
        <pt x="87" y="168" on="1"/>
        <pt x="190" y="168" on="1"/>
        <pt x="293" y="168" on="1"/>
        <pt x="297" y="181" on="1"/>
        <pt x="321" y="261" on="1"/>
        <pt x="344" y="330" on="0"/>
        <pt x="343" y="329" on="1"/>
        <pt x="343" y="331" on="0"/>
        <pt x="215" y="331" on="1"/>
        <pt x="87" y="332" on="1"/>
        <pt x="80" y="335" on="1"/>
        <pt x="59" y="346" on="0"/>
        <pt x="66" y="372" on="1"/>
        <pt x="71" y="384" on="0"/>
        <pt x="82" y="389" on="1"/>
        <pt x="87" y="392" on="1"/>
        <pt x="225" y="392" on="1"/>
        <pt x="363" y="392" on="1"/>
        <pt x="366" y="402" on="1"/>
        <pt x="410" y="544" on="1"/>
        <pt x="450" y="677" on="0"/>
        <pt x="453" y="681" on="1"/>
        <pt x="460" y="689" on="0"/>
      </contour>
      <contour>
        <pt x="600" y="329" on="1"/>
        <pt x="600" y="331" on="0"/>
        <pt x="504" y="331" on="1"/>
        <pt x="407" y="331" on="1"/>
        <pt x="403" y="318" on="1"/>
        <pt x="401" y="311" on="0"/>
        <pt x="379" y="239" on="1"/>
        <pt x="356" y="169" on="0"/>
        <pt x="357" y="170" on="1"/>
        <pt x="357" y="168" on="0"/>
        <pt x="453" y="168" on="1"/>
        <pt x="550" y="168" on="1"/>
        <pt x="554" y="181" on="1"/>
        <pt x="578" y="261" on="1"/>
        <pt x="601" y="330" on="0"/>
      </contour>
    </TTGlyph>
    <TTGlyph name="o" xMin="18" yMin="-5" xMax="544" yMax="452">
      <contour>
        <pt x="265" y="452" on="1"/>
        <pt x="326" y="451" on="1"/>
        <pt x="474" y="434" on="0"/>
        <pt x="523" y="315" on="1"/>
        <pt x="526" y="308" on="0"/>
        <pt x="529" y="300" on="1"/>
        <pt x="541" y="264" on="0"/>
        <pt x="542" y="226" on="1"/>
        <pt x="544" y="146" on="0"/>
        <pt x="502" y="88" on="1"/>
        <pt x="480" y="55" on="0"/>
        <pt x="442" y="33" on="1"/>
        <pt x="417" y="16" on="0"/>
        <pt x="373" y="4" on="1"/>
        <pt x="337" y="-5" on="0"/>
        <pt x="237" y="-5" on="0"/>
        <pt x="201" y="4" on="1"/>
        <pt x="157" y="16" on="0"/>
        <pt x="132" y="33" on="1"/>
        <pt x="94" y="55" on="0"/>
        <pt x="72" y="88" on="1"/>
        <pt x="46" y="125" on="0"/>
        <pt x="36" y="174" on="1"/>
        <pt x="18" y="271" on="0"/>
        <pt x="70" y="351" on="1"/>
        <pt x="76" y="362" on="0"/>
        <pt x="84" y="371" on="1"/>
        <pt x="142" y="440" on="0"/>
        <pt x="250" y="451" on="1"/>
        <pt x="256" y="452" on="0"/>
      </contour>
      <contour>
        <pt x="317" y="389" on="1"/>
        <pt x="293" y="393" on="0"/>
        <pt x="268" y="391" on="1"/>
        <pt x="229" y="385" on="0"/>
        <pt x="211" y="367" on="1"/>
        <pt x="191" y="349" on="0"/>
        <pt x="187" y="307" on="1"/>
        <pt x="185" y="286" on="0"/>
        <pt x="185" y="245" on="1"/>
        <pt x="184" y="139" on="0"/>
        <pt x="195" y="108" on="1"/>
        <pt x="209" y="72" on="0"/>
        <pt x="260" y="61" on="1"/>
        <pt x="283" y="57" on="0"/>
        <pt x="314" y="61" on="1"/>
        <pt x="345" y="67" on="0"/>
        <pt x="362" y="84" on="1"/>
        <pt x="382" y="103" on="0"/>
        <pt x="386" y="149" on="1"/>
        <pt x="387" y="160" on="0"/>
        <pt x="388" y="174" on="1"/>
        <pt x="387" y="299" on="1"/>
        <pt x="387" y="302" on="0"/>
        <pt x="387" y="303" on="1"/>
        <pt x="382" y="349" on="0"/>
        <pt x="363" y="367" on="1"/>
        <pt x="347" y="383" on="0"/>
      </contour>
    </TTGlyph>
    <TTGlyph name="one" xMin="80" yMin="0" xMax="494" yMax="655">
      <contour>
        <pt x="319" y="654" on="1"/>
        <pt x="320" y="655" on="0"/>
        <pt x="336" y="655" on="1"/>
        <pt x="359" y="655" on="0"/>
        <pt x="364" y="644" on="1"/>
        <pt x="366" y="640" on="0"/>
        <pt x="366" y="356" on="1"/>
        <pt x="366" y="72" on="1"/>
        <pt x="430" y="72" on="1"/>
        <pt x="494" y="72" on="1"/>
        <pt x="494" y="36" on="1"/>
        <pt x="494" y="0" on="1"/>
        <pt x="481" y="0" on="1"/>
        <pt x="381" y="2" on="1"/>
        <pt x="294" y="3" on="0"/>
        <pt x="208" y="2" on="1"/>
        <pt x="108" y="0" on="0"/>
        <pt x="109" y="0" on="1"/>
        <pt x="96" y="0" on="1"/>
        <pt x="96" y="36" on="1"/>
        <pt x="96" y="72" on="1"/>
        <pt x="159" y="72" on="1"/>
        <pt x="222" y="72" on="1"/>
        <pt x="222" y="303" on="1"/>
        <pt x="222" y="534" on="1"/>
        <pt x="211" y="532" on="1"/>
        <pt x="159" y="519" on="0"/>
        <pt x="97" y="519" on="1"/>
        <pt x="80" y="519" on="1"/>
        <pt x="80" y="555" on="1"/>
        <pt x="80" y="591" on="1"/>
        <pt x="97" y="591" on="1"/>
        <pt x="209" y="591" on="0"/>
        <pt x="282" y="630" on="1"/>
        <pt x="306" y="641" on="0"/>
      </contour>
    </TTGlyph>
    <TTGlyph name="p" xMin="22" yMin="-194" xMax="601" yMax="450">
      <contour>
        <pt x="122" y="446" on="1"/>
        <pt x="222" y="450" on="0"/>
        <pt x="220" y="450" on="1"/>
        <pt x="226" y="450" on="1"/>
        <pt x="226" y="432" on="1"/>
        <pt x="226" y="413" on="1"/>
        <pt x="238" y="419" on="1"/>
        <pt x="285" y="440" on="0"/>
        <pt x="350" y="448" on="1"/>
        <pt x="360" y="449" on="0"/>
        <pt x="392" y="449" on="1"/>
        <pt x="431" y="449" on="0"/>
        <pt x="457" y="441" on="1"/>
        <pt x="548" y="415" on="0"/>
        <pt x="584" y="322" on="1"/>
        <pt x="596" y="285" on="0"/>
        <pt x="599" y="247" on="1"/>
        <pt x="601" y="212" on="0"/>
        <pt x="598" y="184" on="1"/>
        <pt x="584" y="93" on="0"/>
        <pt x="521" y="43" on="1"/>
        <pt x="477" y="8" on="0"/>
        <pt x="410" y="-3" on="1"/>
        <pt x="375" y="-8" on="0"/>
        <pt x="331" y="-4" on="1"/>
        <pt x="275" y="6" on="0"/>
        <pt x="237" y="29" on="1"/>
        <pt x="232" y="31" on="1"/>
        <pt x="232" y="-45" on="1"/>
        <pt x="232" y="-122" on="1"/>
        <pt x="267" y="-122" on="1"/>
        <pt x="301" y="-122" on="1"/>
        <pt x="301" y="-158" on="1"/>
        <pt x="301" y="-194" on="1"/>
        <pt x="292" y="-194" on="1"/>
        <pt x="222" y="-192" on="1"/>
        <pt x="162" y="-191" on="0"/>
        <pt x="102" y="-192" on="1"/>
        <pt x="32" y="-194" on="0"/>
        <pt x="33" y="-194" on="1"/>
        <pt x="24" y="-194" on="1"/>
        <pt x="24" y="-158" on="1"/>
        <pt x="24" y="-122" on="1"/>
        <pt x="59" y="-122" on="1"/>
        <pt x="93" y="-122" on="1"/>
        <pt x="93" y="113" on="1"/>
        <pt x="93" y="348" on="0"/>
        <pt x="91" y="353" on="1"/>
        <pt x="88" y="363" on="0"/>
        <pt x="78" y="366" on="1"/>
        <pt x="64" y="370" on="0"/>
        <pt x="37" y="370" on="1"/>
        <pt x="24" y="370" on="1"/>
        <pt x="24" y="406" on="1"/>
        <pt x="24" y="442" on="1"/>
        <pt x="27" y="442" on="1"/>
        <pt x="22" y="442" on="0"/>
      </contour>
      <contour>
        <pt x="371" y="382" on="1"/>
        <pt x="367" y="383" on="0"/>
        <pt x="351" y="385" on="1"/>
        <pt x="288" y="387" on="0"/>
        <pt x="238" y="348" on="1"/>
        <pt x="232" y="343" on="1"/>
        <pt x="232" y="225" on="1"/>
        <pt x="232" y="107" on="1"/>
        <pt x="243" y="96" on="1"/>
        <pt x="276" y="63" on="0"/>
        <pt x="319" y="57" on="1"/>
        <pt x="352" y="52" on="0"/>
        <pt x="379" y="65" on="1"/>
        <pt x="434" y="93" on="0"/>
        <pt x="445" y="186" on="1"/>
        <pt x="449" y="216" on="0"/>
        <pt x="446" y="258" on="1"/>
        <pt x="445" y="262" on="0"/>
        <pt x="445" y="264" on="1"/>
        <pt x="439" y="304" on="0"/>
        <pt x="425" y="332" on="1"/>
        <pt x="417" y="349" on="0"/>
        <pt x="402" y="364" on="1"/>
        <pt x="386" y="377" on="0"/>
      </contour>
    </TTGlyph>
    <TTGlyph name="parenleft" xMin="81" yMin="-251" xMax="387" yMax="750">
      <contour>
        <pt x="325" y="746" on="1"/>
        <pt x="331" y="750" on="1"/>
        <pt x="351" y="750" on="1"/>
        <pt x="372" y="750" on="0"/>
        <pt x="375" y="748" on="1"/>
        <pt x="382" y="744" on="0"/>
        <pt x="382" y="736" on="1"/>
        <pt x="382" y="730" on="0"/>
        <pt x="368" y="715" on="1"/>
        <pt x="258" y="602" on="0"/>
        <pt x="230" y="401" on="1"/>
        <pt x="208" y="250" on="0"/>
        <pt x="230" y="98" on="1"/>
        <pt x="259" y="-106" on="0"/>
        <pt x="370" y="-218" on="1"/>
        <pt x="377" y="-225" on="0"/>
        <pt x="380" y="-231" on="1"/>
        <pt x="387" y="-241" on="0"/>
        <pt x="375" y="-249" on="1"/>
        <pt x="372" y="-251" on="0"/>
        <pt x="351" y="-251" on="1"/>
        <pt x="331" y="-251" on="1"/>
        <pt x="325" y="-247" on="1"/>
        <pt x="318" y="-242" on="0"/>
        <pt x="308" y="-234" on="1"/>
        <pt x="220" y="-163" on="0"/>
        <pt x="166" y="-57" on="1"/>
        <pt x="81" y="112" on="0"/>
        <pt x="100" y="319" on="1"/>
        <pt x="115" y="474" on="0"/>
        <pt x="186" y="592" on="1"/>
        <pt x="234" y="673" on="0"/>
        <pt x="308" y="733" on="1"/>
        <pt x="318" y="741" on="0"/>
      </contour>
    </TTGlyph>
    <TTGlyph name="parenright" xMin="61" yMin="-251" xMax="355" yMax="750">
      <contour>
        <pt x="72" y="749" on="1"/>
        <pt x="75" y="750" on="0"/>
        <pt x="95" y="750" on="1"/>
        <pt x="115" y="750" on="1"/>
        <pt x="121" y="746" on="1"/>
        <pt x="128" y="741" on="0"/>
        <pt x="138" y="733" on="1"/>
        <pt x="212" y="673" on="0"/>
        <pt x="260" y="592" on="1"/>
        <pt x="355" y="435" on="0"/>
        <pt x="349" y="227" on="1"/>
        <pt x="344" y="70" on="0"/>
        <pt x="280" y="-57" on="1"/>
        <pt x="226" y="-163" on="0"/>
        <pt x="138" y="-234" on="1"/>
        <pt x="128" y="-242" on="0"/>
        <pt x="121" y="-247" on="1"/>
        <pt x="115" y="-251" on="1"/>
        <pt x="95" y="-251" on="1"/>
        <pt x="72" y="-251" on="0"/>
        <pt x="67" y="-246" on="1"/>
        <pt x="63" y="-241" on="0"/>
        <pt x="65" y="-233" on="1"/>
        <pt x="66" y="-229" on="0"/>
        <pt x="77" y="-217" on="1"/>
        <pt x="128" y="-163" on="0"/>
        <pt x="159" y="-97" on="1"/>
        <pt x="207" y="1" on="0"/>
        <pt x="220" y="130" on="1"/>
        <pt x="234" y="249" on="0"/>
        <pt x="220" y="369" on="1"/>
        <pt x="198" y="589" on="0"/>
        <pt x="77" y="716" on="1"/>
        <pt x="66" y="728" on="0"/>
        <pt x="65" y="732" on="1"/>
        <pt x="61" y="744" on="0"/>
      </contour>
    </TTGlyph>
    <TTGlyph name="percent" xMin="65" yMin="-60" xMax="893" yMax="757">
      <contour>
        <pt x="214" y="748" on="1"/>
        <pt x="269" y="757" on="0"/>
        <pt x="316" y="722" on="1"/>
        <pt x="401" y="661" on="0"/>
        <pt x="498" y="646" on="1"/>
        <pt x="536" y="641" on="0"/>
        <pt x="567" y="645" on="1"/>
        <pt x="671" y="654" on="0"/>
        <pt x="736" y="730" on="1"/>
        <pt x="751" y="748" on="0"/>
        <pt x="767" y="749" on="1"/>
        <pt x="780" y="749" on="0"/>
        <pt x="788" y="741" on="1"/>
        <pt x="801" y="726" on="0"/>
        <pt x="795" y="709" on="1"/>
        <pt x="793" y="704" on="0"/>
        <pt x="504" y="329" on="1"/>
        <pt x="212" y="-47" on="0"/>
        <pt x="211" y="-48" on="1"/>
        <pt x="203" y="-55" on="0"/>
        <pt x="191" y="-55" on="1"/>
        <pt x="182" y="-55" on="0"/>
        <pt x="178" y="-53" on="1"/>
        <pt x="168" y="-48" on="0"/>
        <pt x="163" y="-38" on="1"/>
        <pt x="161" y="-34" on="0"/>
        <pt x="161" y="-25" on="1"/>
        <pt x="161" y="-17" on="0"/>
        <pt x="164" y="-12" on="1"/>
        <pt x="163" y="-13" on="0"/>
        <pt x="632" y="596" on="1"/>
        <pt x="630" y="596" on="1"/>
        <pt x="626" y="595" on="0"/>
        <pt x="623" y="594" on="1"/>
        <pt x="601" y="588" on="0"/>
        <pt x="579" y="587" on="1"/>
        <pt x="546" y="583" on="0"/>
        <pt x="503" y="587" on="1"/>
        <pt x="438" y="596" on="0"/>
        <pt x="386" y="617" on="1"/>
        <pt x="377" y="620" on="0"/>
        <pt x="376" y="620" on="1"/>
        <pt x="376" y="619" on="0"/>
        <pt x="377" y="612" on="1"/>
        <pt x="386" y="572" on="0"/>
        <pt x="382" y="521" on="1"/>
        <pt x="373" y="398" on="0"/>
        <pt x="293" y="360" on="1"/>
        <pt x="259" y="343" on="0"/>
        <pt x="215" y="348" on="1"/>
        <pt x="157" y="357" on="0"/>
        <pt x="119" y="395" on="1"/>
        <pt x="77" y="437" on="0"/>
        <pt x="67" y="507" on="1"/>
        <pt x="65" y="518" on="0"/>
        <pt x="65" y="549" on="1"/>
        <pt x="65" y="579" on="0"/>
        <pt x="67" y="591" on="1"/>
        <pt x="77" y="660" on="0"/>
        <pt x="119" y="702" on="1"/>
        <pt x="158" y="741" on="0"/>
      </contour>
      <contour>
        <pt x="248" y="688" on="1"/>
        <pt x="225" y="693" on="0"/>
        <pt x="209" y="675" on="1"/>
        <pt x="196" y="661" on="0"/>
        <pt x="194" y="626" on="1"/>
        <pt x="193" y="606" on="0"/>
        <pt x="193" y="549" on="1"/>
        <pt x="193" y="449" on="0"/>
        <pt x="201" y="433" on="1"/>
        <pt x="203" y="428" on="0"/>
        <pt x="209" y="422" on="1"/>
        <pt x="230" y="399" on="0"/>
        <pt x="260" y="414" on="1"/>
        <pt x="304" y="436" on="0"/>
        <pt x="310" y="525" on="1"/>
        <pt x="312" y="550" on="0"/>
        <pt x="310" y="576" on="1"/>
        <pt x="303" y="665" on="0"/>
        <pt x="256" y="685" on="1"/>
        <pt x="252" y="687" on="0"/>
      </contour>
      <contour>
        <pt x="724" y="345" on="1"/>
        <pt x="768" y="351" on="0"/>
        <pt x="803" y="334" on="1"/>
        <pt x="836" y="318" on="0"/>
        <pt x="857" y="286" on="1"/>
        <pt x="893" y="232" on="0"/>
        <pt x="893" y="146" on="1"/>
        <pt x="893" y="6" on="0"/>
        <pt x="808" y="-40" on="1"/>
        <pt x="806" y="-42" on="0"/>
        <pt x="803" y="-43" on="1"/>
        <pt x="769" y="-60" on="0"/>
        <pt x="725" y="-55" on="1"/>
        <pt x="667" y="-46" on="0"/>
        <pt x="629" y="-8" on="1"/>
        <pt x="587" y="34" on="0"/>
        <pt x="577" y="104" on="1"/>
        <pt x="575" y="115" on="0"/>
        <pt x="575" y="146" on="1"/>
        <pt x="575" y="176" on="0"/>
        <pt x="577" y="188" on="1"/>
        <pt x="587" y="257" on="0"/>
        <pt x="629" y="299" on="1"/>
        <pt x="668" y="338" on="0"/>
      </contour>
      <contour>
        <pt x="758" y="285" on="1"/>
        <pt x="735" y="290" on="0"/>
        <pt x="719" y="272" on="1"/>
        <pt x="706" y="258" on="0"/>
        <pt x="704" y="223" on="1"/>
        <pt x="703" y="203" on="0"/>
        <pt x="703" y="146" on="1"/>
        <pt x="703" y="46" on="0"/>
        <pt x="711" y="30" on="1"/>
        <pt x="713" y="25" on="0"/>
        <pt x="719" y="19" on="1"/>
        <pt x="740" y="-4" on="0"/>
        <pt x="770" y="11" on="1"/>
        <pt x="814" y="33" on="0"/>
        <pt x="820" y="122" on="1"/>
        <pt x="822" y="147" on="0"/>
        <pt x="820" y="173" on="1"/>
        <pt x="813" y="262" on="0"/>
        <pt x="766" y="282" on="1"/>
        <pt x="762" y="284" on="0"/>
      </contour>
    </TTGlyph>
    <TTGlyph name="period" xMin="54" yMin="1" xMax="264" yMax="181">
      <contour>
        <pt x="143" y="180" on="1"/>
        <pt x="148" y="181" on="0"/>
        <pt x="162" y="181" on="1"/>
        <pt x="193" y="180" on="0"/>
        <pt x="217" y="160" on="1"/>
        <pt x="230" y="150" on="0"/>
        <pt x="238" y="135" on="1"/>
        <pt x="264" y="90" on="0"/>
        <pt x="238" y="45" on="1"/>
        <pt x="230" y="31" on="0"/>
        <pt x="217" y="21" on="1"/>
        <pt x="205" y="10" on="0"/>
        <pt x="183" y="3" on="1"/>
        <pt x="175" y="1" on="0"/>
        <pt x="160" y="1" on="1"/>
        <pt x="144" y="1" on="0"/>
        <pt x="136" y="3" on="1"/>
        <pt x="108" y="11" on="0"/>
        <pt x="90" y="32" on="1"/>
        <pt x="54" y="77" on="0"/>
        <pt x="77" y="128" on="1"/>
        <pt x="82" y="139" on="0"/>
        <pt x="90" y="149" on="1"/>
        <pt x="100" y="160" on="0"/>
        <pt x="116" y="170" on="1"/>
        <pt x="129" y="176" on="0"/>
      </contour>
    </TTGlyph>
    <TTGlyph name="plus" xMin="64" yMin="-137" xMax="829" yMax="636">
      <contour>
        <pt x="436" y="631" on="1"/>
        <pt x="447" y="636" on="0"/>
        <pt x="459" y="630" on="1"/>
        <pt x="470" y="625" on="0"/>
        <pt x="475" y="613" on="1"/>
        <pt x="477" y="608" on="0"/>
        <pt x="477" y="444" on="1"/>
        <pt x="477" y="280" on="1"/>
        <pt x="642" y="280" on="1"/>
        <pt x="807" y="280" on="1"/>
        <pt x="811" y="277" on="1"/>
        <pt x="829" y="270" on="0"/>
        <pt x="829" y="249" on="1"/>
        <pt x="829" y="229" on="0"/>
        <pt x="811" y="222" on="1"/>
        <pt x="807" y="220" on="1"/>
        <pt x="642" y="219" on="1"/>
        <pt x="477" y="219" on="1"/>
        <pt x="477" y="55" on="1"/>
        <pt x="477" y="-109" on="0"/>
        <pt x="475" y="-114" on="1"/>
        <pt x="470" y="-126" on="0"/>
        <pt x="459" y="-131" on="1"/>
        <pt x="448" y="-137" on="0"/>
        <pt x="434" y="-131" on="1"/>
        <pt x="423" y="-126" on="0"/>
        <pt x="418" y="-114" on="1"/>
        <pt x="416" y="-109" on="0"/>
        <pt x="416" y="55" on="1"/>
        <pt x="416" y="219" on="1"/>
        <pt x="251" y="219" on="1"/>
        <pt x="87" y="220" on="1"/>
        <pt x="82" y="222" on="1"/>
        <pt x="64" y="229" on="0"/>
        <pt x="64" y="249" on="1"/>
        <pt x="64" y="270" on="0"/>
        <pt x="82" y="277" on="1"/>
        <pt x="87" y="280" on="1"/>
        <pt x="251" y="280" on="1"/>
        <pt x="416" y="280" on="1"/>
        <pt x="416" y="444" on="1"/>
        <pt x="416" y="608" on="0"/>
        <pt x="418" y="612" on="1"/>
        <pt x="423" y="627" on="0"/>
      </contour>
    </TTGlyph>
    <TTGlyph name="q" xMin="39" yMin="-194" xMax="614" yMax="451">
      <contour>
        <pt x="241" y="449" on="1"/>
        <pt x="267" y="451" on="0"/>
        <pt x="304" y="448" on="1"/>
        <pt x="343" y="440" on="0"/>
        <pt x="366" y="430" on="1"/>
        <pt x="400" y="415" on="0"/>
        <pt x="432" y="386" on="1"/>
        <pt x="437" y="381" on="1"/>
        <pt x="458" y="415" on="1"/>
        <pt x="479" y="450" on="1"/>
        <pt x="512" y="450" on="1"/>
        <pt x="545" y="450" on="1"/>
        <pt x="545" y="164" on="1"/>
        <pt x="545" y="-122" on="1"/>
        <pt x="580" y="-122" on="1"/>
        <pt x="614" y="-122" on="1"/>
        <pt x="614" y="-158" on="1"/>
        <pt x="614" y="-194" on="1"/>
        <pt x="605" y="-194" on="1"/>
        <pt x="535" y="-192" on="1"/>
        <pt x="475" y="-191" on="0"/>
        <pt x="415" y="-192" on="1"/>
        <pt x="345" y="-194" on="0"/>
        <pt x="346" y="-194" on="1"/>
        <pt x="337" y="-194" on="1"/>
        <pt x="337" y="-158" on="1"/>
        <pt x="337" y="-122" on="1"/>
        <pt x="372" y="-122" on="1"/>
        <pt x="406" y="-122" on="1"/>
        <pt x="406" y="-42" on="1"/>
        <pt x="406" y="38" on="1"/>
        <pt x="397" y="32" on="1"/>
        <pt x="359" y="9" on="0"/>
        <pt x="318" y="1" on="1"/>
        <pt x="212" y="-22" on="0"/>
        <pt x="130" y="31" on="1"/>
        <pt x="98" y="52" on="0"/>
        <pt x="77" y="84" on="1"/>
        <pt x="50" y="122" on="0"/>
        <pt x="41" y="180" on="1"/>
        <pt x="39" y="192" on="0"/>
        <pt x="39" y="222" on="1"/>
        <pt x="39" y="251" on="0"/>
        <pt x="40" y="259" on="1"/>
        <pt x="58" y="375" on="0"/>
        <pt x="152" y="424" on="1"/>
        <pt x="191" y="444" on="0"/>
      </contour>
      <contour>
        <pt x="315" y="384" on="1"/>
        <pt x="275" y="389" on="0"/>
        <pt x="247" y="367" on="1"/>
        <pt x="231" y="356" on="0"/>
        <pt x="219" y="339" on="1"/>
        <pt x="189" y="292" on="0"/>
        <pt x="191" y="211" on="1"/>
        <pt x="194" y="147" on="0"/>
        <pt x="214" y="108" on="1"/>
        <pt x="231" y="70" on="0"/>
        <pt x="267" y="58" on="1"/>
        <pt x="274" y="56" on="0"/>
        <pt x="289" y="56" on="1"/>
        <pt x="321" y="56" on="0"/>
        <pt x="347" y="69" on="1"/>
        <pt x="383" y="84" on="0"/>
        <pt x="408" y="121" on="1"/>
        <pt x="412" y="127" on="1"/>
        <pt x="412" y="215" on="1"/>
        <pt x="412" y="302" on="1"/>
        <pt x="406" y="314" on="1"/>
        <pt x="395" y="335" on="0"/>
        <pt x="378" y="353" on="1"/>
        <pt x="350" y="378" on="0"/>
      </contour>
    </TTGlyph>
    <TTGlyph name="question" xMin="65" yMin="-3" xMax="479" yMax="701">
      <contour>
        <pt x="228" y="699" on="1"/>
        <pt x="261" y="701" on="0"/>
        <pt x="318" y="698" on="1"/>
        <pt x="406" y="687" on="0"/>
        <pt x="445" y="648" on="1"/>
        <pt x="475" y="615" on="0"/>
        <pt x="478" y="572" on="1"/>
        <pt x="479" y="535" on="0"/>
        <pt x="457" y="501" on="1"/>
        <pt x="446" y="483" on="0"/>
        <pt x="415" y="463" on="1"/>
        <pt x="312" y="402" on="0"/>
        <pt x="294" y="327" on="1"/>
        <pt x="294" y="325" on="0"/>
        <pt x="292" y="288" on="1"/>
        <pt x="292" y="256" on="0"/>
        <pt x="289" y="251" on="1"/>
        <pt x="285" y="245" on="0"/>
        <pt x="267" y="245" on="1"/>
        <pt x="264" y="245" on="0"/>
        <pt x="256" y="245" on="1"/>
        <pt x="227" y="245" on="0"/>
        <pt x="223" y="250" on="1"/>
        <pt x="220" y="254" on="0"/>
        <pt x="220" y="288" on="1"/>
        <pt x="220" y="325" on="0"/>
        <pt x="221" y="334" on="1"/>
        <pt x="233" y="429" on="0"/>
        <pt x="302" y="506" on="1"/>
        <pt x="317" y="524" on="0"/>
        <pt x="320" y="534" on="1"/>
        <pt x="325" y="548" on="0"/>
        <pt x="325" y="584" on="1"/>
        <pt x="324" y="622" on="0"/>
        <pt x="314" y="629" on="1"/>
        <pt x="300" y="639" on="0"/>
        <pt x="260" y="638" on="1"/>
        <pt x="215" y="638" on="0"/>
        <pt x="192" y="629" on="1"/>
        <pt x="186" y="627" on="1"/>
        <pt x="193" y="620" on="1"/>
        <pt x="216" y="598" on="0"/>
        <pt x="214" y="563" on="1"/>
        <pt x="211" y="524" on="0"/>
        <pt x="182" y="504" on="1"/>
        <pt x="165" y="493" on="0"/>
        <pt x="113" y="493" on="0"/>
        <pt x="96" y="504" on="1"/>
        <pt x="73" y="521" on="0"/>
        <pt x="67" y="544" on="1"/>
        <pt x="65" y="551" on="0"/>
        <pt x="65" y="569" on="1"/>
        <pt x="65" y="586" on="0"/>
        <pt x="67" y="594" on="1"/>
        <pt x="88" y="667" on="0"/>
        <pt x="182" y="691" on="1"/>
        <pt x="215" y="698" on="0"/>
      </contour>
      <contour>
        <pt x="239" y="180" on="1"/>
        <pt x="256" y="184" on="0"/>
        <pt x="278" y="178" on="1"/>
        <pt x="322" y="167" on="0"/>
        <pt x="339" y="124" on="1"/>
        <pt x="342" y="119" on="0"/>
        <pt x="343" y="113" on="1"/>
        <pt x="349" y="90" on="0"/>
        <pt x="343" y="68" on="1"/>
        <pt x="331" y="22" on="0"/>
        <pt x="287" y="6" on="1"/>
        <pt x="282" y="4" on="0"/>
        <pt x="278" y="3" on="1"/>
        <pt x="256" y="-3" on="0"/>
        <pt x="233" y="3" on="1"/>
        <pt x="187" y="15" on="0"/>
        <pt x="171" y="59" on="1"/>
        <pt x="169" y="64" on="0"/>
        <pt x="168" y="68" on="1"/>
        <pt x="162" y="90" on="0"/>
        <pt x="168" y="113" on="1"/>
        <pt x="176" y="143" on="0"/>
        <pt x="198" y="160" on="1"/>
        <pt x="215" y="174" on="0"/>
      </contour>
    </TTGlyph>
    <TTGlyph name="quotedbl" xMin="36" yMin="316" xMax="513" yMax="696">
      <contour>
        <pt x="115" y="693" on="1"/>
        <pt x="133" y="696" on="0"/>
        <pt x="152" y="691" on="1"/>
        <pt x="173" y="685" on="0"/>
        <pt x="184" y="675" on="1"/>
        <pt x="211" y="654" on="0"/>
        <pt x="224" y="618" on="1"/>
        <pt x="236" y="584" on="0"/>
        <pt x="235" y="548" on="1"/>
        <pt x="234" y="523" on="0"/>
        <pt x="229" y="499" on="1"/>
        <pt x="209" y="397" on="0"/>
        <pt x="125" y="328" on="1"/>
        <pt x="110" y="316" on="0"/>
        <pt x="103" y="321" on="1"/>
        <pt x="99" y="323" on="0"/>
        <pt x="88" y="334" on="1"/>
        <pt x="75" y="346" on="0"/>
        <pt x="72" y="351" on="1"/>
        <pt x="68" y="361" on="0"/>
        <pt x="80" y="370" on="1"/>
        <pt x="103" y="388" on="0"/>
        <pt x="114" y="402" on="1"/>
        <pt x="148" y="441" on="0"/>
        <pt x="162" y="485" on="1"/>
        <pt x="174" y="516" on="0"/>
        <pt x="171" y="522" on="1"/>
        <pt x="166" y="520" on="1"/>
        <pt x="153" y="514" on="0"/>
        <pt x="105" y="514" on="0"/>
        <pt x="91" y="520" on="1"/>
        <pt x="47" y="538" on="0"/>
        <pt x="39" y="588" on="1"/>
        <pt x="36" y="604" on="0"/>
        <pt x="39" y="620" on="1"/>
        <pt x="49" y="677" on="0"/>
        <pt x="104" y="691" on="1"/>
        <pt x="109" y="692" on="0"/>
      </contour>
      <contour>
        <pt x="392" y="693" on="1"/>
        <pt x="410" y="696" on="0"/>
        <pt x="429" y="691" on="1"/>
        <pt x="450" y="685" on="0"/>
        <pt x="461" y="675" on="1"/>
        <pt x="488" y="654" on="0"/>
        <pt x="501" y="618" on="1"/>
        <pt x="513" y="584" on="0"/>
        <pt x="512" y="548" on="1"/>
        <pt x="511" y="523" on="0"/>
        <pt x="506" y="499" on="1"/>
        <pt x="486" y="397" on="0"/>
        <pt x="402" y="328" on="1"/>
        <pt x="387" y="316" on="0"/>
        <pt x="380" y="321" on="1"/>
        <pt x="376" y="323" on="0"/>
        <pt x="365" y="334" on="1"/>
        <pt x="352" y="346" on="0"/>
        <pt x="349" y="351" on="1"/>
        <pt x="345" y="361" on="0"/>
        <pt x="357" y="370" on="1"/>
        <pt x="380" y="388" on="0"/>
        <pt x="391" y="402" on="1"/>
        <pt x="425" y="441" on="0"/>
        <pt x="439" y="485" on="1"/>
        <pt x="451" y="516" on="0"/>
        <pt x="448" y="522" on="1"/>
        <pt x="443" y="520" on="1"/>
        <pt x="430" y="514" on="0"/>
        <pt x="382" y="514" on="0"/>
        <pt x="368" y="520" on="1"/>
        <pt x="324" y="538" on="0"/>
        <pt x="316" y="588" on="1"/>
        <pt x="313" y="604" on="0"/>
        <pt x="316" y="620" on="1"/>
        <pt x="326" y="677" on="0"/>
        <pt x="381" y="691" on="1"/>
        <pt x="386" y="692" on="0"/>
      </contour>
    </TTGlyph>
    <TTGlyph name="quotesingle" xMin="67" yMin="316" xMax="267" yMax="696">
      <contour>
        <pt x="146" y="693" on="1"/>
        <pt x="164" y="696" on="0"/>
        <pt x="183" y="691" on="1"/>
        <pt x="208" y="685" on="0"/>
        <pt x="228" y="663" on="1"/>
        <pt x="259" y="631" on="0"/>
        <pt x="265" y="576" on="1"/>
        <pt x="267" y="547" on="0"/>
        <pt x="264" y="522" on="1"/>
        <pt x="259" y="484" on="0"/>
        <pt x="245" y="449" on="1"/>
        <pt x="231" y="410" on="0"/>
        <pt x="200" y="372" on="1"/>
        <pt x="186" y="353" on="0"/>
        <pt x="157" y="329" on="1"/>
        <pt x="141" y="316" on="0"/>
        <pt x="134" y="321" on="1"/>
        <pt x="130" y="323" on="0"/>
        <pt x="119" y="334" on="1"/>
        <pt x="106" y="346" on="0"/>
        <pt x="103" y="351" on="1"/>
        <pt x="99" y="361" on="0"/>
        <pt x="113" y="372" on="1"/>
        <pt x="170" y="414" on="0"/>
        <pt x="193" y="485" on="1"/>
        <pt x="205" y="516" on="0"/>
        <pt x="202" y="522" on="1"/>
        <pt x="197" y="520" on="1"/>
        <pt x="184" y="514" on="0"/>
        <pt x="136" y="514" on="0"/>
        <pt x="122" y="520" on="1"/>
        <pt x="78" y="538" on="0"/>
        <pt x="70" y="588" on="1"/>
        <pt x="67" y="604" on="0"/>
        <pt x="70" y="620" on="1"/>
        <pt x="80" y="677" on="0"/>
        <pt x="135" y="691" on="1"/>
        <pt x="140" y="692" on="0"/>
      </contour>
    </TTGlyph>
</ttFont>
